<svg width="30" height="22" viewBox="0 0 30 22" fill="none" xmlns="http://www.w3.org/2000/svg">
<g clip-path="url(#clip0_3020_3836)">
<g clip-path="url(#clip1_3020_3836)">
<path d="M25.1507 16.1802H24.4431V14.3683H25.1507C25.456 14.3683 25.7038 14.1183 25.7038 13.8102V2.36996C25.7038 2.06193 25.456 1.81189 25.1507 1.81189H7.90212C7.5968 1.81189 7.34896 2.06193 7.34896 2.36996V3.07297H5.55298V2.36996C5.55298 1.06539 6.60542 0 7.90212 0H25.1507C26.4438 0 27.4998 1.06177 27.4998 2.36996V13.8139C27.4998 15.1184 26.4474 16.1838 25.1507 16.1838V16.1802Z" fill="#2A3F72"/>
<g style="mix-blend-mode:screen">
<path d="M10.2082 9.4873C10.7901 9.4873 11.2606 9.96202 11.2606 10.5491C11.2606 11.1361 10.7901 11.6108 10.2082 11.6108C9.62631 11.6108 9.15576 11.1361 9.15576 10.5491C9.15576 9.96202 9.62631 9.4873 10.2082 9.4873Z" fill="#5F7CEA"/>
</g>
<g style="mix-blend-mode:screen">
<path d="M13.3657 9.4873C13.9476 9.4873 14.4181 9.96202 14.4181 10.5491C14.4181 11.1361 13.9476 11.6108 13.3657 11.6108C12.7838 11.6108 12.3132 11.1361 12.3132 10.5491C12.3132 9.96202 12.7838 9.4873 13.3657 9.4873Z" fill="#5F7CEA"/>
</g>
<g style="mix-blend-mode:screen">
<path d="M16.5266 9.4873C17.1085 9.4873 17.579 9.96202 17.579 10.5491C17.579 11.1361 17.1085 11.6108 16.5266 11.6108C15.9447 11.6108 15.4741 11.1361 15.4741 10.5491C15.4741 9.96202 15.9447 9.4873 16.5266 9.4873Z" fill="#5F7CEA"/>
</g>
<g style="mix-blend-mode:screen">
<path d="M4.94246 21.9998L4.05525 21.3439L4.38571 19.2095C3.31171 18.9993 2.49634 18.0462 2.49634 16.9011V5.42097C2.49634 4.12728 3.5416 3.07275 4.82392 3.07275H22.112C23.3943 3.07275 24.4396 4.12728 24.4396 5.42097V16.9011C24.4396 18.1948 23.3943 19.2493 22.112 19.2493H10.7291C10.5926 19.2493 10.4561 19.2819 10.334 19.3399L4.94246 21.9962V21.9998ZM4.82752 4.88465C4.53298 4.88465 4.29591 5.12744 4.29591 5.42097V16.9011C4.29591 17.1983 4.53657 17.4374 4.82752 17.4374H5.1903C5.51358 17.4374 5.8189 17.5788 6.03082 17.8288C6.24275 18.0788 6.33254 18.405 6.28226 18.7275L6.18168 19.3725L9.55094 17.7128C9.91731 17.5317 10.3268 17.4374 10.7363 17.4374H22.1192C22.4137 17.4374 22.6508 17.1946 22.6508 16.9011V5.42097C22.6508 5.12382 22.4137 4.88465 22.1192 4.88465H4.82752Z" fill="#5F7CEA"/>
</g>
</g>
</g>
<defs>
<clipPath id="clip0_3020_3836">
<rect width="26" height="22" fill="white" transform="translate(2)"/>
</clipPath>
<clipPath id="clip1_3020_3836">
<rect width="25" height="22" fill="white" transform="translate(2.5)"/>
</clipPath>
</defs>
</svg>
