<svg width="32" height="32" viewBox="0 0 32 32" fill="none" xmlns="http://www.w3.org/2000/svg">
<circle cx="16" cy="16" r="16" fill="#595959"/>
<mask id="mask0_1671_3991" style="mask-type:alpha" maskUnits="userSpaceOnUse" x="0" y="0" width="32" height="32">
<circle cx="16" cy="16" r="16" fill="#232323"/>
</mask>
<g mask="url(#mask0_1671_3991)">
<path d="M11.6924 23.3846C8.73854 24.7384 6.76931 27.2663 5.66162 29.3587C9.10777 36.7433 30.2148 32.8519 26.5847 28.1846C24.8616 25.9692 23.3511 24.8855 21.7847 24C17.6218 21.6464 13.7313 22.4501 11.6924 23.3846Z" fill="#D9D9D9"/>
</g>
<path d="M24.3665 16.7591C24.3665 17.4539 23.5137 18.4387 22.5366 18.1573C21.863 17.9621 21.0044 17.4568 21.0044 16.7591C21.0044 16.0614 21.9844 15.3637 22.6869 15.3637C23.8173 15.3637 24.3694 16.0642 24.3694 16.7591H24.3665Z" fill="#D9D9D9"/>
<path d="M7.63375 16.7591C7.63375 17.4539 8.48657 18.4387 9.46371 18.1573C10.1373 17.9621 10.9959 17.4568 10.9959 16.7591C10.9959 16.0614 10.0159 15.3637 9.31338 15.3637C8.18303 15.3637 7.63086 16.0642 7.63086 16.7591H7.63375Z" fill="#D9D9D9"/>
<path d="M23.2651 14.9646C23.3836 19.5843 20.8482 24.0088 16.4743 24.1208C12.1003 24.2327 8.95498 20.2964 8.83645 15.6767C8.71792 11.057 11.6696 7.49959 16.0435 7.38761C20.4175 7.27564 23.1465 10.342 23.2651 14.9618V14.9646Z" fill="#D9D9D9"/>
<path d="M22.9614 17.3792C23.0857 16.9227 23.4298 16.5409 22.9846 16.1906C23.7796 16.1734 23.5049 17.184 22.9614 17.3792Z" fill="#607DEA"/>
<path d="M9.1397 17.3794C8.5962 17.1871 8.32156 16.1764 9.11657 16.1908C8.67426 16.541 9.01539 16.9229 9.1397 17.3794Z" fill="#607DEA"/>
<path d="M16.3125 16.7964H15.5464V14.8555H15.8297V16.5151H16.3125V16.7964Z" fill="#607DEA"/>
<path d="M13.4098 15.0076C13.4098 15.1971 13.2884 15.3493 13.1409 15.3493C12.9935 15.3493 12.8721 15.1971 12.8721 15.0076C12.8721 14.8181 12.9935 14.666 13.1409 14.666C13.2884 14.666 13.4098 14.8181 13.4098 15.0076Z" fill="#607DEA"/>
<path d="M19.3883 15.0076C19.3883 15.1971 19.2669 15.3493 19.1194 15.3493C18.972 15.3493 18.8506 15.1971 18.8506 15.0076C18.8506 14.8181 18.972 14.666 19.1194 14.666C19.2669 14.666 19.3883 14.8181 19.3883 15.0076Z" fill="#607DEA"/>
<path d="M16.0148 20.1643C14.9075 20.1643 14.6792 19.1278 14.6763 19.1192L14.9538 19.0618C14.9625 19.0963 15.1417 19.883 16.0148 19.883C16.9485 19.883 17.041 19.1106 17.0439 19.0762L17.3272 19.102C17.3272 19.102 17.2116 20.1643 16.0148 20.1643Z" fill="#607DEA"/>
</svg>
