<svg width="22" height="22" viewBox="0 0 22 22" fill="none" xmlns="http://www.w3.org/2000/svg">
<path d="M11 21.957C9.50325 21.957 8.09245 21.6706 6.76758 21.0977C5.44987 20.5247 4.28613 19.7334 3.27637 18.7236C2.2666 17.7139 1.47526 16.5501 0.902344 15.2324C0.329427 13.9076 0.0429688 12.4967 0.0429688 11C0.0429688 9.50325 0.329427 8.09603 0.902344 6.77832C1.47526 5.45345 2.26302 4.28613 3.26562 3.27637C4.27539 2.2666 5.43913 1.47526 6.75684 0.902344C8.08171 0.329427 9.49251 0.0429688 10.9893 0.0429688C12.486 0.0429688 13.8968 0.329427 15.2217 0.902344C16.5465 1.47526 17.7139 2.2666 18.7236 3.27637C19.7334 4.28613 20.5247 5.45345 21.0977 6.77832C21.6706 8.09603 21.957 9.50325 21.957 11C21.957 12.4967 21.6706 13.9076 21.0977 15.2324C20.5247 16.5501 19.7334 17.7139 18.7236 18.7236C17.7139 19.7334 16.5465 20.5247 15.2217 21.0977C13.904 21.6706 12.4967 21.957 11 21.957ZM11 20.1309C12.2676 20.1309 13.4528 19.8945 14.5557 19.4219C15.6585 18.9492 16.6289 18.2975 17.4668 17.4668C18.3047 16.6289 18.9564 15.6585 19.4219 14.5557C19.8945 13.4528 20.1309 12.2676 20.1309 11C20.1309 9.73242 19.8945 8.5472 19.4219 7.44434C18.9492 6.34147 18.2939 5.37109 17.4561 4.5332C16.6253 3.69531 15.6549 3.04362 14.5449 2.57812C13.4421 2.10547 12.2568 1.86914 10.9893 1.86914C9.72168 1.86914 8.53646 2.10547 7.43359 2.57812C6.33073 3.04362 5.36393 3.69531 4.5332 4.5332C3.70247 5.37109 3.05078 6.34147 2.57812 7.44434C2.11263 8.5472 1.87988 9.73242 1.87988 11C1.87988 12.2676 2.11263 13.4528 2.57812 14.5557C3.05078 15.6585 3.70247 16.6289 4.5332 17.4668C5.37109 18.2975 6.34147 18.9492 7.44434 19.4219C8.5472 19.8945 9.73242 20.1309 11 20.1309ZM18.3477 18.0791C17.696 18.7165 16.9297 19.2607 16.0488 19.7119C15.1751 20.1631 14.2907 20.5068 13.3955 20.7432C12.5003 20.9867 11.7018 21.1084 11 21.1084C10.3053 21.1084 9.50684 20.9867 8.60449 20.7432C7.70931 20.5068 6.82129 20.1631 5.94043 19.7119C5.05957 19.2607 4.29688 18.7165 3.65234 18.0791L3.68457 17.9502C3.86361 17.4274 4.28255 16.9118 4.94141 16.4033C5.60026 15.8949 6.44531 15.4759 7.47656 15.1465C8.51497 14.8171 9.68945 14.6523 11 14.6523C12.3177 14.6523 13.4922 14.8171 14.5234 15.1465C15.5618 15.4759 16.4069 15.8949 17.0586 16.4033C17.7174 16.9118 18.1364 17.431 18.3154 17.9609L18.3477 18.0791ZM11 12.8262C10.3125 12.819 9.68945 12.64 9.13086 12.2891C8.57943 11.931 8.139 11.4476 7.80957 10.8389C7.4873 10.2301 7.32259 9.54264 7.31543 8.77637C7.30827 8.05306 7.4694 7.39062 7.79883 6.78906C8.12825 6.1875 8.57227 5.70768 9.13086 5.34961C9.68945 4.98438 10.3125 4.80176 11 4.80176C11.6875 4.80176 12.307 4.98438 12.8584 5.34961C13.417 5.70768 13.861 6.1875 14.1904 6.78906C14.5199 7.39062 14.6846 8.05306 14.6846 8.77637C14.6846 9.54264 14.5199 10.2337 14.1904 10.8496C13.8682 11.4655 13.4277 11.9525 12.8691 12.3105C12.3105 12.6615 11.6875 12.8333 11 12.8262Z" fill="#5F7CEA"/>
</svg>
