<svg width="30" height="22" viewBox="0 0 30 22" fill="none" xmlns="http://www.w3.org/2000/svg">
<g style="mix-blend-mode:screen">
<path d="M26.9445 21.9999H3.05548C2.47145 21.9999 2 21.525 2 20.9366V3.89168C2 3.30332 2.47145 2.82837 3.05548 2.82837H8.57212C9.15616 2.82837 9.6276 3.30332 9.6276 3.89168C9.6276 4.48005 9.15616 4.955 8.57212 4.955H4.11096V19.8733H25.889V3.89168C25.889 3.30332 26.3605 2.82837 26.9445 2.82837C27.5286 2.82837 28 3.30332 28 3.89168V20.9366C28 21.525 27.5286 21.9999 26.9445 21.9999Z" fill="#717071"/>
</g>
<path d="M5.71869 0H8.09C8.35387 0 8.59311 0.159497 8.69514 0.407604L13.7333 12.5081C13.9163 12.9441 13.5961 13.4261 13.1282 13.4261H10.7568C10.493 13.4261 10.2537 13.2666 10.1517 13.0185L5.11355 0.917996C4.9306 0.482036 5.25076 0 5.71869 0Z" fill="#717071"/>
<path d="M11.341 0H13.7123C13.9762 0 14.2154 0.159497 14.3175 0.407604L19.3556 12.5081C19.5386 12.9441 19.2184 13.4261 18.7505 13.4261H16.3792C16.1153 13.4261 15.8761 13.2666 15.774 13.0185L10.7359 0.917996C10.5529 0.482036 10.8731 0 11.341 0Z" fill="#717071"/>
<path d="M16.9384 13.4261H19.3097C19.5736 13.4261 19.8128 13.2666 19.9149 13.0185L24.953 0.917996C25.136 0.482036 24.8193 0 24.3479 0H21.9766C21.7127 0 21.4735 0.159497 21.3714 0.407604L16.3333 12.5081C16.1503 12.9441 16.4705 13.4261 16.9384 13.4261Z" fill="#717071"/>
</svg>
