<svg width="16" height="16" viewBox="0 0 16 16" fill="none" xmlns="http://www.w3.org/2000/svg">
<path fill-rule="evenodd" clip-rule="evenodd" d="M14 8C14 11.3137 11.3137 14 8 14C4.68629 14 2 11.3137 2 8C2 4.68629 4.68629 2 8 2C11.3137 2 14 4.68629 14 8ZM10.6074 11.668C9.8718 12.1919 8.97185 12.5 8 12.5C5.51472 12.5 3.5 10.4853 3.5 8C3.5 7.02815 3.80809 6.12821 4.33193 5.3926L10.6074 11.668ZM11.668 10.6074L5.39259 4.33194C6.12821 3.80809 7.02815 3.5 8 3.5C10.4853 3.5 12.5 5.51472 12.5 8C12.5 8.97185 12.1919 9.8718 11.668 10.6074Z" fill="#CDCDCD"/>
</svg>
