<svg width="86" height="28" viewBox="0 0 86 28" fill="none" xmlns="http://www.w3.org/2000/svg">
<g clip-path="url(#clip0_1498_7941)">
<path d="M0.393932 0H5.64635C6.96131 0 8.14255 0.784978 8.64773 1.99207L19.3606 27.4594C19.472 27.7186 19.2789 28 19.004 28H11.8497C11.6937 28 11.5525 27.9037 11.4931 27.763L0.0299031 0.540598C-0.0815344 0.281407 0.111624 0 0.386503 0H0.393932Z" fill="#293351"/>
<path d="M12.2432 0H17.4956C18.8106 0 19.9918 0.784978 20.497 1.99207L31.2098 27.4594C31.3213 27.7186 31.1281 28 30.8532 28H23.6989C23.5429 28 23.4018 27.9037 23.3423 27.763L11.8791 0.540598C11.7677 0.281407 11.9609 0 12.2357 0H12.2432Z" fill="url(#paint0_linear_1498_7941)"/>
<g style="mix-blend-mode:screen">
<path d="M23.7807 28H30.935C31.091 28 31.2321 27.9037 31.2916 27.763L42.7548 0.540598C42.8588 0.281407 42.673 0 42.3907 0H37.1383C35.8233 0 34.6421 0.784978 34.1369 1.99207L23.4241 27.4594C23.3126 27.7186 23.5058 28 23.7807 28Z" fill="#5F7CEA"/>
</g>
<path d="M33.7433 24.549V15.8698C33.7433 13.5667 35.1845 12.4115 38.0745 12.4115H45.786C48.6685 12.4115 50.1097 13.5667 50.1097 15.8698V24.549C50.1097 26.8521 48.6685 28.0074 45.786 28.0074H38.0745C35.192 28.0074 33.7433 26.8521 33.7433 24.549ZM37.4802 24.0381C37.4802 24.6083 37.8368 24.8971 38.5574 24.8971H45.2733C46.0088 24.8971 46.3729 24.6083 46.3729 24.0381V16.3734C46.3729 15.8032 46.0088 15.5144 45.2733 15.5144H38.5574C37.8442 15.5144 37.4802 15.8032 37.4802 16.3734V24.0381Z" fill="white"/>
<path d="M52.866 24.549V7.66461H56.6028V12.4041H62.4347V15.5144H56.6028V24.0381C56.6028 24.6083 56.9594 24.8971 57.6801 24.8971H62.4347V28.0074H57.1972C54.3146 28.0074 52.866 26.8521 52.866 24.549Z" fill="white"/>
<path d="M64.9829 24.549V15.8698C64.9829 13.5667 66.4242 12.4115 69.3141 12.4115H76.4089C79.2915 12.4115 80.7327 13.5667 80.7327 15.8698V21.7942H68.7198V24.0455C68.7198 24.6157 69.0764 24.9045 69.797 24.9045H80.7327V28.0148H69.3067C66.4242 28.0148 64.9755 26.8595 64.9755 24.5564L64.9829 24.549ZM68.7198 18.6839H76.9959V16.3808C76.9959 15.8106 76.6318 15.5218 75.8963 15.5218H69.797C69.0838 15.5218 68.7198 15.8106 68.7198 16.3808V18.6839Z" fill="white"/>
<path d="M86.0001 24.8749H82.8575V28.0074H86.0001V24.8749Z" fill="#5F7CEA"/>
</g>
<defs>
<linearGradient id="paint0_linear_1498_7941" x1="17.243" y1="4.36181" x2="25.1128" y2="22.1979" gradientUnits="userSpaceOnUse">
<stop stop-color="#435BB3"/>
<stop offset="1" stop-color="#30417A"/>
</linearGradient>
<clipPath id="clip0_1498_7941">
<rect width="86" height="28" fill="white"/>
</clipPath>
</defs>
</svg>
