<svg width="152" height="50" viewBox="0 0 152 50" fill="none" xmlns="http://www.w3.org/2000/svg">
<g clip-path="url(#clip0_1497_6006)">
<path d="M0.695924 0H9.97927C12.3034 0 14.3912 1.40175 15.284 3.55726L34.2184 49.0346C34.4153 49.4975 34.0739 50 33.5881 50H20.9433C20.6676 50 20.4181 49.8281 20.3131 49.5768L0.0525241 0.965353C-0.144435 0.502513 0.196961 0 0.682794 0H0.695924Z" fill="#293351"/>
<path d="M21.6392 0H30.9226C33.2467 0 35.3345 1.40175 36.2273 3.55726L55.1617 49.0346C55.3586 49.4975 55.0172 50 54.5314 50H41.8866C41.6109 50 41.3614 49.8281 41.2564 49.5768L20.9958 0.965353C20.7989 0.502513 21.1403 0 21.6261 0H21.6392Z" fill="url(#paint0_linear_1497_6006)"/>
<g style="mix-blend-mode:screen">
<path d="M42.0311 50H54.6759C54.9516 50 55.2011 49.8281 55.3062 49.5768L75.5667 0.965353C75.7505 0.502513 75.4223 0 74.9233 0H65.64C63.3158 0 61.2281 1.40175 60.3352 3.55726L41.4009 49.0346C41.2039 49.4975 41.5453 50 42.0311 50Z" fill="#5F7CEA"/>
</g>
<path d="M59.6393 43.8376V28.3391C59.6393 24.2264 62.1866 22.1635 67.2944 22.1635H80.924C86.0187 22.1635 88.566 24.2264 88.566 28.3391V43.8376C88.566 47.9503 86.0187 50.0132 80.924 50.0132H67.2944C62.1998 50.0132 59.6393 47.9503 59.6393 43.8376ZM66.244 42.9252C66.244 43.9434 66.8743 44.4591 68.1479 44.4591H80.018C81.3179 44.4591 81.9613 43.9434 81.9613 42.9252V29.2383C81.9613 28.2201 81.3179 27.7043 80.018 27.7043H68.1479C66.8874 27.7043 66.244 28.2201 66.244 29.2383V42.9252Z" fill="white"/>
<path d="M93.4375 43.8376V13.6868H100.042V22.1502H110.35V27.7043H100.042V42.9251C100.042 43.9434 100.672 44.4591 101.946 44.4591H110.35V50.0132H101.093C95.998 50.0132 93.4375 47.9502 93.4375 43.8376Z" fill="white"/>
<path d="M114.854 43.8376V28.3391C114.854 24.2264 117.401 22.1635 122.509 22.1635H135.048C140.143 22.1635 142.69 24.2264 142.69 28.3391V38.9183H121.458V42.9384C121.458 43.9566 122.088 44.4724 123.362 44.4724H142.69V50.0265H122.496C117.401 50.0265 114.84 47.9635 114.84 43.8508L114.854 43.8376ZM121.458 33.3642H136.086V29.2515C136.086 28.2333 135.442 27.7175 134.142 27.7175H123.362C122.102 27.7175 121.458 28.2333 121.458 29.2515V33.3642Z" fill="white"/>
<path d="M152 44.4194H146.446V50.0132H152V44.4194Z" fill="#5F7CEA"/>
</g>
<defs>
<linearGradient id="paint0_linear_1497_6006" x1="30.4761" y1="7.78894" x2="44.6268" y2="39.5317" gradientUnits="userSpaceOnUse">
<stop stop-color="#435BB3"/>
<stop offset="1" stop-color="#30417A"/>
</linearGradient>
<clipPath id="clip0_1497_6006">
<rect width="152" height="50" fill="white"/>
</clipPath>
</defs>
</svg>
