<svg width="342" height="181" viewBox="0 0 342 181" fill="none" xmlns="http://www.w3.org/2000/svg">
<rect width="342" height="181" fill="#15151A"/>
<g clip-path="url(#clip0_2697_3758)">
<path d="M95.6957 66H104.979C107.303 66 109.391 67.4017 110.284 69.5573L129.218 115.035C129.415 115.497 129.074 116 128.588 116H115.943C115.667 116 115.418 115.828 115.313 115.577L95.0523 66.9654C94.8554 66.5025 95.1968 66 95.6826 66H95.6957Z" fill="#293351"/>
<path d="M116.639 66H125.922C128.247 66 130.334 67.4017 131.227 69.5573L150.162 115.035C150.359 115.497 150.017 116 149.531 116H136.887C136.611 116 136.361 115.828 136.256 115.577L115.996 66.9654C115.799 66.5025 116.14 66 116.626 66H116.639Z" fill="url(#paint0_linear_2697_3758)"/>
<g style="mix-blend-mode:screen">
<path d="M137.031 116H149.676C149.951 116 150.201 115.828 150.306 115.577L170.566 66.9654C170.75 66.5025 170.422 66 169.923 66H160.64C158.315 66 156.228 67.4017 155.335 69.5573L136.4 115.035C136.204 115.497 136.545 116 137.031 116Z" fill="#5F7CEA"/>
</g>
<path d="M154.639 109.837V94.3387C154.639 90.226 157.187 88.1631 162.294 88.1631H175.924C181.019 88.1631 183.566 90.226 183.566 94.3387V109.837C183.566 113.95 181.019 116.013 175.924 116.013H162.294C157.2 116.013 154.639 113.95 154.639 109.837ZM161.244 108.925C161.244 109.943 161.874 110.459 163.148 110.459H175.018C176.318 110.459 176.961 109.943 176.961 108.925V95.2379C176.961 94.2197 176.318 93.7039 175.018 93.7039H163.148C161.887 93.7039 161.244 94.2197 161.244 95.2379V108.925Z" fill="white"/>
<path d="M188.438 109.837V79.6865H195.042V88.1499H205.35V93.704H195.042V108.925C195.042 109.943 195.672 110.459 196.946 110.459H205.35V116.013H196.093C190.998 116.013 188.438 113.95 188.438 109.837Z" fill="white"/>
<path d="M209.853 109.837V94.3387C209.853 90.226 212.401 88.1631 217.509 88.1631H230.048C235.143 88.1631 237.69 90.226 237.69 94.3387V104.918H216.458V108.938C216.458 109.956 217.088 110.472 218.362 110.472H237.69V116.026H217.495C212.401 116.026 209.84 113.963 209.84 109.85L209.853 109.837ZM216.458 99.3638H231.086V95.2512C231.086 94.2329 230.442 93.7172 229.142 93.7172H218.362C217.102 93.7172 216.458 94.2329 216.458 95.2512V99.3638Z" fill="white"/>
<path d="M247 110.419H241.446V116.013H247V110.419Z" fill="#5F7CEA"/>
</g>
<defs>
<linearGradient id="paint0_linear_2697_3758" x1="125.476" y1="73.7889" x2="139.627" y2="105.532" gradientUnits="userSpaceOnUse">
<stop stop-color="#435BB3"/>
<stop offset="1" stop-color="#30417A"/>
</linearGradient>
<clipPath id="clip0_2697_3758">
<rect width="152" height="50" fill="white" transform="translate(95 66)"/>
</clipPath>
</defs>
</svg>
