<svg width="118" height="115" viewBox="0 0 118 115" fill="none" xmlns="http://www.w3.org/2000/svg">
<path d="M88.9505 73.1494L85.6135 71.2139L85.4578 15.3619L88.7903 17.2973L88.9505 73.1494Z" fill="#2D5A9D"/>
<mask id="mask0_1462_2376" style="mask-type:luminance" maskUnits="userSpaceOnUse" x="83" y="2" width="7" height="3">
<path d="M85.7872 2.40998L89.1197 4.34987C88.4079 3.93609 87.4201 3.99393 86.3345 4.62128L83.002 2.68139C84.092 2.05404 85.0753 1.99619 85.7872 2.40998Z" fill="white"/>
</mask>
<g mask="url(#mask0_1462_2376)">
<path d="M86.3345 4.62128L83.002 2.68139C84.092 2.05404 85.0753 1.99619 85.7872 2.40998L89.1197 4.34987C88.4079 3.93609 87.4201 3.99393 86.3345 4.62128Z" fill="#376DBE"/>
</g>
<path d="M22.2107 111.68L18.8782 109.745L85.6132 71.2139L88.9502 73.1494L22.2107 111.68Z" fill="#2A5391"/>
<mask id="mask1_1462_2376" style="mask-type:luminance" maskUnits="userSpaceOnUse" x="36" y="37" width="5" height="4">
<path d="M36.8268 37.2391C37.9391 37.8842 39.0515 38.5294 40.1593 39.179C40.0526 39.526 39.9013 39.8731 39.71 40.1979C38.5976 39.5527 37.4853 38.9076 36.3774 38.258C36.5643 37.9332 36.72 37.5861 36.8268 37.2391Z" fill="white"/>
</mask>
<g mask="url(#mask1_1462_2376)">
<path d="M36.72 41.9198L33.3875 39.9799C33.7701 40.2023 34.304 40.1712 34.8913 39.833C36.057 39.1612 37.0047 37.5238 37.0003 36.1802C37.0003 35.5128 36.7645 35.0456 36.3818 34.8231L39.7144 36.763C40.0925 36.9855 40.3284 37.4527 40.3328 38.1201C40.3328 39.4637 39.394 41.0966 38.2238 41.7729C37.6365 42.1111 37.1071 42.1422 36.72 41.9198Z" fill="#376DBE"/>
</g>
<mask id="mask2_1462_2376" style="mask-type:luminance" maskUnits="userSpaceOnUse" x="36" y="37" width="5" height="3">
<path d="M36.8271 37.2391V37.2258C37.9439 37.8709 39.0562 38.5161 40.1641 39.1657V39.179C39.0473 38.5339 37.935 37.8887 36.8271 37.2391Z" fill="white"/>
</mask>
<g mask="url(#mask2_1462_2376)">
<path d="M36.72 41.9198L33.3875 39.9799C33.7701 40.2024 34.304 40.1712 34.8913 39.8331C36.057 39.1612 37.0047 37.5239 37.0003 36.1802C37.0003 35.5128 36.7645 35.0456 36.3818 34.8232L39.7144 36.7631C40.0925 36.9855 40.3284 37.4527 40.3328 38.1201C40.3328 39.4638 39.394 41.0967 38.2238 41.773C37.6365 42.1111 37.1071 42.1423 36.72 41.9198Z" fill="#376DBE"/>
</g>
<mask id="mask3_1462_2376" style="mask-type:luminance" maskUnits="userSpaceOnUse" x="33" y="38" width="7" height="5">
<path d="M34.8869 39.833C35.4698 39.4949 35.9992 38.9209 36.3774 38.258C37.4898 38.9031 38.6021 39.5483 39.71 40.1979C39.3273 40.8564 38.8023 41.4348 38.2194 41.7729C37.6321 42.1111 37.1027 42.1422 36.7156 41.9198L33.3831 39.9799C33.7657 40.2023 34.2996 40.1712 34.8869 39.833Z" fill="white"/>
</mask>
<g mask="url(#mask3_1462_2376)">
<path d="M36.72 41.9198L33.3875 39.9799C33.7701 40.2023 34.304 40.1712 34.8913 39.833C36.057 39.1612 37.0047 37.5238 37.0003 36.1802C37.0003 35.5128 36.7645 35.0456 36.3818 34.8231L39.7144 36.763C40.0925 36.9855 40.3284 37.4527 40.3328 38.1201C40.3328 39.4637 39.394 41.0966 38.2238 41.7729C37.6365 42.1111 37.1071 42.1422 36.72 41.9198Z" fill="#376DBE"/>
</g>
<mask id="mask4_1462_2376" style="mask-type:luminance" maskUnits="userSpaceOnUse" x="36" y="34" width="5" height="6">
<path d="M36.9958 36.1846C36.9958 35.5172 36.76 35.05 36.3818 34.8276L39.7144 36.7675C40.0926 36.9899 40.3284 37.4571 40.3284 38.1245C40.3284 38.4582 40.2705 38.8141 40.1637 39.1656C39.0514 38.5205 37.9391 37.8753 36.8312 37.2257C36.938 36.8743 36.9958 36.5183 36.9958 36.1846Z" fill="white"/>
</mask>
<g mask="url(#mask4_1462_2376)">
<path d="M36.72 41.9198L33.3875 39.9799C33.7701 40.2023 34.304 40.1712 34.8913 39.833C36.057 39.1612 37.0047 37.5238 37.0003 36.1802C37.0003 35.5128 36.7645 35.0456 36.3818 34.8231L39.7144 36.763C40.0925 36.9855 40.3284 37.4527 40.3328 38.1201C40.3328 39.4637 39.394 41.0966 38.2238 41.7729C37.6365 42.1111 37.1071 42.1422 36.72 41.9198Z" fill="#376DBE"/>
</g>
<mask id="mask5_1462_2376" style="mask-type:luminance" maskUnits="userSpaceOnUse" x="34" y="34" width="6" height="3">
<path d="M36.3774 34.8276L39.7099 36.7675C39.3273 36.545 38.7934 36.5761 38.2061 36.9143L34.8735 34.9744C35.4608 34.6362 35.9948 34.6051 36.3774 34.8276Z" fill="white"/>
</mask>
<g mask="url(#mask5_1462_2376)">
<path d="M38.2107 36.9143L34.8782 34.9744C35.4655 34.6362 35.9994 34.6051 36.382 34.8276L39.7146 36.7675C39.3319 36.545 38.798 36.5761 38.2107 36.9143Z" fill="#BFBFBF"/>
</g>
<mask id="mask6_1462_2376" style="mask-type:luminance" maskUnits="userSpaceOnUse" x="32" y="34" width="7" height="8">
<path d="M36.7203 41.9197L33.3877 39.9798C33.0095 39.7574 32.7737 39.2902 32.7693 38.6228C32.7693 37.2791 33.7081 35.6462 34.8738 34.9744L38.2063 36.9143C37.0406 37.5861 36.0974 39.2234 36.1018 40.5627C36.1018 41.2301 36.3376 41.6973 36.7203 41.9197Z" fill="white"/>
</mask>
<g mask="url(#mask6_1462_2376)">
<path d="M36.7203 41.9197L33.3877 39.9798C33.0095 39.7574 32.7737 39.2902 32.7693 38.6228C32.7693 37.2791 33.7081 35.6462 34.8738 34.9744L38.2063 36.9143C37.0406 37.5861 36.0974 39.2234 36.1018 40.5627C36.1018 41.2301 36.3376 41.6973 36.7203 41.9197Z" fill="#BFBFBF"/>
</g>
<mask id="mask7_1462_2376" style="mask-type:luminance" maskUnits="userSpaceOnUse" x="30" y="38" width="5" height="6">
<path d="M30.8426 39.7396C30.8426 39.0722 30.6068 38.605 30.2241 38.3826L33.5566 40.3225C33.9348 40.5449 34.1706 41.0121 34.1751 41.6795C34.1751 42.2935 33.9793 42.9742 33.6501 43.5927C32.5378 42.9476 31.4254 42.3024 30.3176 41.6528C30.6468 41.0344 30.8426 40.3581 30.8426 39.7396Z" fill="white"/>
</mask>
<g mask="url(#mask7_1462_2376)">
<path d="M30.5623 45.4747L27.2297 43.5348C27.6124 43.7573 28.1463 43.7262 28.7336 43.388C29.8993 42.7162 30.847 41.0788 30.8426 39.7351C30.8426 39.0678 30.6068 38.6006 30.2241 38.3781L33.5566 40.318C33.9348 40.5405 34.1706 41.0076 34.1751 41.675C34.1751 43.0187 33.2363 44.6516 32.0661 45.3279C31.4788 45.6661 30.9449 45.6972 30.5623 45.4747Z" fill="#376DBE"/>
</g>
<mask id="mask8_1462_2376" style="mask-type:luminance" maskUnits="userSpaceOnUse" x="27" y="41" width="7" height="5">
<path d="M30.3175 41.6484C31.4299 42.2935 32.5422 42.9387 33.6501 43.5883C33.263 44.318 32.6979 44.9631 32.0661 45.3279C31.4788 45.6661 30.9449 45.6972 30.5623 45.4748L27.2297 43.5349C27.6124 43.7573 28.1463 43.7262 28.7336 43.3881C29.3654 43.0232 29.9305 42.3781 30.3175 41.6484Z" fill="white"/>
</mask>
<g mask="url(#mask8_1462_2376)">
<path d="M30.5623 45.4747L27.2297 43.5348C27.6124 43.7573 28.1463 43.7262 28.7336 43.388C29.8993 42.7162 30.847 41.0788 30.8426 39.7351C30.8426 39.0678 30.6068 38.6006 30.2241 38.3781L33.5566 40.318C33.9348 40.5405 34.1706 41.0076 34.1751 41.675C34.1751 43.0187 33.2363 44.6516 32.0661 45.3279C31.4788 45.6661 30.9449 45.6972 30.5623 45.4747Z" fill="#376DBE"/>
</g>
<mask id="mask9_1462_2376" style="mask-type:luminance" maskUnits="userSpaceOnUse" x="28" y="38" width="6" height="3">
<path d="M30.2241 38.3826L33.5566 40.3225C33.174 40.1 32.64 40.1311 32.0527 40.4693L28.7202 38.5294C29.3075 38.1912 29.8414 38.1601 30.2241 38.3826Z" fill="white"/>
</mask>
<g mask="url(#mask9_1462_2376)">
<path d="M32.0527 40.4643L28.7202 38.5244C29.3075 38.1863 29.8414 38.1551 30.2241 38.3776L33.5566 40.3175C33.174 40.095 32.64 40.1262 32.0527 40.4643Z" fill="#BFBFBF"/>
</g>
<mask id="mask10_1462_2376" style="mask-type:luminance" maskUnits="userSpaceOnUse" x="26" y="38" width="7" height="8">
<path d="M30.5623 45.4748L27.2298 43.5349C26.8516 43.3124 26.6158 42.8452 26.6113 42.1778C26.6113 40.8342 27.5501 39.2013 28.7203 38.5294L32.0528 40.4693C30.8871 41.1412 29.9394 42.7785 29.9439 44.1177C29.9439 44.7851 30.1797 45.2523 30.5623 45.4748Z" fill="white"/>
</mask>
<g mask="url(#mask10_1462_2376)">
<path d="M30.5623 45.4748L27.2298 43.5349C26.8516 43.3124 26.6158 42.8452 26.6113 42.1778C26.6113 40.8342 27.5501 39.2013 28.7203 38.5294L32.0528 40.4693C30.8871 41.1412 29.9394 42.7785 29.9439 44.1177C29.9439 44.7851 30.1797 45.2523 30.5623 45.4748Z" fill="#BFBFBF"/>
</g>
<path d="M32.0528 40.4648C33.2185 39.7885 34.1707 40.3314 34.1751 41.675C34.1751 43.0187 33.2363 44.6516 32.0662 45.3279C30.9004 46.0042 29.9483 45.4614 29.9438 44.1177C29.9438 42.774 30.8826 41.1411 32.0528 40.4693V40.4648Z" fill="#F8F8F8"/>
<path d="M88.7902 17.2974L88.9504 73.1494L22.2109 111.68L22.0552 55.8283L88.7902 17.2974Z" fill="#F8F8F8"/>
<path d="M22.211 111.68L18.8784 109.745L18.7183 53.8928L22.0552 55.8283L22.211 111.68Z" fill="#9E9E9E"/>
<path d="M22.0552 55.8283L18.7183 53.8928L85.4577 15.3619L88.7903 17.2973L22.0552 55.8283Z" fill="#939393"/>
<mask id="mask11_1462_2376" style="mask-type:luminance" maskUnits="userSpaceOnUse" x="24" y="41" width="5" height="6">
<path d="M24.6848 43.2901C24.6848 42.6227 24.449 42.1556 24.0708 41.9331L27.4033 43.873C27.7815 44.0955 28.0173 44.5626 28.0173 45.23C28.0173 45.5637 27.9595 45.9197 27.8527 46.2712C26.7404 45.626 25.6281 44.9809 24.5202 44.3313C24.627 43.9798 24.6848 43.6238 24.6848 43.2901Z" fill="white"/>
</mask>
<g mask="url(#mask11_1462_2376)">
<path d="M24.4089 49.0253L21.0764 47.0854C21.4591 47.3079 21.993 47.2767 22.5803 46.9386C23.746 46.2623 24.6937 44.6294 24.6892 43.2857C24.6892 42.6183 24.4534 42.1511 24.0708 41.9286L27.4033 43.8685C27.7815 44.091 28.0173 44.5582 28.0218 45.2256C28.0218 46.5693 27.083 48.2022 25.9128 48.8785C25.3255 49.2166 24.7916 49.2477 24.4089 49.0253Z" fill="#376DBE"/>
</g>
<mask id="mask12_1462_2376" style="mask-type:luminance" maskUnits="userSpaceOnUse" x="21" y="44" width="7" height="6">
<path d="M22.5803 46.943C23.4568 46.4358 24.2043 45.3902 24.5246 44.3357C25.6369 44.9808 26.7493 45.626 27.8571 46.2756C27.5368 47.3345 26.7893 48.3801 25.9128 48.8829C25.3255 49.221 24.7916 49.2522 24.4089 49.0297L21.0764 47.0898C21.4591 47.3123 21.993 47.2811 22.5803 46.943Z" fill="white"/>
</mask>
<g mask="url(#mask12_1462_2376)">
<path d="M24.4089 49.0252L21.0764 47.0853C21.4591 47.3078 21.993 47.2766 22.5803 46.9385C23.746 46.2622 24.6937 44.6293 24.6892 43.2856C24.6892 42.6182 24.4534 42.1511 24.0708 41.9286L27.4033 43.8685C27.7815 44.0909 28.0173 44.5581 28.0218 45.2255C28.0218 46.5692 27.083 48.2021 25.9128 48.8784C25.3255 49.2165 24.7916 49.2477 24.4089 49.0252Z" fill="#376DBE"/>
</g>
<mask id="mask13_1462_2376" style="mask-type:luminance" maskUnits="userSpaceOnUse" x="22" y="41" width="6" height="4">
<path d="M24.0708 41.9331L27.4033 43.873C27.0206 43.6505 26.4867 43.6817 25.8994 44.0198L22.5669 42.0799C23.1542 41.7418 23.6881 41.7106 24.0708 41.9331Z" fill="white"/>
</mask>
<g mask="url(#mask13_1462_2376)">
<path d="M25.8994 44.0198L22.5669 42.0799C23.1542 41.7418 23.6881 41.7106 24.0708 41.9331L27.4033 43.873C27.0206 43.6505 26.4867 43.6817 25.8994 44.0198Z" fill="#BFBFBF"/>
</g>
<mask id="mask14_1462_2376" style="mask-type:luminance" maskUnits="userSpaceOnUse" x="20" y="42" width="6" height="8">
<path d="M24.409 49.0253L21.0765 47.0854C20.6983 46.863 20.4625 46.3958 20.458 45.7284C20.458 44.3847 21.3968 42.7518 22.567 42.08L25.8995 44.0199C24.7338 44.6917 23.7861 46.329 23.7905 47.6683C23.7905 48.3357 24.0263 48.8028 24.409 49.0253Z" fill="white"/>
</mask>
<g mask="url(#mask14_1462_2376)">
<path d="M24.409 49.0253L21.0765 47.0854C20.6983 46.863 20.4625 46.3958 20.458 45.7284C20.458 44.3847 21.3968 42.7518 22.567 42.08L25.8995 44.0199C24.7338 44.6917 23.7861 46.329 23.7905 47.6683C23.7905 48.3357 24.0263 48.8028 24.409 49.0253Z" fill="#BFBFBF"/>
</g>
<path d="M86.3343 4.62127C88.4966 3.37102 90.2541 4.37656 90.263 6.85927L90.4543 74.2128L20.716 114.479L20.5247 47.1254C20.5158 44.6383 22.2644 41.6127 24.4267 40.3669L86.3343 4.62127ZM88.946 73.1494L88.7858 17.2973L22.0553 55.8283L22.2154 111.68L88.9549 73.1494H88.946ZM32.0528 40.4648C30.8871 41.1367 29.9394 42.774 29.9439 44.1133C29.9439 45.4569 30.896 45.9953 32.0662 45.3235C33.2319 44.6472 34.1796 43.0143 34.1751 41.6706C34.1751 40.3313 33.223 39.7885 32.0528 40.4604V40.4648ZM25.8994 44.0198C24.7337 44.6961 23.786 46.329 23.7905 47.6682C23.7905 49.0119 24.7426 49.5503 25.9128 48.8785C27.0785 48.2022 28.0262 46.5693 28.0218 45.2256C28.0218 43.8863 27.0696 43.3435 25.8994 44.0154V44.0198ZM38.2107 36.9143C37.0449 37.5861 36.1017 39.2235 36.1061 40.5627C36.1061 41.9064 37.0583 42.4448 38.224 41.7729C39.3897 41.1011 40.3374 39.4637 40.333 38.12C40.333 36.7764 39.3808 36.238 38.2107 36.9098V36.9143Z" fill="#6B80E4"/>
<path d="M38.2107 36.9143C39.3764 36.238 40.3286 36.7808 40.333 38.1245C40.333 39.4682 39.3942 41.1011 38.2241 41.7774C37.0584 42.4492 36.1062 41.9109 36.1062 40.5672C36.1062 39.2235 37.045 37.5906 38.2107 36.9187V36.9143Z" fill="#F8F8F8"/>
<path d="M25.8995 44.0198C27.0652 43.3435 28.0174 43.8864 28.0218 45.23C28.0218 46.5737 27.083 48.2066 25.9128 48.8829C24.7471 49.5592 23.795 49.0164 23.7905 47.6727C23.7905 46.329 24.7293 44.6961 25.8995 44.0243V44.0198Z" fill="#F8F8F8"/>
<path d="M20.716 114.479L17.3835 112.539L17.1921 45.1855L20.5247 47.1254L20.716 114.479Z" fill="#4454A1"/>
<path d="M24.4265 40.367L21.094 38.4271L83.0015 2.68585L86.3341 4.6213L24.4265 40.367Z" fill="#4454A1"/>
<path d="M20.5247 47.1254L17.1922 45.1855C17.1833 42.6984 18.9318 39.6729 21.0942 38.4271L24.4267 40.367C22.2644 41.6172 20.5158 44.6427 20.5247 47.1254Z" fill="#849DEE"/>
<mask id="mask15_1462_2376" style="mask-type:luminance" maskUnits="userSpaceOnUse" x="17" y="38" width="8" height="10">
<path d="M20.5247 47.1254L17.1922 45.1855C17.1833 42.6984 18.9318 39.6729 21.0942 38.4271L24.4267 40.367C22.2644 41.6172 20.5158 44.6427 20.5247 47.1254Z" fill="white"/>
</mask>
<g mask="url(#mask15_1462_2376)">
<path d="M20.5247 47.1254L17.1922 45.1855C17.1833 42.6984 18.9318 39.6729 21.0942 38.4271L24.4267 40.367C22.2644 41.6172 20.5158 44.6427 20.5247 47.1254Z" fill="#849DEE"/>
</g>
<path d="M23.2166 112.263L22.2066 111.68L22.0464 55.8239L23.0564 56.4112L23.2166 112.263Z" fill="#9E9E9E"/>
<path d="M23.0564 56.4111L22.0464 55.8238L88.7859 17.2929L89.7959 17.8802L23.0564 56.4111Z" fill="#939393"/>
<path d="M89.7959 17.8802L89.9516 73.7322L23.2166 112.263L23.0564 56.4111L89.7959 17.8802Z" fill="#F8F8F8"/>
<path d="M30.0552 103.814L28.974 103.187C28.7337 103.049 28.5869 102.755 28.5869 102.332L29.6681 102.96C29.6681 103.378 29.8194 103.672 30.0552 103.814Z" fill="#C0D5EB"/>
<path d="M37.4188 88.5885L38.5 89.2158C38.2598 89.0734 37.9216 89.0957 37.5568 89.3093L36.4756 88.6819C36.8449 88.4683 37.1786 88.4505 37.4233 88.5885H37.4188Z" fill="#C0D5EB"/>
<path d="M29.6678 102.964L28.5866 102.337L28.5688 94.773L29.6456 95.4004L29.6678 102.964Z" fill="#C0D5EB"/>
<path d="M30.9718 93.109L29.8906 92.4816L36.4711 88.6819L37.5523 89.3093L30.9718 93.109Z" fill="#C0D5EB"/>
<path d="M29.6459 95.4004L28.5647 94.773C28.5647 93.9321 29.1565 92.9043 29.8906 92.4772L30.9718 93.1045C30.2376 93.5272 29.6459 94.555 29.6459 95.4004Z" fill="#C0D5EB"/>
<path d="M37.5522 89.3093C38.2863 88.8866 38.8825 89.2248 38.8869 90.0701L38.9092 97.6339C38.9092 98.4793 38.3174 99.5026 37.5833 99.9298L31.0028 103.729C30.2687 104.152 29.6724 103.814 29.668 102.969L29.6458 95.4048C29.6458 94.5595 30.2375 93.5361 30.9716 93.109L37.5522 89.3093Z" fill="#D4E8FF"/>
<path d="M30.0105 87.4139L28.9293 86.7865C28.6891 86.6486 28.5422 86.3549 28.5422 85.9323L29.6234 86.5596C29.6234 86.9778 29.7747 87.2715 30.0105 87.4139Z" fill="#C0D5EB"/>
<path d="M37.3698 72.1884L38.451 72.8157C38.2107 72.6734 37.8726 72.6956 37.5033 72.9092L36.4221 72.2818C36.7914 72.0683 37.1251 72.0505 37.3698 72.1884Z" fill="#C0D5EB"/>
<path d="M29.6237 86.5641L28.5425 85.9367L28.5203 78.3729L29.6014 79.0003L29.6237 86.5641Z" fill="#C0D5EB"/>
<path d="M30.9271 76.7089L29.8459 76.0815L36.4265 72.2818L37.5076 72.9092L30.9271 76.7089Z" fill="#C0D5EB"/>
<path d="M29.6014 79.0002L28.5203 78.3729C28.5203 77.5275 29.112 76.5042 29.8462 76.077L30.9273 76.7044C30.1932 77.1271 29.6014 78.1549 29.6014 79.0002Z" fill="#C0D5EB"/>
<path d="M37.5077 72.9091C38.2419 72.4865 38.8381 72.8246 38.8425 73.67L38.8648 81.2338C38.8648 82.0791 38.273 83.1025 37.5389 83.5296L30.9584 87.3293C30.2242 87.752 29.628 87.4139 29.6236 86.5685L29.6013 79.0047C29.6013 78.1593 30.1931 77.136 30.9272 76.7088L37.5077 72.9091Z" fill="#D4E8FF"/>
<path d="M29.9614 71.0182L28.8803 70.3909C28.64 70.253 28.4932 69.9593 28.4932 69.5366L29.5743 70.164C29.5743 70.5822 29.7256 70.8759 29.9614 71.0182Z" fill="#C0D5EB"/>
<path d="M37.3251 55.7927L38.4063 56.42C38.1661 56.2777 37.8279 56.2999 37.4586 56.5135L36.3774 55.8861C36.7467 55.6726 37.0804 55.6548 37.3251 55.7927Z" fill="#C0D5EB"/>
<path d="M29.5746 70.1684L28.4978 69.5366L28.4756 61.9772L29.5523 62.6046L29.5746 70.1684Z" fill="#C0D5EB"/>
<path d="M30.8781 60.3088L29.7969 59.6814L36.3774 55.8817L37.4586 56.5091L30.8781 60.3088Z" fill="#C0D5EB"/>
<path d="M29.5524 62.6046L28.4712 61.9772C28.4712 61.1319 29.0629 60.1085 29.7971 59.6814L30.8783 60.3087C30.1441 60.7314 29.5524 61.7592 29.5524 62.6046Z" fill="#C0D5EB"/>
<path d="M37.4589 56.5091C38.193 56.0864 38.7892 56.4245 38.7937 57.2699L38.8159 64.8337C38.8159 65.6791 38.2242 66.7024 37.49 67.1295L30.9095 70.9292C30.1754 71.3519 29.5792 71.0138 29.5747 70.1684L29.5525 62.6046C29.5525 61.7592 30.1442 60.7359 30.8784 60.3088L37.4589 56.5091Z" fill="#D4E8FF"/>
<path d="M74.5259 72.3753L75.6071 73.0026C75.3802 72.8691 75.0598 72.8869 74.7128 73.0916L73.6316 72.4643C73.9831 72.264 74.299 72.2418 74.5259 72.3753Z" fill="#C0D5EB"/>
<path d="M44.3196 90.6352L43.2429 90.0078L73.6316 72.4598L74.7128 73.0871L44.3196 90.6352Z" fill="#C0D5EB"/>
<path d="M43.4341 93.6162L42.3529 92.9889C42.126 92.8554 41.9881 92.5795 41.9836 92.1835C41.9836 91.3871 42.5443 90.4127 43.2383 90.0123L44.3195 90.6396C43.6254 91.0401 43.0648 92.0144 43.0648 92.8109C43.0648 93.2069 43.2072 93.4872 43.4341 93.6162Z" fill="#C0D5EB"/>
<path d="M74.7127 73.0871C75.4068 72.6867 75.9719 73.007 75.9763 73.8079C75.9808 74.6088 75.4157 75.5787 74.7216 75.9792L44.3329 93.5272C43.6388 93.9276 43.0738 93.6073 43.0693 92.8064C43.0693 92.01 43.6299 91.0356 44.324 90.6352L74.7127 73.0871Z" fill="#D4E8FF"/>
<path d="M82.8462 62.3332L83.9274 62.9605C83.7005 62.827 83.3801 62.8448 83.0331 63.0495L81.9519 62.4221C82.3034 62.2219 82.6193 62.1997 82.8462 62.3332Z" fill="#C0D5EB"/>
<path d="M44.3063 85.4073L43.2251 84.7799L81.9518 62.4222L83.033 63.0495L44.3063 85.4073Z" fill="#C0D5EB"/>
<path d="M43.4209 88.3883L42.3398 87.7609C42.1128 87.6275 41.9749 87.3516 41.9705 86.9556C41.9705 86.1592 42.5311 85.1848 43.2252 84.7844L44.3063 85.4117C43.6123 85.8121 43.0516 86.7865 43.0516 87.583C43.0516 87.979 43.194 88.2593 43.4209 88.3883Z" fill="#C0D5EB"/>
<path d="M83.0329 63.0495C83.727 62.6491 84.2921 62.9694 84.2965 63.7703C84.2965 64.5667 83.7359 65.5411 83.0418 65.9416L44.3151 88.2993C43.621 88.6997 43.056 88.3794 43.0515 87.5785C43.0515 86.7821 43.6121 85.8077 44.3062 85.4073L83.0329 63.0495Z" fill="#D4E8FF"/>
<path d="M74.4812 55.9751L75.5624 56.6025C75.3355 56.469 75.0151 56.4868 74.6681 56.6915L73.5869 56.0641C73.9384 55.8639 74.2543 55.8416 74.4812 55.9751Z" fill="#C0D5EB"/>
<path d="M44.275 74.235L43.1938 73.6077L73.5826 56.0641L74.6637 56.6914L44.275 74.235Z" fill="#C0D5EB"/>
<path d="M43.385 77.2161L42.3038 76.5888C42.0769 76.4553 41.939 76.1794 41.939 75.7834C41.939 74.987 42.4996 74.0126 43.1937 73.6122L44.2748 74.2395C43.5808 74.64 43.0201 75.6099 43.0201 76.4108C43.0201 76.8068 43.1625 77.0871 43.385 77.2161Z" fill="#C0D5EB"/>
<path d="M74.6639 56.6915C75.358 56.291 75.9231 56.6114 75.9275 57.4078C75.9275 58.2042 75.3669 59.1786 74.6728 59.5791L44.2841 77.1271C43.59 77.5276 43.025 77.2072 43.0205 76.4063C43.0205 75.6099 43.5811 74.6355 44.2752 74.2351L74.6639 56.687V56.6915Z" fill="#D4E8FF"/>
<path d="M82.8015 45.9331L83.8827 46.5604C83.6558 46.4269 83.3355 46.4447 82.9884 46.6494L81.9072 46.0221C82.2587 45.8218 82.5746 45.7996 82.8015 45.9331Z" fill="#C0D5EB"/>
<path d="M44.2571 69.0071L43.1804 68.3798L81.9071 46.022L82.9838 46.6494L44.2571 69.0071Z" fill="#C0D5EB"/>
<path d="M43.372 71.9881L42.2909 71.3608C42.064 71.2318 41.926 70.9515 41.926 70.5555C41.926 69.759 42.4866 68.7847 43.1807 68.3842L44.2619 69.0116C43.5678 69.412 43.0072 70.3864 43.0072 71.1828C43.0072 71.5788 43.1496 71.8591 43.372 71.9881Z" fill="#C0D5EB"/>
<path d="M82.9838 46.6494C83.6779 46.2489 84.243 46.5693 84.2474 47.3702C84.2474 48.1666 83.6868 49.141 82.9927 49.5414L44.266 71.8992C43.572 72.2996 43.0069 71.9792 43.0024 71.1784C43.0024 70.3819 43.5631 69.4075 44.2571 69.0071L82.9838 46.6494Z" fill="#D4E8FF"/>
<path d="M74.4326 39.575L75.5138 40.2023C75.2869 40.0689 74.9666 40.0866 74.6195 40.2913L73.5383 39.664C73.8898 39.4637 74.2057 39.4415 74.4326 39.575Z" fill="#C0D5EB"/>
<path d="M44.2261 57.8394L43.1494 57.212L73.5381 39.664L74.6193 40.2914L44.2261 57.8394Z" fill="#C0D5EB"/>
<path d="M43.3409 60.816L42.2597 60.1886C42.0328 60.0551 41.8948 59.7793 41.8904 59.3833C41.8904 58.5869 42.451 57.6125 43.1451 57.212L44.2263 57.8394C43.5322 58.2398 42.9716 59.2142 42.9716 60.0106C42.9716 60.4066 43.1139 60.6869 43.3364 60.816H43.3409Z" fill="#C0D5EB"/>
<path d="M74.6193 40.2914C75.3133 39.8909 75.8784 40.2113 75.8829 41.0121C75.8829 41.8086 75.3222 42.783 74.6281 43.1834L44.2394 60.7314C43.5453 61.1319 42.9803 60.8115 42.9758 60.0106C42.9758 59.2142 43.5364 58.2398 44.2305 57.8394L74.6193 40.2914Z" fill="#D4E8FF"/>
<path d="M82.7525 29.5374L83.8336 30.1647C83.6067 30.0313 83.2864 30.049 82.9393 30.2537L81.8582 29.6264C82.2096 29.4261 82.5256 29.4039 82.7525 29.5374Z" fill="#C0D5EB"/>
<path d="M44.213 52.6114L43.1318 51.9841L81.8585 29.6263L82.9397 30.2537L44.213 52.6114Z" fill="#C0D5EB"/>
<path d="M43.3274 55.5925L42.2462 54.9651C42.0193 54.8316 41.8814 54.5558 41.877 54.1598C41.877 53.3634 42.4376 52.389 43.1317 51.9885L44.2128 52.6159C43.5187 53.0163 42.9581 53.9907 42.9581 54.7871C42.9581 55.1831 43.1005 55.4634 43.3274 55.5925Z" fill="#C0D5EB"/>
<path d="M82.9394 30.2537C83.6335 29.8533 84.1986 30.1736 84.203 30.9745C84.2075 31.7754 83.6424 32.7453 82.9483 33.1457L44.2216 55.5035C43.5275 55.9039 42.9625 55.5836 42.958 54.7827C42.958 53.9863 43.5186 53.0119 44.2127 52.6114L82.9394 30.2537Z" fill="#D4E8FF"/>
<mask id="mask16_1462_2376" style="mask-type:luminance" maskUnits="userSpaceOnUse" x="25" y="43" width="4" height="2">
<path d="M27.4033 43.8464L28.5156 44.4915C28.133 44.269 27.599 44.3002 27.0117 44.6383L25.8994 43.9932C26.4867 43.655 27.0162 43.6239 27.4033 43.8464Z" fill="white"/>
</mask>
<g mask="url(#mask16_1462_2376)">
<path d="M27.0117 44.6383L25.8994 43.9932C26.4867 43.655 27.0162 43.6239 27.4033 43.8464L28.5156 44.4915C28.133 44.269 27.599 44.3002 27.0117 44.6383Z" fill="#BF2929"/>
</g>
<mask id="mask17_1462_2376" style="mask-type:luminance" maskUnits="userSpaceOnUse" x="23" y="43" width="5" height="7">
<path d="M25.5213 49.6438L24.409 48.9986C24.0308 48.7762 23.795 48.309 23.7905 47.6416C23.7905 46.2979 24.7293 44.665 25.8995 43.9932L27.0118 44.6383C25.8417 45.3146 24.8984 46.9475 24.9029 48.2867C24.9029 48.9541 25.1387 49.4213 25.5213 49.6438Z" fill="white"/>
</mask>
<g mask="url(#mask17_1462_2376)">
<path d="M25.5213 49.6438L24.409 48.9986C24.0308 48.7762 23.795 48.309 23.7905 47.6416C23.7905 46.2979 24.7293 44.665 25.8995 43.9932L27.0118 44.6383C25.8417 45.3146 24.8984 46.9475 24.9029 48.2867C24.9029 48.9541 25.1387 49.4213 25.5213 49.6438Z" fill="#BF2929"/>
</g>
<path d="M27.0116 44.6384C28.1773 43.9621 29.1294 44.5049 29.1294 45.8486C29.1294 47.1923 28.1906 48.8251 27.0249 49.497C25.8547 50.1733 24.907 49.6305 24.9026 48.2868C24.9026 46.9431 25.8414 45.3102 27.0116 44.6384Z" fill="#F83535"/>
<path d="M39.7099 36.7364L40.8222 37.3815C40.4396 37.1591 39.9057 37.1902 39.3184 37.5284L38.2061 36.8832C38.7934 36.5451 39.3228 36.5139 39.7099 36.7364Z" fill="#52A546"/>
<mask id="mask18_1462_2376" style="mask-type:luminance" maskUnits="userSpaceOnUse" x="38" y="36" width="3" height="2">
<path d="M39.7099 36.7364L40.8222 37.3815C40.4396 37.1591 39.9057 37.1902 39.3184 37.5284L38.2061 36.8832C38.7934 36.5451 39.3228 36.5139 39.7099 36.7364Z" fill="white"/>
</mask>
<g mask="url(#mask18_1462_2376)">
<path d="M39.3184 37.5333L38.2061 36.8881C38.7934 36.55 39.3228 36.5189 39.7099 36.7413L40.8222 37.3865C40.4396 37.164 39.9057 37.1951 39.3184 37.5333Z" fill="#52A546"/>
</g>
<path d="M37.8279 42.5382L36.7156 41.8931C36.3374 41.6706 36.1016 41.2035 36.0972 40.5361C36.0972 39.1924 37.036 37.5595 38.2061 36.8876L39.3185 37.5328C38.1527 38.2091 37.205 39.842 37.2095 41.1812C37.2095 41.8486 37.4453 42.3158 37.8279 42.5382Z" fill="#52A546"/>
<mask id="mask19_1462_2376" style="mask-type:luminance" maskUnits="userSpaceOnUse" x="36" y="36" width="4" height="7">
<path d="M37.8279 42.5382L36.7156 41.8931C36.3374 41.6706 36.1016 41.2035 36.0972 40.5361C36.0972 39.1924 37.036 37.5595 38.2061 36.8876L39.3185 37.5328C38.1527 38.2091 37.205 39.842 37.2095 41.1812C37.2095 41.8486 37.4453 42.3158 37.8279 42.5382Z" fill="white"/>
</mask>
<g mask="url(#mask19_1462_2376)">
<path d="M37.8279 42.5382L36.7156 41.8931C36.3374 41.6706 36.1016 41.2035 36.0972 40.5361C36.0972 39.1924 37.036 37.5595 38.2061 36.8876L39.3185 37.5328C38.1527 38.2091 37.205 39.842 37.2095 41.1812C37.2095 41.8486 37.4453 42.3158 37.8279 42.5382Z" fill="#52A546"/>
</g>
<path d="M39.3187 37.5328C40.4844 36.861 41.4366 37.3994 41.4366 38.743C41.4366 40.0867 40.4978 41.7196 39.332 42.3915C38.1663 43.0633 37.2142 42.5249 37.2097 41.1813C37.2097 39.8376 38.1485 38.2047 39.3187 37.5328Z" fill="#61C554"/>
<path d="M33.5566 40.2914L34.6689 40.9365C34.2863 40.7141 33.7524 40.7452 33.1651 41.0833L32.0527 40.4382C32.64 40.1001 33.1695 40.0689 33.5566 40.2914Z" fill="#BC8F3F"/>
<mask id="mask20_1462_2376" style="mask-type:luminance" maskUnits="userSpaceOnUse" x="32" y="40" width="3" height="2">
<path d="M33.5566 40.2914L34.6689 40.9365C34.2863 40.7141 33.7524 40.7452 33.1651 41.0833L32.0527 40.4382C32.64 40.1001 33.1695 40.0689 33.5566 40.2914Z" fill="white"/>
</mask>
<g mask="url(#mask20_1462_2376)">
<path d="M33.1651 41.0833L32.0527 40.4382C32.64 40.1001 33.1695 40.0689 33.5566 40.2914L34.6689 40.9365C34.2863 40.7141 33.7524 40.7452 33.1651 41.0833Z" fill="#BC8F3F"/>
</g>
<path d="M31.6746 46.0888L30.5623 45.4436C30.1841 45.2212 29.9483 44.754 29.9438 44.0866C29.9438 42.7429 30.8826 41.11 32.0528 40.4382L33.1651 41.0833C31.9994 41.7596 31.0517 43.3925 31.0562 44.7317C31.0562 45.3991 31.292 45.8663 31.6746 46.0888Z" fill="#BC8F3F"/>
<mask id="mask21_1462_2376" style="mask-type:luminance" maskUnits="userSpaceOnUse" x="29" y="40" width="5" height="7">
<path d="M31.6746 46.0888L30.5623 45.4436C30.1841 45.2212 29.9483 44.754 29.9438 44.0866C29.9438 42.7429 30.8826 41.11 32.0528 40.4382L33.1651 41.0833C31.9994 41.7596 31.0517 43.3925 31.0562 44.7317C31.0562 45.3991 31.292 45.8663 31.6746 46.0888Z" fill="white"/>
</mask>
<g mask="url(#mask21_1462_2376)">
<path d="M31.6746 46.0888L30.5623 45.4436C30.1841 45.2212 29.9483 44.754 29.9438 44.0866C29.9438 42.7429 30.8826 41.11 32.0528 40.4382L33.1651 41.0833C31.9994 41.7596 31.0517 43.3925 31.0562 44.7317C31.0562 45.3991 31.292 45.8663 31.6746 46.0888Z" fill="#BC8F3F"/>
</g>
<path d="M33.1654 41.0834C34.3311 40.4071 35.2832 40.9499 35.2832 42.2936C35.2832 43.6373 34.3444 45.2702 33.1787 45.942C32.013 46.6138 31.0609 46.0755 31.0564 44.7318C31.052 43.3881 31.9952 41.7552 33.1654 41.0834Z" fill="#F4BF4F"/>
<path d="M114.618 98.2835C114.093 99.1244 113.101 99.4581 112.398 99.0354C111.695 98.6127 111.553 97.5849 112.078 96.7485C112.603 95.912 113.595 95.5738 114.298 95.9965C115.001 96.4192 115.143 97.447 114.618 98.2835Z" fill="#B8753D"/>
<mask id="mask22_1462_2376" style="mask-type:luminance" maskUnits="userSpaceOnUse" x="107" y="91" width="10" height="11">
<path d="M115.944 99.0399C115.944 99.0399 115.468 98.7951 114.619 98.2835C115.144 97.4426 115.001 96.4192 114.298 95.9965C113.595 95.5739 112.603 95.9076 112.078 96.7485C111.553 97.5894 111.695 98.6127 112.398 99.0354C113.101 99.4581 114.094 99.1244 114.619 98.2835C115.468 98.7996 115.931 99.0621 115.944 99.0399C115.642 99.5204 115.348 99.8363 115.25 99.9386C115.17 100.023 115.068 100.13 114.979 100.206C114.814 100.348 114.587 100.53 114.409 100.659C113.965 100.989 113.199 101.336 112.67 101.456C112.305 101.536 112.069 101.589 111.508 101.607C111.064 101.62 110.547 101.523 110.543 101.518C110.054 101.425 109.684 101.265 109.68 101.265C109.471 101.171 109.195 101.033 108.99 100.922C108.87 100.855 108.728 100.744 108.612 100.668C106.81 99.3246 106.499 96.4949 107.962 94.1545C109.497 91.6941 112.412 90.7108 114.472 91.9566C114.734 92.1212 115.344 92.5038 115.878 93.2602C116.389 93.9854 116.594 94.7062 116.67 95.0711C116.763 95.5294 116.772 95.823 116.772 95.8319C116.772 95.9476 116.785 96.1033 116.781 96.2234C116.763 96.615 116.754 96.7618 116.719 96.962C116.679 97.1756 116.612 97.4604 116.558 97.6739C116.532 97.7807 116.478 97.9231 116.438 98.0299C116.305 98.3903 116.176 98.6483 115.936 99.0443L115.944 99.0399Z" fill="white"/>
</mask>
<g mask="url(#mask22_1462_2376)">
<path d="M115.944 99.0398C117.666 96.0677 116.509 93.2246 114.476 91.9521C112.421 90.7063 109.506 91.6895 107.967 94.15C106.503 96.4903 106.814 99.3245 108.616 100.664C111.13 102.381 114.142 101.714 115.94 99.0398C115.927 99.0576 115.464 98.7951 114.614 98.2834C114.089 99.1243 113.097 99.458 112.394 99.0353C111.691 98.6127 111.548 97.5849 112.074 96.7484C112.599 95.9119 113.591 95.5738 114.294 95.9965C114.997 96.4191 115.139 97.4469 114.614 98.2834C115.464 98.7995 115.927 99.062 115.94 99.0398H115.944Z" fill="#BC773E"/>
<path d="M115.686 99.418C114.503 100.735 111.455 99.9164 111.308 97.7718C111.148 95.4359 113.342 90.9911 115.268 92.575C115.353 92.6462 115.459 92.7441 115.535 92.8242L115.268 92.5572L115.219 92.5127L114.93 92.268C114.796 92.1746 114.619 92.0456 114.476 91.9566C112.421 90.7108 109.506 91.6941 107.967 94.1545C106.503 96.4949 106.814 99.3291 108.616 100.668C108.714 100.735 108.839 100.82 108.937 100.886L108.995 100.922L109.333 101.109C109.48 101.176 109.671 101.26 109.818 101.318L110.178 101.434C110.325 101.469 110.521 101.514 110.668 101.54L111.037 101.585C111.179 101.594 111.366 101.603 111.508 101.603L111.873 101.585C112.007 101.567 112.18 101.549 112.309 101.527L112.665 101.451C112.785 101.416 112.946 101.371 113.066 101.336L113.404 101.207C113.511 101.158 113.657 101.095 113.764 101.042L114.08 100.869C114.178 100.806 114.307 100.726 114.4 100.659L114.694 100.441C114.779 100.366 114.894 100.272 114.979 100.197L115.241 99.9386C115.317 99.8541 115.419 99.7428 115.491 99.6583L115.722 99.3602L115.775 99.289L115.677 99.4225L115.686 99.418Z" fill="#BC773E"/>
<path d="M113.146 95.1378C113.19 95.1912 113.284 95.2224 113.346 95.2491C113.746 95.4181 114.196 95.4582 114.565 95.7207C114.658 95.7874 114.939 95.9876 115.17 96.348C115.317 96.5794 115.522 96.8508 115.522 96.8552C115.566 96.8864 115.642 96.8953 115.695 96.9042C115.931 96.9531 116.411 96.1256 116.456 95.8186C116.612 94.7952 114.863 92.8509 113.475 93.9499C113.275 94.11 112.803 94.7107 113.146 95.1378Z" fill="#FB9F53"/>
</g>
<mask id="mask23_1462_2376" style="mask-type:luminance" maskUnits="userSpaceOnUse" x="114" y="91" width="3" height="9">
<path d="M114.477 91.9521C114.574 92.0144 114.708 92.0945 114.801 92.1657C114.93 92.2636 115.099 92.3971 115.224 92.5083C115.571 92.8198 115.816 93.1624 115.82 93.1668C115.887 93.2558 115.972 93.3759 116.029 93.4738C116.105 93.5984 116.207 93.763 116.265 93.892C116.359 94.0923 116.47 94.3637 116.541 94.5683C116.586 94.6974 116.634 94.8709 116.661 95.0044C116.688 95.1289 116.768 95.5116 116.777 95.7874C116.777 95.9076 116.795 96.0722 116.79 96.1923C116.772 96.5705 116.768 96.7307 116.728 96.9443C116.688 97.1578 116.626 97.447 116.568 97.6561C116.537 97.7674 116.488 97.9142 116.448 98.021C116.399 98.1545 116.247 98.5549 115.945 99.0443C115.954 99.031 115.78 98.9064 115.415 98.6661C116.95 96.2057 116.532 93.2024 114.477 91.9566V91.9521Z" fill="white"/>
</mask>
<g mask="url(#mask23_1462_2376)">
<path d="M114.477 91.9521C115.669 92.7397 116.403 93.7675 116.661 95.0044C117.088 97.0688 116.287 98.4481 115.945 99.0399C115.954 99.031 115.78 98.9064 115.415 98.6617C116.95 96.2012 116.532 93.198 114.477 91.9521Z" fill="#BC773E"/>
</g>
<mask id="mask24_1462_2376" style="mask-type:luminance" maskUnits="userSpaceOnUse" x="108" y="98" width="8" height="4">
<path d="M108.994 100.922C108.879 100.851 108.727 100.748 108.616 100.668C108.71 100.735 108.803 100.802 108.905 100.864C110.961 102.11 113.875 101.127 115.415 98.6661C115.78 98.9108 115.953 99.031 115.944 99.0443C115.882 99.1378 115.802 99.2712 115.731 99.3602C115.529 99.6213 115.37 99.8141 115.255 99.9386C115.179 100.019 115.072 100.126 114.988 100.201C114.823 100.344 114.596 100.526 114.418 100.659C114.258 100.78 114.133 100.851 113.791 101.038C113.688 101.095 113.546 101.153 113.444 101.198C113.435 101.202 113.177 101.322 112.723 101.443C112.371 101.536 111.646 101.678 110.774 101.558C109.924 101.438 109.297 101.109 108.994 100.922Z" fill="white"/>
</mask>
<g mask="url(#mask24_1462_2376)">
<path d="M108.994 100.922C108.879 100.851 108.727 100.748 108.616 100.668C108.71 100.735 108.803 100.802 108.905 100.864C110.961 102.11 113.875 101.127 115.415 98.6661C115.78 98.9108 115.953 99.031 115.944 99.0443C114.035 101.887 110.939 102.132 108.994 100.922Z" fill="#BC773E"/>
</g>
<mask id="mask25_1462_2376" style="mask-type:luminance" maskUnits="userSpaceOnUse" x="91" y="81" width="24" height="20">
<path d="M114.405 91.9121C112.354 90.7286 109.489 91.7208 107.967 94.1545C106.517 96.4771 106.81 99.2801 108.577 100.637C108.109 100.277 107.482 99.7962 107.015 99.4358C106.779 99.2534 106.468 99.0176 106.232 98.8352C105.765 98.4748 105.137 97.9943 104.67 97.6339L103.108 96.4326C102.873 96.2501 102.561 96.0143 102.325 95.8319L100.764 94.6306C100.296 94.2702 99.6691 93.7897 99.2019 93.4293C98.9661 93.2469 98.6546 93.0111 98.4188 92.8286L96.8571 91.6273C96.39 91.2669 95.7626 90.7864 95.2954 90.426L94.5123 89.8254C94.0452 89.465 93.4178 88.9844 92.9506 88.624C91.6248 87.6051 91.4067 85.5006 92.4968 83.7565C93.6358 81.9323 95.7893 81.1893 97.3288 82.0747C103.024 85.3538 108.719 88.6329 114.419 91.9121H114.405Z" fill="white"/>
</mask>
<g mask="url(#mask25_1462_2376)">
<path d="M114.405 91.9121L97.3149 82.0747C95.7754 81.1893 93.622 81.9323 92.483 83.7565C91.3929 85.5006 91.6153 87.6051 92.9368 88.624L108.572 100.637C106.805 99.2801 106.516 96.4771 107.962 94.1545C109.484 91.7208 112.345 90.733 114.4 91.9121H114.405Z" fill="#BC773E"/>
</g>
<mask id="mask26_1462_2376" style="mask-type:luminance" maskUnits="userSpaceOnUse" x="97" y="82" width="20" height="17">
<path d="M97.3152 82.0747C103.01 85.3538 108.705 88.633 114.405 91.9121C114.427 91.9254 114.454 91.9388 114.476 91.9521C116.532 93.198 116.954 96.2012 115.415 98.6617L98.076 87.138C99.2284 85.2915 98.9125 83.0358 97.3686 82.1014C97.3508 82.0925 97.333 82.0792 97.3152 82.0703V82.0747Z" fill="white"/>
</mask>
<g mask="url(#mask26_1462_2376)">
<path d="M115.415 98.6617L98.076 87.138C99.2284 85.2915 98.9125 83.0358 97.3686 82.1014C97.3508 82.0925 97.333 82.0792 97.3152 82.0703L114.405 91.9077C114.427 91.921 114.454 91.9343 114.476 91.9477C116.532 93.1935 116.954 96.1968 115.415 98.6572V98.6617Z" fill="#BC773E"/>
</g>
<mask id="mask27_1462_2376" style="mask-type:luminance" maskUnits="userSpaceOnUse" x="92" y="87" width="24" height="15">
<path d="M108.576 100.633C108.109 100.272 107.482 99.7918 107.015 99.4314C106.779 99.249 106.467 99.0132 106.232 98.8308C105.764 98.4704 105.137 97.9898 104.67 97.6294L103.108 96.4281C102.872 96.2457 102.561 96.0099 102.325 95.8275L100.763 94.6262C100.296 94.2658 99.6689 93.7853 99.2017 93.4249C98.9659 93.2424 98.6544 93.0066 98.4186 92.8242L96.8569 91.6229C96.3897 91.2625 95.7624 90.782 95.2952 90.4216L94.5121 89.8209C94.045 89.4605 93.4176 88.98 92.9504 88.6196C93.0305 88.6819 93.1151 88.7398 93.1996 88.7887C94.7435 89.723 96.9326 88.9845 98.0849 87.138L115.424 98.6617C113.889 101.122 110.975 102.105 108.915 100.86C108.799 100.788 108.688 100.713 108.581 100.633H108.576Z" fill="white"/>
</mask>
<g mask="url(#mask27_1462_2376)">
<path d="M108.576 100.633L92.9414 88.6196C93.0215 88.6819 93.106 88.7398 93.1906 88.7887C94.7345 89.723 96.9235 88.9845 98.0759 87.138L115.415 98.6617C113.88 101.122 110.966 102.105 108.905 100.86C108.79 100.788 108.679 100.713 108.572 100.633H108.576Z" fill="#BC773E"/>
</g>
<mask id="mask28_1462_2376" style="mask-type:luminance" maskUnits="userSpaceOnUse" x="85" y="77" width="13" height="12">
<path d="M97.4708 82.1681C97.4352 82.1459 97.404 82.1236 97.3684 82.1014C95.8245 81.167 93.6399 81.9056 92.4831 83.7521C91.3574 85.5585 91.6333 87.752 93.0882 88.722L87.2107 84.7977C85.7558 83.8277 85.4799 81.6298 86.6056 79.8278C87.7579 77.9813 89.947 77.2428 91.4909 78.1771C91.5265 78.1994 91.5621 78.2216 91.5932 78.2439C93.3552 79.4229 95.7089 80.9891 97.4708 82.1681Z" fill="white"/>
</mask>
<g mask="url(#mask28_1462_2376)">
<path d="M97.4708 82.1681L91.5932 78.2439C91.5577 78.2216 91.5265 78.1994 91.4909 78.1771C89.947 77.2428 87.7579 77.9813 86.6056 79.8278C85.4799 81.6342 85.7558 83.8277 87.2107 84.7977L93.0882 88.722C91.6333 87.752 91.3574 85.5541 92.4831 83.7521C93.6355 81.9056 95.8245 81.167 97.3684 82.1014C97.404 82.1236 97.4396 82.1459 97.4708 82.1681Z" fill="#BC773E"/>
</g>
<mask id="mask29_1462_2376" style="mask-type:luminance" maskUnits="userSpaceOnUse" x="91" y="78" width="8" height="10">
<path d="M91.5935 78.2438L97.471 82.1681C98.926 83.1381 99.2018 85.336 98.0761 87.138L92.1986 83.2137C93.3243 81.4073 93.0484 79.2138 91.5935 78.2438Z" fill="white"/>
</mask>
<g mask="url(#mask29_1462_2376)">
<path d="M98.0761 87.1429L92.1986 83.2186C93.3243 81.4122 93.0484 79.2187 91.5935 78.2488L97.471 82.1731C98.926 83.143 99.2018 85.341 98.0761 87.1429Z" fill="#BC773E"/>
</g>
<path d="M92.1985 83.2187C91.0461 85.0651 88.8571 85.8037 87.3131 84.8694C85.7692 83.935 85.4533 81.6792 86.6057 79.8328C87.7581 77.9863 89.9471 77.2477 91.491 78.1821C93.0349 79.1164 93.3508 81.3722 92.1985 83.2187Z" fill="#BC773E"/>
<mask id="mask30_1462_2376" style="mask-type:luminance" maskUnits="userSpaceOnUse" x="87" y="83" width="12" height="7">
<path d="M93.0882 88.7264L87.2107 84.8021C87.2463 84.8243 87.2774 84.8466 87.313 84.8688C88.8569 85.8032 91.046 85.0646 92.1984 83.2181L98.0759 87.1424C96.9235 88.9889 94.7345 89.7275 93.1906 88.7931C93.155 88.7709 93.1194 88.7486 93.0882 88.7264Z" fill="white"/>
</mask>
<g mask="url(#mask30_1462_2376)">
<path d="M93.0882 88.7264L87.2107 84.8021C87.2463 84.8243 87.2774 84.8466 87.313 84.8688C88.8569 85.8032 91.046 85.0646 92.1984 83.2181L98.0759 87.1424C96.9235 88.9889 94.7345 89.7275 93.1906 88.7931C93.155 88.7709 93.1194 88.7486 93.0882 88.7264Z" fill="#BC773E"/>
</g>
<path d="M92.2697 80.384C91.8426 81.4474 91.7625 81.8166 90.9038 82.4662C95.936 85.7142 114.699 97.9543 114.699 97.9543C114.699 97.9543 115.802 95.9565 115.415 94.5105C114.899 93.278 92.2697 80.384 92.2697 80.384Z" fill="#DB8B49"/>
<path d="M88.5102 55.5836L82.0186 51.8106C84.8929 53.4835 86.677 57.0385 86.6904 62.0885C86.7171 72.2551 79.5715 84.6375 70.7219 89.7498C66.2681 92.3215 62.2326 92.5573 59.3228 90.8666L65.8143 94.6396C68.7286 96.3347 72.7641 96.0945 77.2134 93.5228C86.063 88.415 93.2131 76.0281 93.1819 65.8615C93.1686 60.8115 91.3844 57.2566 88.5102 55.5836Z" fill="url(#paint0_linear_1462_2376)"/>
<path opacity="0.64" d="M75.269 92.3971C84.1187 87.2893 91.2687 74.9025 91.2376 64.7358C91.2109 54.5692 84.0119 50.4669 75.1622 55.5747C66.3126 60.6825 59.1626 73.0693 59.1937 83.236C59.2204 93.4026 66.4194 97.5049 75.269 92.3926V92.3971Z" fill="#6792D1"/>
<path opacity="0.64" d="M85.262 53.8618C87.4688 55.7438 88.7992 58.9829 88.8125 63.3343C88.8392 73.501 81.6892 85.8834 72.844 90.9956C69.022 93.2025 65.5071 93.6874 62.7485 92.7086C65.6984 95.2224 70.2145 95.3159 75.2733 92.3971C84.123 87.2893 91.273 74.9025 91.2419 64.7358C91.2241 58.9607 88.8926 55.1432 85.262 53.8618Z" fill="#85A9D4"/>
<path d="M77.1019 53.9996C87.2463 48.1399 95.4998 52.8428 95.5309 64.5044C95.5621 76.1616 87.3665 90.3593 77.2221 96.219C67.0777 102.079 58.8242 97.3759 58.7931 85.7187C58.7619 74.0615 66.9575 59.8594 77.1019 54.0041V53.9996ZM77.2132 93.5183C86.0628 88.4105 93.2128 76.0237 93.1817 65.857C93.155 55.6904 85.956 51.5881 77.1064 56.6959C68.2567 61.8037 61.1067 74.1906 61.1378 84.3572C61.1645 94.5239 68.3635 98.6261 77.2132 93.5139V93.5183Z" fill="#4B476E"/>
<path d="M83.6825 48.9497C80.3411 47.0098 75.7183 47.2812 70.6105 50.2311C60.4661 56.0908 52.266 70.2885 52.3016 81.9457C52.3194 87.7342 54.3617 91.8098 57.6586 93.7274L64.1501 97.5005C60.8532 95.5828 58.8065 91.5117 58.7932 85.7187C58.762 74.0615 66.9576 59.8594 77.102 54.0041C82.2098 51.0587 86.8326 50.7828 90.1741 52.7227L83.6825 48.9497Z" fill="url(#paint1_linear_1462_2376)"/>
<g style="mix-blend-mode:screen" opacity="0.64">
<path d="M79.0084 67.2802C81.3575 64.5654 81.754 61.0598 79.894 59.4503C78.034 57.8408 74.6217 58.7368 72.2726 61.4516C69.9234 64.1664 69.5269 67.672 71.387 69.2815C73.247 70.891 76.6592 69.995 79.0084 67.2802Z" fill="#A6B1C7"/>
</g>
<path d="M112.229 3.49563C110.743 2.63246 108.692 2.74815 106.436 4.05179L78.3701 20.2561C73.8852 22.8456 70.2323 29.177 70.2456 34.3293C70.2545 36.8876 71.1666 38.694 72.6305 39.5483L76.0208 41.5193C74.557 40.6695 73.6449 38.8631 73.636 36.3003C73.6227 31.148 77.2755 24.8167 81.7604 22.2272L109.827 6.02283C112.082 4.71919 114.138 4.6035 115.62 5.46667L112.229 3.49563Z" fill="url(#paint2_linear_1462_2376)"/>
<path d="M109.827 7.0506C113.827 4.74141 117.092 6.60122 117.106 11.1973C117.119 15.789 113.875 21.4085 109.876 23.7177L81.8049 39.922C77.8095 42.2312 74.5437 40.3669 74.5303 35.7753C74.517 31.1791 77.7605 25.5597 81.756 23.2505L109.827 7.04615V7.0506Z" fill="#6B80E4"/>
<path d="M109.822 6.02284C114.307 3.43335 117.987 5.52897 118 10.6857C118.013 15.838 114.361 22.1693 109.876 24.7588L81.8094 40.9632C77.3245 43.5527 73.645 41.4571 73.6316 36.3003C73.6183 31.148 77.2712 24.8167 81.756 22.2272L109.822 6.02284ZM109.871 23.7222C113.871 21.413 117.115 15.7935 117.101 11.2018C117.088 6.6057 113.822 4.74144 109.822 7.05508L81.7516 23.2594C77.7561 25.5686 74.5126 31.1836 74.5259 35.7842C74.5393 40.3759 77.8051 42.2357 81.8005 39.931L109.871 23.7266V23.7222Z" fill="#F2F2F2"/>
<mask id="mask31_1462_2376" style="mask-type:luminance" maskUnits="userSpaceOnUse" x="86" y="25" width="4" height="2">
<path d="M88.4654 25.2394L89.5021 25.84C88.9548 25.5197 88.194 25.5686 87.3531 26.0492L86.3164 25.4485C87.1529 24.9635 87.9137 24.919 88.4654 25.2394Z" fill="white"/>
</mask>
<g mask="url(#mask31_1462_2376)">
<path d="M87.3531 26.0539L86.3164 25.4532C87.1529 24.9682 87.9137 24.9237 88.4654 25.2441L89.5021 25.8447C88.9548 25.5244 88.194 25.5733 87.3531 26.0539Z" fill="#D8E3E3"/>
</g>
<mask id="mask32_1462_2376" style="mask-type:luminance" maskUnits="userSpaceOnUse" x="83" y="25" width="5" height="9">
<path d="M85.2265 33.1947L84.1898 32.5941C83.647 32.2782 83.3133 31.6108 83.3088 30.6586C83.3044 28.741 84.6525 26.4095 86.3166 25.4485L87.3533 26.0491C85.6892 27.0102 84.3411 29.3416 84.3455 31.2593C84.3455 32.2114 84.6837 32.8788 85.2265 33.1947Z" fill="white"/>
</mask>
<g mask="url(#mask32_1462_2376)">
<path d="M85.2265 33.1947L84.1898 32.5941C83.647 32.2782 83.3133 31.6108 83.3088 30.6586C83.3044 28.741 84.6525 26.4095 86.3166 25.4485L87.3533 26.0491C85.6892 27.0102 84.3411 29.3416 84.3455 31.2593C84.3455 32.2114 84.6837 32.8788 85.2265 33.1947Z" fill="#D8E3E3"/>
</g>
<path d="M87.3529 26.0536C89.017 25.0926 90.374 25.8623 90.3785 27.78C90.3829 29.6932 89.0348 32.029 87.3707 32.9901C85.7067 33.9511 84.3497 33.177 84.3452 31.2638C84.3408 29.3461 85.6889 27.0147 87.3529 26.0536Z" fill="#FEFFFF"/>
<mask id="mask33_1462_2376" style="mask-type:luminance" maskUnits="userSpaceOnUse" x="95" y="19" width="4" height="2">
<path d="M97.9425 19.7667L98.9792 20.3674C98.4319 20.047 97.6711 20.096 96.8301 20.5765L95.7935 19.9758C96.6299 19.4909 97.3908 19.4464 97.9425 19.7667Z" fill="white"/>
</mask>
<g mask="url(#mask33_1462_2376)">
<path d="M96.8301 20.5813L95.7935 19.9806C96.6299 19.4956 97.3908 19.4511 97.9425 19.7715L98.9792 20.3721C98.4319 20.0518 97.6711 20.1007 96.8301 20.5813Z" fill="#D8E3E3"/>
</g>
<mask id="mask34_1462_2376" style="mask-type:luminance" maskUnits="userSpaceOnUse" x="92" y="19" width="5" height="9">
<path d="M94.7036 27.7265L93.6669 27.1259C93.1241 26.81 92.7903 26.1426 92.7859 25.1904C92.7815 23.2728 94.1251 20.9458 95.7936 19.9803L96.8303 20.5809C95.1618 21.5464 93.8181 23.8734 93.8226 25.7911C93.8226 26.7432 94.1607 27.4106 94.7036 27.7265Z" fill="white"/>
</mask>
<g mask="url(#mask34_1462_2376)">
<path d="M94.7036 27.7265L93.6669 27.1259C93.1241 26.81 92.7903 26.1426 92.7859 25.1904C92.7815 23.2728 94.1251 20.9458 95.7936 19.9803L96.8303 20.5809C95.1618 21.5464 93.8181 23.8734 93.8226 25.7911C93.8226 26.7432 94.1607 27.4106 94.7036 27.7265Z" fill="#D8E3E3"/>
</g>
<path d="M96.8303 20.581C98.4943 19.6199 99.8513 20.3896 99.8558 22.3073C99.8602 24.2205 98.5121 26.5564 96.848 27.5174C95.1796 28.4829 93.827 27.7043 93.8225 25.7911C93.8181 23.8734 95.1618 21.5465 96.8303 20.581Z" fill="#FEFFFF"/>
<mask id="mask35_1462_2376" style="mask-type:luminance" maskUnits="userSpaceOnUse" x="105" y="14" width="4" height="2">
<path d="M107.424 14.2985L108.461 14.8992C107.913 14.5788 107.153 14.6278 106.312 15.1083L105.275 14.5076C106.111 14.0227 106.872 13.9782 107.424 14.2985Z" fill="white"/>
</mask>
<g mask="url(#mask35_1462_2376)">
<path d="M106.312 15.1083L105.275 14.5076C106.111 14.0227 106.872 13.9782 107.424 14.2985L108.461 14.8992C107.913 14.5788 107.153 14.6278 106.312 15.1083Z" fill="#D8E3E3"/>
</g>
<mask id="mask36_1462_2376" style="mask-type:luminance" maskUnits="userSpaceOnUse" x="102" y="14" width="5" height="9">
<path d="M104.185 22.2539L103.148 21.6532C102.605 21.3373 102.272 20.6699 102.267 19.7178C102.263 17.8001 103.606 15.4731 105.275 14.5076L106.312 15.1083C104.643 16.0738 103.299 18.4008 103.304 20.3184C103.304 21.2706 103.642 21.938 104.185 22.2539Z" fill="white"/>
</mask>
<g mask="url(#mask36_1462_2376)">
<path d="M104.185 22.2539L103.148 21.6532C102.605 21.3373 102.272 20.6699 102.267 19.7178C102.263 17.8001 103.606 15.4731 105.275 14.5076L106.312 15.1083C104.643 16.0738 103.299 18.4008 103.304 20.3184C103.304 21.2706 103.642 21.938 104.185 22.2539Z" fill="#D8E3E3"/>
</g>
<path d="M106.312 15.1083C107.976 14.1473 109.333 14.917 109.337 16.8346C109.342 18.7478 107.994 21.0837 106.33 22.0448C104.661 23.0103 103.309 22.2316 103.304 20.3184C103.3 18.4008 104.643 16.0738 106.312 15.1083Z" fill="#FEFFFF"/>
<path d="M32.7827 3.60242C37.2676 1.01293 40.9472 3.10855 40.9605 8.26083C40.9739 13.4131 37.321 19.7445 32.8361 22.334L11.5685 34.614C7.08358 37.2035 3.40401 35.1079 3.39066 29.9512C3.37731 24.7989 7.03019 18.4675 11.5151 15.878L32.7827 3.60242ZM32.8317 21.3017C36.8316 18.9925 40.0707 13.382 40.0573 8.7814C40.044 4.18973 36.7826 2.32547 32.7827 4.63465L11.5151 16.9147C7.51516 19.2239 4.27607 24.8389 4.28942 29.4351C4.30277 34.0312 7.5641 35.891 11.564 33.5818L32.8317 21.3017Z" fill="#F2F2F2"/>
<path d="M37.9437 4.11857C36.6312 3.35329 34.8114 3.46007 32.8137 4.61244L11.4704 16.937C7.50609 19.2284 4.267 24.8345 4.2759 29.395C4.28035 31.6597 5.09012 33.257 6.38487 34.0134L6.8031 34.2581C5.5039 33.5062 4.69858 31.9089 4.69413 29.6397C4.68078 25.0792 7.91987 19.4731 11.8886 17.1817L33.2319 4.85715C35.2297 3.70478 37.045 3.60245 38.362 4.36328L37.9437 4.11857Z" fill="#0051BD"/>
<path d="M33.2366 4.85269C37.2054 2.5613 40.4622 4.41666 40.4756 8.97719C40.4889 13.5377 37.2543 19.1438 33.2811 21.4352L11.9378 33.7598C7.97346 36.0512 4.71212 34.1958 4.69877 29.6353C4.68542 25.0748 7.92451 19.4686 11.8933 17.1773L33.2366 4.85269Z" fill="#6B80E4"/>
<path d="M35.1851 1.07522C33.699 0.212054 31.6479 0.327736 29.3921 1.63138L8.12446 13.9114C3.63956 16.5009 -0.0133114 22.8323 3.64646e-05 27.9846C0.00893506 30.5429 0.921041 32.3493 2.38486 33.2036L5.77523 35.1746C4.31141 34.3248 3.3993 32.5184 3.3904 29.9556C3.37705 24.8033 7.02993 18.472 11.5148 15.8825L32.7825 3.60242C35.0383 2.29878 37.0938 2.18309 38.5755 3.04626L35.1851 1.07522Z" fill="url(#paint3_linear_1462_2376)"/>
<mask id="mask37_1462_2376" style="mask-type:luminance" maskUnits="userSpaceOnUse" x="13" y="21" width="4" height="2">
<path d="M15.5504 21.6398L16.5871 22.2405C16.0398 21.9201 15.279 21.9691 14.4381 22.4496L13.4014 21.849C14.2378 21.364 14.9987 21.3195 15.5504 21.6398Z" fill="white"/>
</mask>
<g mask="url(#mask37_1462_2376)">
<path d="M14.4381 22.4496L13.4014 21.849C14.2378 21.364 14.9987 21.3195 15.5504 21.6398L16.5871 22.2405C16.0398 21.9201 15.279 21.9691 14.4381 22.4496Z" fill="#D8E3E3"/>
</g>
<mask id="mask38_1462_2376" style="mask-type:luminance" maskUnits="userSpaceOnUse" x="10" y="21" width="5" height="9">
<path d="M12.3115 29.5952L11.2748 28.9945C10.732 28.6786 10.3983 28.0112 10.3938 27.0591C10.3894 25.1414 11.7375 22.81 13.4015 21.8489L14.4382 22.4496C12.7742 23.4106 11.426 25.7421 11.4305 27.6597C11.4305 28.6119 11.7686 29.2793 12.3115 29.5952Z" fill="white"/>
</mask>
<g mask="url(#mask38_1462_2376)">
<path d="M12.3115 29.5952L11.2748 28.9945C10.732 28.6786 10.3983 28.0112 10.3938 27.0591C10.3894 25.1414 11.7375 22.81 13.4015 21.8489L14.4382 22.4496C12.7742 23.4106 11.426 25.7421 11.4305 27.6597C11.4305 28.6119 11.7686 29.2793 12.3115 29.5952Z" fill="#D8E3E3"/>
</g>
<path d="M14.4379 22.4496C16.102 21.4886 17.459 22.2583 17.4634 24.1759C17.4679 26.0891 16.1197 28.425 14.4557 29.3861C12.7917 30.3471 11.4346 29.5729 11.4302 27.6598C11.4257 25.7421 12.7739 23.4107 14.4379 22.4496Z" fill="#FEFFFF"/>
<mask id="mask39_1462_2376" style="mask-type:luminance" maskUnits="userSpaceOnUse" x="22" y="15" width="5" height="2">
<path d="M25.0274 16.1672L26.0641 16.7679C25.5169 16.4475 24.756 16.4965 23.9151 16.977L22.8784 16.3764C23.7149 15.8914 24.4757 15.8469 25.0274 16.1672Z" fill="white"/>
</mask>
<g mask="url(#mask39_1462_2376)">
<path d="M23.9151 16.977L22.8784 16.3764C23.7149 15.8914 24.4757 15.8469 25.0274 16.1672L26.0641 16.7679C25.5169 16.4475 24.756 16.4965 23.9151 16.977Z" fill="#D8E3E3"/>
</g>
<mask id="mask40_1462_2376" style="mask-type:luminance" maskUnits="userSpaceOnUse" x="19" y="16" width="5" height="9">
<path d="M21.7885 24.1226L20.7518 23.5219C20.209 23.206 19.8753 22.5386 19.8709 21.5865C19.8664 19.6688 21.2101 17.3418 22.8786 16.3763L23.9153 16.977C22.2468 17.9425 20.9031 20.2695 20.9075 22.1871C20.9075 23.1393 21.2457 23.8067 21.7885 24.1226Z" fill="white"/>
</mask>
<g mask="url(#mask40_1462_2376)">
<path d="M21.7885 24.1226L20.7518 23.5219C20.209 23.206 19.8753 22.5386 19.8709 21.5865C19.8664 19.6688 21.2101 17.3418 22.8786 16.3763L23.9153 16.977C22.2468 17.9425 20.9031 20.2695 20.9075 22.1871C20.9075 23.1393 21.2457 23.8067 21.7885 24.1226Z" fill="#D8E3E3"/>
</g>
<path d="M23.9152 16.977C25.5792 16.016 26.9363 16.7857 26.9407 18.7034C26.9452 20.6166 25.597 22.9524 23.933 23.9135C22.2645 24.879 20.9119 24.1004 20.9075 22.1872C20.903 20.2695 22.2467 17.9425 23.9152 16.977Z" fill="#FEFFFF"/>
<mask id="mask41_1462_2376" style="mask-type:luminance" maskUnits="userSpaceOnUse" x="32" y="10" width="4" height="2">
<path d="M34.5045 10.6946L35.5412 11.2952C34.9939 10.9749 34.2331 11.0238 33.3922 11.5044L32.3555 10.9037C33.1919 10.4187 33.9528 10.3742 34.5045 10.6946Z" fill="white"/>
</mask>
<g mask="url(#mask41_1462_2376)">
<path d="M33.3922 11.5044L32.3555 10.9037C33.1919 10.4187 33.9528 10.3742 34.5045 10.6946L35.5412 11.2952C34.9939 10.9749 34.2331 11.0238 33.3922 11.5044Z" fill="#D8E3E3"/>
</g>
<mask id="mask42_1462_2376" style="mask-type:luminance" maskUnits="userSpaceOnUse" x="29" y="10" width="5" height="9">
<path d="M31.2653 18.6499L30.2286 18.0493C29.6858 17.7334 29.3521 17.066 29.3477 16.1138C29.3432 14.1962 30.6869 11.8692 32.3554 10.9037L33.3921 11.5043C31.7236 12.4698 30.3799 14.7968 30.3844 16.7145C30.3844 17.6666 30.7225 18.334 31.2653 18.6499Z" fill="white"/>
</mask>
<g mask="url(#mask42_1462_2376)">
<path d="M31.2653 18.6499L30.2286 18.0493C29.6858 17.7334 29.3521 17.066 29.3477 16.1138C29.3432 14.1962 30.6869 11.8692 32.3554 10.9037L33.3921 11.5043C31.7236 12.4698 30.3799 14.7968 30.3844 16.7145C30.3844 17.6666 30.7225 18.334 31.2653 18.6499Z" fill="#D8E3E3"/>
</g>
<path d="M33.3923 11.5044C35.0563 10.5433 36.4133 11.313 36.4178 13.2307C36.4222 15.1439 35.0741 17.4798 33.4101 18.4408C31.7416 19.4063 30.389 18.6277 30.3845 16.7145C30.3801 14.7969 31.7238 12.4699 33.3923 11.5044Z" fill="#FEFFFF"/>
<defs>
<linearGradient id="paint0_linear_1462_2376" x1="68.2525" y1="96.0455" x2="90.8505" y2="56.9095" gradientUnits="userSpaceOnUse">
<stop stop-color="#504C74"/>
<stop offset="0.03" stop-color="#524E76"/>
<stop offset="0.14" stop-color="#524E76"/>
<stop offset="0.23" stop-color="#63608A"/>
<stop offset="0.33" stop-color="#615E88"/>
<stop offset="0.37" stop-color="#5B5881"/>
<stop offset="0.39" stop-color="#524E76"/>
<stop offset="0.93" stop-color="#524E76"/>
<stop offset="0.99" stop-color="#44416E"/>
</linearGradient>
<linearGradient id="paint1_linear_1462_2376" x1="54.4996" y1="91.9255" x2="80.4079" y2="47.0588" gradientUnits="userSpaceOnUse">
<stop stop-color="#44416E"/>
<stop offset="0.07" stop-color="#524E76"/>
<stop offset="0.61" stop-color="#524E76"/>
<stop offset="0.63" stop-color="#5B5881"/>
<stop offset="0.67" stop-color="#615E88"/>
<stop offset="0.77" stop-color="#63608A"/>
<stop offset="0.86" stop-color="#524E76"/>
<stop offset="0.97" stop-color="#524E76"/>
<stop offset="0.99" stop-color="#504C74"/>
<stop offset="1" stop-color="#46426E"/>
</linearGradient>
<linearGradient id="paint2_linear_1462_2376" x1="78.4991" y1="42.952" x2="104.016" y2="-1.24287" gradientUnits="userSpaceOnUse">
<stop stop-color="#CAE3E3"/>
<stop offset="0.07" stop-color="#E3EBEB"/>
<stop offset="0.18" stop-color="#E3EBEB"/>
<stop offset="0.21" stop-color="#E6EDED"/>
<stop offset="0.36" stop-color="#F3F7F7"/>
<stop offset="0.56" stop-color="#FBFDFD"/>
<stop offset="0.94" stop-color="#FEFFFF"/>
<stop offset="0.97" stop-color="#F3F7F7"/>
<stop offset="1" stop-color="#E3EBEB"/>
</linearGradient>
<linearGradient id="paint3_linear_1462_2376" x1="6.5583" y1="35.624" x2="28.6758" y2="-2.68444" gradientUnits="userSpaceOnUse">
<stop stop-color="#CAE3E3"/>
<stop offset="0.07" stop-color="#E3EBEB"/>
<stop offset="0.18" stop-color="#E3EBEB"/>
<stop offset="0.21" stop-color="#E6EDED"/>
<stop offset="0.36" stop-color="#F3F7F7"/>
<stop offset="0.56" stop-color="#FBFDFD"/>
<stop offset="0.94" stop-color="#FEFFFF"/>
<stop offset="0.97" stop-color="#F3F7F7"/>
<stop offset="1" stop-color="#E3EBEB"/>
</linearGradient>
</defs>
</svg>
