<svg width="342" height="342" viewBox="0 0 342 342" fill="none" xmlns="http://www.w3.org/2000/svg">
<rect width="342" height="342" rx="38" fill="#607DEA" fill-opacity="0.15"/>
<ellipse cx="6.86" cy="6.5" rx="6.86" ry="6.5" transform="matrix(1 0 0 -1 202.689 253)" fill="#435BB1"/>
<ellipse cx="19.5246" cy="19" rx="19.5246" ry="19" transform="matrix(1 0 0 -1 255.458 177)" fill="#30417A"/>
<g opacity="0.2">
<path d="M41.7614 101L89.3929 101L159.526 269H111.868L41.7614 101Z" fill="#2A3F72"/>
<path d="M144.703 185H192.323L230.35 269H182.729L144.703 185Z" fill="url(#paint0_linear_2119_13272)"/>
<g style="mix-blend-mode:screen">
<path d="M182.585 269H230.243L300.35 101H252.691L182.585 269Z" fill="#5F7CEA"/>
</g>
</g>
<path d="M256 290.183C254.421 290.616 253.756 291.364 253.589 292.309C253.423 293.215 253.465 294.475 253.506 294.79C253.548 295.105 257.87 297.152 259.033 297.192C260.197 297.27 261.153 296.955 261.693 297.31C262.233 297.664 263.812 299.121 267.552 300.46C271.292 301.759 273.287 301.641 274.783 301.09C276.279 300.538 276.237 297.743 275.323 296.877C274.409 296.05 268.009 293.963 268.009 293.963L255.958 290.144L256 290.183Z" fill="#170B05"/>
<path d="M262.898 289.119C262.898 289.119 265.059 290.852 265.433 291.127C265.807 291.403 273.204 294.514 274.076 295.262C274.991 296.049 275.323 297.231 275.323 297.979C275.323 298.727 274.824 300.302 273.578 300.695C272.289 301.089 266.804 299.278 265.516 298.451C264.228 297.624 263.771 296.325 261.277 295.537C258.784 294.75 254.878 294.553 254.379 293.214C253.88 291.876 254.753 288.529 254.753 288.529L259.49 286.875L262.856 289.08L262.898 289.119Z" fill="#402C24"/>
<path d="M265.225 221.907C267.677 233.838 267.76 241.437 266.555 250.729C265.308 260.022 266.305 261.951 265.848 264.314C265.35 266.676 259.033 266.519 257.08 266.204C255.127 265.889 253.922 265.062 253.506 263.369C253.049 261.676 251.803 236.24 251.429 234.153C251.096 232.066 265.225 221.907 265.225 221.907Z" fill="#4A458B"/>
<path d="M265.973 263.291C266.014 273.922 264.934 288.687 264.768 290.223C264.602 291.758 260.072 292.31 257.496 292.231C254.919 292.152 254.795 288.766 254.795 288.766C254.795 288.766 252.758 272.937 252.301 269C251.844 265.062 252.883 257.188 252.883 257.188L265.931 263.251L265.973 263.291Z" fill="#4A458B"/>
<path d="M234.474 300.695C233.892 300.971 232.646 301.483 232.77 302.979C232.895 304.475 232.77 304.79 232.812 305.105C232.812 305.42 234.516 307.822 234.807 307.98C235.097 308.137 235.721 308.531 235.721 308.531C235.721 308.531 237.466 312.705 238.172 313.689C238.879 314.673 243.076 316.878 246.4 316.76C249.725 316.642 250.805 315.461 251.055 314.713C251.304 313.965 250.888 312.862 250.473 312.232C250.057 311.602 240.375 305.696 240.375 305.696L234.474 300.695Z" fill="#170B05"/>
<path d="M266.804 181.31C270.212 182.294 270.71 183.436 272.83 187.216C274.949 190.996 281.307 203.674 282.013 205.367C282.72 207.061 276.653 210.801 273.952 209.147C271.25 207.454 264.02 195.681 262.981 192.886C261.942 190.09 266.846 181.349 266.846 181.349L266.804 181.31Z" fill="#433F7D"/>
<path d="M242.536 297.98C242.536 297.98 242.702 301.248 243.824 302.232C244.946 303.217 249.808 311.485 250.099 312.391C250.39 313.297 250.14 314.439 250.14 314.439C250.14 314.439 249.475 316.053 244.323 315.423C239.17 314.793 237.134 309.792 236.51 308.65C235.887 307.509 233.477 303.729 233.477 303.729C233.477 303.729 233.56 300.342 233.726 299.279C233.892 298.216 236.053 297.311 236.053 297.311L242.536 297.98Z" fill="#402C24"/>
<path d="M258.95 230.764C259.116 233.717 259.49 241.474 258.285 242.892C257.08 244.309 252.55 245.097 252.55 245.097C252.55 245.097 248.187 270.178 246.691 272.265C245.195 274.352 238.255 273.092 236.967 272.226C235.679 271.36 235.305 268.997 235.305 268.997C235.305 268.997 235.845 256.397 235.804 255.137C235.762 253.877 234.557 239.348 236.469 231.709C238.38 224.071 258.95 230.804 258.95 230.804V230.764Z" fill="#4F4993"/>
<path d="M247.398 264.982C247.398 265.218 248.27 266.793 247.73 269.943C247.232 273.093 244.364 298.687 243.658 300.852C242.951 303.018 233.684 301.719 233.726 299.474C233.726 297.23 232.064 282.661 233.227 276.165C234.391 269.668 236.76 264.273 236.76 264.273L247.398 264.982Z" fill="#4F4993"/>
<path d="M249.226 175.957C243.408 176.469 232.853 182.454 232.272 183.478C231.648 184.501 233.892 197.574 236.302 203.795C238.713 210.016 235.264 230.136 235.347 232.578C235.43 235.019 248.312 237.342 258.576 235.413C268.84 233.483 266.43 229.31 266.638 227.813C266.846 226.317 265.516 213.993 265.848 211.434C266.181 208.874 267.968 199.621 268.674 192.691C269.38 185.761 269.256 182.69 267.22 181.548C265.225 180.367 256.665 176.941 255.459 176.43C254.254 175.957 249.226 175.957 249.226 175.957Z" fill="#353263"/>
<path d="M248.187 176.546C243.949 176.546 242.91 178.712 243.325 181.546C243.741 184.381 254.628 221.079 254.628 221.079C254.628 221.079 261.527 187.768 261.859 183.476C262.191 179.223 257.953 177.885 257.953 177.885L248.187 176.546Z" fill="#BBD3E7"/>
<path d="M252.426 186.824L250.223 210.489L253.506 217.104L256.374 198.44L253.465 186.549L252.426 186.824Z" fill="#221D52"/>
<path d="M260.488 166.98C258.701 173.201 258.244 175.288 258.493 176.784C258.742 178.28 258.784 179.344 258.909 179.934C258.992 180.525 257.537 182.69 253.963 182.69C250.39 182.69 247.065 180.682 246.193 179.58C245.32 178.477 245.902 177.651 245.902 177.651C245.902 177.651 246.774 172.768 247.107 171.351C247.439 169.933 250.348 164.775 250.348 164.775L261.859 161.743L260.529 166.941L260.488 166.98Z" fill="#FF9B78"/>
<path d="M252.758 181.823C252.758 181.823 249.683 181.233 248.437 180.327C247.19 179.422 246.151 178.28 246.151 177.689C246.151 177.098 246.276 175.523 246.276 175.523C246.276 175.523 245.029 177.098 244.863 177.65C244.697 178.201 243.824 179.815 244.156 180.445C244.489 181.115 245.071 183.516 248.977 184.776C250.514 185.091 251.179 185.249 251.179 185.249L252.592 182.808L254.753 185.367C254.753 185.367 256.249 185.525 258.742 183.713C261.236 181.902 259.864 179.776 259.781 179.54C259.656 179.303 259.282 176.823 258.493 176.311C258.368 178.831 258.244 180.052 258.244 180.052C258.244 180.052 255.002 181.784 252.8 181.823H252.758Z" fill="#CEE8FF"/>
<path d="M252.551 182.807L251.138 185.248C251.138 185.248 251.013 186.39 251.138 186.744C251.221 187.099 252.592 188.516 252.592 188.516L253.797 188.28L254.587 186.705L255.044 185.327L252.592 182.768L252.551 182.807Z" fill="#221D52"/>
<path d="M259.74 179.542C260.446 182.692 254.587 223.051 254.587 223.051L264.477 195.174L261.9 192.654L265.183 190.37C265.183 190.37 264.892 184.188 264.352 182.298C263.812 180.408 259.449 178.203 259.449 178.203L259.781 179.542H259.74Z" fill="#433F7D"/>
<path d="M245.278 176.861C243.242 177.57 240.915 178.751 240.209 183.752C239.461 188.752 243.616 204.266 243.616 204.266C243.616 204.266 243.948 179.972 244.239 179.263C244.53 178.554 245.278 176.861 245.278 176.861Z" fill="#433F7D"/>
<path d="M258.368 153.354C259.781 155.402 260.779 155.953 260.321 161.072C259.864 166.191 259.49 168.711 258.825 170.837C258.161 172.963 253.132 174.459 252.26 174.577C251.387 174.695 248.769 174.577 248.27 174.341C247.772 174.144 245.611 171.349 245.029 170.01C244.447 168.671 244.738 159.182 244.697 157.253C244.697 155.323 245.403 153.669 249.268 152.173C253.174 150.677 258.327 153.315 258.327 153.315L258.368 153.354Z" fill="#FFBC99"/>
<path d="M245.902 162.964C244.946 161.744 243.99 161.901 243.658 162.452C243.325 163.004 244.697 167.02 245.237 166.823C245.777 166.626 245.86 162.925 245.86 162.925L245.902 162.964Z" fill="#FFBC99"/>
<path d="M234.599 181.824C237.632 180.682 237.798 181.155 237.798 181.155C237.798 181.155 242.951 182.06 241.331 189.108C239.419 197.416 234.142 211.591 233.227 213.56C232.313 215.529 223.961 215.765 223.046 214.229C222.132 212.654 226.454 198.007 228.449 192.455C230.443 186.943 231.316 184.816 232.272 183.517C233.227 182.218 234.599 181.824 234.599 181.824Z" fill="#433F7D"/>
<path d="M247.356 154.813C254.088 155.64 256.041 154.695 256.831 154.931C257.08 155.01 257.537 155.797 257.496 156.191C257.496 156.585 257.371 158.987 257.371 158.987L259.324 160.877L258.95 165.05L259.906 165.129C259.906 165.129 260.28 162.097 260.945 162.727C261.402 163.16 260.446 166.98 260.446 166.98C260.446 166.98 261.776 165.877 262.15 164.853C262.482 163.869 263.729 158.081 263.147 154.616C262.607 151.19 258.036 148.907 254.587 148.828C251.179 148.789 248.81 149.379 246.442 151.269C244.073 153.159 244.281 156.742 244.281 158.987C244.281 161.231 244.696 162.767 244.696 162.767C244.696 162.767 244.696 159.577 244.946 158.239C245.195 156.9 245.32 155.679 245.943 155.089C246.566 154.498 247.356 154.852 247.356 154.852V154.813Z" fill="#553012"/>
<path d="M260.155 165.446C260.28 163.91 260.238 163.477 260.571 162.926C260.903 162.375 262.399 162.375 262.856 163.083C263.313 163.792 263.355 165.525 262.607 166.785C261.859 168.045 260.778 168.635 260.363 168.281C259.947 167.926 260.155 165.446 260.155 165.446Z" fill="#FFBC99"/>
<path d="M278.855 205.489C280.06 205.252 281.348 204.347 282.013 205.331C282.678 206.315 283.676 207.733 283.551 212.222C283.426 216.671 282.72 224.625 282.512 226.396C282.304 228.208 280.434 229.231 278.814 228.838C277.193 228.444 275.24 228.05 274.99 225.766C274.741 223.483 273.287 211.237 273.91 209.111C274.533 206.985 278.855 205.489 278.855 205.489Z" fill="#433F7D"/>
<path d="M273.744 228.013C273.744 228.013 272.414 229.746 271.458 230.494C270.503 231.242 268.924 232.069 268.716 232.423C268.508 232.777 268.716 233.526 268.882 233.88C269.048 234.234 268.051 235.258 268.217 235.809C268.383 236.361 269.713 236.4 269.713 236.4H271.292C271.292 236.4 271.417 236.715 272.289 236.636C273.162 236.557 276.528 235.061 277.858 233.211C279.728 230.572 279.977 229.942 281.349 227.974C280.891 225.651 279.395 225.375 277.899 225.296C276.57 225.218 275.198 225.808 275.198 225.808L273.785 227.974L273.744 228.013Z" fill="#FFBC99"/>
<path d="M271.251 227.498C271.251 227.498 272.497 226.593 273.661 226.002C274.824 225.411 275.655 225.451 276.86 225.451C278.066 225.451 278.73 226.356 278.149 227.223C277.567 228.049 273.536 228.837 273.536 228.837C273.536 228.837 269.547 230.648 268.882 230.766C268.217 230.884 267.303 230.215 267.594 229.624C267.885 229.034 270.17 228.01 270.17 228.01L271.251 227.498Z" fill="#FFBC99"/>
<path d="M63.3872 238.318L60.1862 236.545C58.6656 235.71 57.7053 233.912 57.7053 231.354L60.9064 233.127C60.9064 235.684 61.8667 237.457 63.3872 238.318Z" fill="#4453A1"/>
<path d="M114.071 111.186C114.071 106.046 110.23 103.995 105.535 106.552L69.1226 126.505C64.4277 129.087 60.6131 135.316 60.6398 140.456L60.9065 233.103C60.9065 238.243 64.7478 240.294 69.4427 237.737L105.855 217.784C110.55 215.202 114.364 208.947 114.338 203.833L114.071 111.186Z" fill="white"/>
<path d="M108.389 104.248L111.59 106.021C110.043 105.16 107.909 105.286 105.535 106.578L102.334 104.805C104.708 103.514 106.842 103.387 108.389 104.248Z" fill="#3262A9"/>
<path d="M60.9064 233.13L57.7054 231.358L57.4386 138.711L60.6397 140.483L60.9064 233.13Z" fill="#4453A1"/>
<path d="M69.1226 126.529L65.9215 124.757L102.334 104.805L105.535 106.577L69.1226 126.529Z" fill="#4453A1"/>
<path d="M60.6397 140.483L57.4386 138.71C57.4386 133.57 61.2265 127.341 65.9214 124.759L69.1225 126.531C64.4276 129.114 60.613 135.343 60.6397 140.483Z" fill="#849DEE"/>
<path d="M105.295 166.815L103.534 165.852L106.148 165.093L107.936 166.08L105.295 166.815Z" fill="#BC8F3F"/>
<path d="M101.4 174.867L99.6128 173.879L99.8262 170.815L101.587 171.803L101.4 174.867Z" fill="#BC8F3F"/>
<path d="M102.467 168.384L100.68 167.396L102.094 164.104L103.881 165.092L102.467 168.384Z" fill="#BC8F3F"/>
<path d="M99.8261 170.511L98.0656 169.549L100.68 167.396L102.467 168.384L99.8261 170.511Z" fill="#BC8F3F"/>
<path d="M101.587 171.803L99.8261 170.816L98.0656 169.55L99.8261 170.512L101.587 171.803Z" fill="#BC8F3F"/>
<path d="M103.881 165.093L105.295 166.815L107.936 166.08L106.175 169.296L106.415 172.106L103.881 172.36L101.4 174.866L101.587 171.803L99.8262 170.511L102.467 168.384L103.881 165.093Z" fill="#FFD255"/>
<path d="M95.5581 172.158L93.7709 171.196L96.4384 170.437L98.199 171.399L95.5581 172.158Z" fill="#BC8F3F"/>
<path d="M91.6636 180.209L89.8763 179.222L90.0897 176.158L91.8503 177.146L91.6636 180.209Z" fill="#BC8F3F"/>
<path d="M92.7305 173.726L90.9432 172.739L92.357 169.447L94.1443 170.409L92.7305 173.726Z" fill="#BC8F3F"/>
<path d="M90.0897 175.855L88.3291 174.867L90.9433 172.74L92.7306 173.728L90.0897 175.855Z" fill="#BC8F3F"/>
<path d="M91.8503 177.145L90.0897 176.158L88.3291 174.866L90.0897 175.854L91.8503 177.145Z" fill="#BC8F3F"/>
<path d="M94.1443 170.409L95.5581 172.156L98.199 171.397L96.4384 174.612L96.6518 177.448L94.1443 177.701L91.6635 180.208L91.8502 177.144L90.0896 175.853L92.7305 173.726L94.1443 170.409Z" fill="#FFD255"/>
<path d="M85.8216 177.499L84.0343 176.537L86.6752 175.777L88.4625 176.74L85.8216 177.499Z" fill="#BC8F3F"/>
<path d="M81.9004 185.527L80.1398 184.565L80.3532 181.501L82.1138 182.463L81.9004 185.527Z" fill="#BC8F3F"/>
<path d="M82.9941 179.043L81.2068 178.081L82.6206 174.789L84.3812 175.751L82.9941 179.043Z" fill="#BC8F3F"/>
<path d="M80.3529 181.197L78.5657 180.21L81.2066 178.083L82.9938 179.045L80.3529 181.197Z" fill="#BC8F3F"/>
<path d="M82.1135 182.462L80.3529 181.5L78.5657 180.209L80.3529 181.196L82.1135 182.462Z" fill="#BC8F3F"/>
<path d="M84.3812 175.753L85.8216 177.5L88.4625 176.74L86.7019 179.956L86.9153 182.792L84.4078 183.02L81.9003 185.527L82.1137 182.463L80.3531 181.197L82.994 179.045L84.3812 175.753Z" fill="#FFD255"/>
<path d="M76.0851 182.842L74.2979 181.854L76.9387 181.095L78.726 182.082L76.0851 182.842Z" fill="#BC8F3F"/>
<path d="M72.1635 190.868L70.403 189.906L70.6164 186.842L72.3769 187.804L72.1635 190.868Z" fill="#BC8F3F"/>
<path d="M73.2306 184.387L71.47 183.424L72.8838 180.107L74.6444 181.095L73.2306 184.387Z" fill="#BC8F3F"/>
<path d="M70.6165 186.538L68.8292 185.551L71.4701 183.424L73.2307 184.386L70.6165 186.538Z" fill="#BC8F3F"/>
<path d="M72.3771 187.805L70.6165 186.843L68.8292 185.552L70.6165 186.539L72.3771 187.805Z" fill="#BC8F3F"/>
<path d="M74.6443 181.095L76.0848 182.842L78.7257 182.082L76.9651 185.298L77.1785 188.134L74.671 188.362L72.1635 190.868L72.3769 187.805L70.6163 186.539L73.2305 184.386L74.6443 181.095Z" fill="#FFD255"/>
<path d="M106.042 202.262L107.802 203.249C107.509 203.072 107.082 203.097 106.602 203.351L104.841 202.363C105.295 202.11 105.722 202.085 106.042 202.262Z" fill="#D0E2F7"/>
<path d="M106.602 203.351C107.535 202.844 108.282 203.25 108.282 204.262C108.282 205.275 107.535 206.491 106.602 207.022L72.1369 225.911C71.2032 226.418 70.4563 226.012 70.4563 225C70.4563 223.987 71.2032 222.771 72.1369 222.24L106.602 203.351Z" fill="#D4E8FF"/>
<path d="M106.015 193.856L107.776 194.844C107.482 194.667 107.055 194.692 106.575 194.945L104.815 193.958C105.268 193.705 105.695 193.679 106.015 193.856Z" fill="#D0E2F7"/>
<path d="M106.575 194.945C107.509 194.438 108.256 194.843 108.256 195.856C108.256 196.869 107.509 198.084 106.575 198.616L72.1104 217.505C71.1767 218.011 70.4298 217.606 70.4298 216.593C70.4298 215.581 71.1767 214.34 72.1104 213.833L106.575 194.945Z" fill="#D4E8FF"/>
<path d="M105.988 185.426L107.749 186.413C107.455 186.236 107.028 186.261 106.548 186.515L104.788 185.527C105.241 185.274 105.668 185.249 105.988 185.426Z" fill="#D0E2F7"/>
<path d="M106.548 186.515C107.482 186.008 108.229 186.414 108.229 187.426C108.229 188.439 107.482 189.655 106.548 190.186L72.0835 209.075C71.1499 209.582 70.403 209.176 70.403 208.164C70.403 207.151 71.1499 205.936 72.0835 205.404L106.548 186.515Z" fill="#D4E8FF"/>
<path d="M102.787 178.765L104.548 179.752C104.254 179.575 103.828 179.6 103.347 179.853L101.587 178.866C102.04 178.613 102.467 178.587 102.787 178.765Z" fill="#D0E2F7"/>
<path d="M72.1639 222.242L70.3766 221.254L104.841 202.365L106.602 203.353L72.1639 222.242Z" fill="#C0D5EB"/>
<path d="M70.9634 226.015L69.2028 225.028C68.9094 224.85 68.7227 224.496 68.7227 224.015C68.7227 223.002 69.4696 221.787 70.4032 221.255L72.1638 222.242C71.2302 222.749 70.4832 223.989 70.4832 225.002C70.4832 225.509 70.67 225.863 70.9634 226.015Z" fill="#C0D5EB"/>
<path d="M72.137 213.81L70.3497 212.848L104.815 193.959L106.575 194.946L72.137 213.81Z" fill="#C0D5EB"/>
<path d="M70.9366 217.581L69.176 216.594C68.8825 216.417 68.6958 216.062 68.6958 215.581C68.6958 214.568 69.4427 213.328 70.3764 212.821L72.137 213.809C71.2033 214.315 70.4564 215.556 70.4564 216.569C70.4564 217.075 70.6431 217.43 70.9366 217.581Z" fill="#C0D5EB"/>
<path d="M72.1105 205.404L70.3232 204.416L104.788 185.553L106.549 186.515L72.1105 205.404Z" fill="#C0D5EB"/>
<path d="M70.9099 209.176L69.1493 208.189C68.8559 208.011 68.6692 207.682 68.6692 207.176C68.6692 206.163 69.4161 204.948 70.3498 204.416L72.1103 205.404C71.1767 205.91 70.4298 207.151 70.4298 208.163C70.4298 208.67 70.6165 209.024 70.9099 209.176Z" fill="#C0D5EB"/>
<path d="M75.2581 195.249L73.4976 194.262L101.587 178.867L103.348 179.855L75.2581 195.249Z" fill="#C0D5EB"/>
<path d="M74.0844 199.023L72.3238 198.035C72.0304 197.858 71.8436 197.529 71.8436 197.023C71.8436 196.01 72.5905 194.794 73.5242 194.263L75.2848 195.25C74.3511 195.757 73.6042 196.997 73.6042 198.01C73.6042 198.516 73.7909 198.871 74.0844 199.023Z" fill="#C0D5EB"/>
<path d="M103.348 179.856C104.281 179.349 105.028 179.754 105.028 180.767C105.028 181.78 104.281 182.995 103.348 183.527L75.2582 198.922C74.3246 199.428 73.5776 199.023 73.5776 198.01C73.5776 196.997 74.3246 195.782 75.2582 195.25L103.348 179.856Z" fill="#D4E8FF"/>
<path d="M100.066 127.77L103.267 129.542C100.013 127.745 95.5315 127.998 90.5698 130.732L87.3688 128.96C92.3304 126.251 96.8119 125.998 100.066 127.77Z" fill="#4453A1"/>
<mask id="mask0_2119_13272" style="mask-type:luminance" maskUnits="userSpaceOnUse" x="87" y="126" width="17" height="5">
<path d="M100.066 127.771L103.267 129.543C100.013 127.746 95.5315 127.999 90.5698 130.733L87.3688 128.961C92.3304 126.252 96.8119 125.999 100.066 127.771Z" fill="white"/>
</mask>
<g mask="url(#mask0_2119_13272)">
<path d="M90.5698 130.733L87.3688 128.961C92.3304 126.252 96.8119 125.999 100.066 127.771L103.267 129.543C100.013 127.746 95.5315 127.999 90.5698 130.733Z" fill="#4453A1"/>
</g>
<path d="M77.9791 170.839L74.778 169.066C71.5769 167.294 69.5762 163.546 69.5762 158.204C69.5496 147.443 77.4989 134.352 87.3689 128.959L90.5699 130.731C80.7266 136.125 72.7506 149.215 72.7773 159.976C72.7773 165.319 74.778 169.066 77.9791 170.839Z" fill="#4453A1"/>
<mask id="mask1_2119_13272" style="mask-type:luminance" maskUnits="userSpaceOnUse" x="69" y="128" width="22" height="43">
<path d="M77.9791 170.838L74.778 169.065C71.5769 167.293 69.5762 163.545 69.5762 158.203C69.5496 147.442 77.4989 134.351 87.3689 128.958L90.5699 130.73C80.7266 136.124 72.7506 149.214 72.7773 159.975C72.7773 165.318 74.778 169.065 77.9791 170.838Z" fill="white"/>
</mask>
<g mask="url(#mask1_2119_13272)">
<path d="M77.9791 170.838L74.778 169.065C71.5769 167.293 69.5762 163.545 69.5762 158.203C69.5496 147.442 77.4989 134.351 87.3689 128.958L90.5699 130.73C80.7266 136.124 72.7506 149.214 72.7773 159.975C72.7773 165.318 74.778 169.065 77.9791 170.838Z" fill="#4453A1"/>
</g>
<path d="M72.7772 159.979C72.7772 165.372 74.8046 169.17 78.0857 170.892C81.3134 172.614 85.7683 172.335 90.6766 169.652C95.2914 167.145 99.4528 162.942 102.601 158.08C106.228 152.535 108.469 146.129 108.443 140.407C108.416 129.646 100.413 125.316 90.5432 130.709C80.6999 136.102 72.7239 149.193 72.7506 159.954L72.7772 159.979Z" fill="#6B80E4"/>
<path d="M222.508 41.7082L225.709 43.4806C224.161 42.6197 222.027 42.7463 219.653 44.0376L216.452 42.2652C218.826 40.9739 220.96 40.8473 222.508 41.7082Z" fill="#3262A9"/>
<path d="M177.506 175.778L174.305 174.006C172.784 173.171 171.824 171.373 171.824 168.815L175.025 170.588C175.025 173.145 175.985 174.918 177.506 175.778Z" fill="#BFC1C0"/>
<path d="M219.626 44.0372C224.321 41.4545 228.162 43.5308 228.162 48.6708L228.429 141.317C228.429 146.458 224.641 152.686 219.946 155.269L183.534 175.221C178.839 177.804 174.998 175.728 174.998 170.588L174.731 77.941C174.731 72.801 178.519 66.5722 183.214 63.9895L219.626 44.0372Z" fill="#EDEFEE"/>
<path d="M175.025 170.587L171.824 168.84L171.557 76.168L174.731 77.9404L175.025 170.587Z" fill="#BC8F3F"/>
<path d="M183.241 63.9884L180.04 62.216L216.452 42.2637L219.626 44.0361L183.241 63.9884Z" fill="#4453A1"/>
<path d="M174.731 77.9397L171.53 76.1673C171.53 71.0273 175.318 64.7985 180.013 62.2158L183.214 63.9882C178.519 66.5709 174.705 72.825 174.731 77.9397Z" fill="#BFC1C0"/>
<path d="M219.413 104.3L217.626 103.312L220.267 102.553L222.054 103.54L219.413 104.3Z" fill="#BC8F3F"/>
<path d="M215.492 112.325L213.731 111.363L213.945 108.299L215.705 109.261L215.492 112.325Z" fill="#BC8F3F"/>
<path d="M216.559 105.845L214.798 104.882L216.212 101.565L217.972 102.553L216.559 105.845Z" fill="#BC8F3F"/>
<path d="M213.944 107.97L212.157 107.008L214.798 104.881L216.559 105.843L213.944 107.97Z" fill="#BC8F3F"/>
<path d="M215.705 109.262L213.944 108.3L212.157 107.009L213.944 107.971L215.705 109.262Z" fill="#BC8F3F"/>
<path d="M217.973 102.553L219.413 104.3L222.054 103.54L220.293 106.756L220.507 109.592L217.999 109.82L215.492 112.326L215.705 109.263L213.945 107.971L216.559 105.844L217.973 102.553Z" fill="#F4BF4F"/>
<path d="M209.65 109.642L207.889 108.654L210.53 107.895L212.29 108.882L209.65 109.642Z" fill="#BC8F3F"/>
<path d="M205.755 117.669L203.994 116.682L204.181 113.618L205.968 114.606L205.755 117.669Z" fill="#BC8F3F"/>
<path d="M206.822 111.185L205.061 110.198L206.475 106.906L208.236 107.894L206.822 111.185Z" fill="#BC8F3F"/>
<path d="M204.208 113.314L202.421 112.351L205.062 110.199L206.822 111.187L204.208 113.314Z" fill="#BC8F3F"/>
<path d="M205.969 114.605L204.181 113.618L202.421 112.352L204.208 113.314L205.969 114.605Z" fill="#BC8F3F"/>
<path d="M208.236 107.895L209.65 109.642L212.29 108.882L210.557 112.098L210.77 114.908L208.262 115.161L205.755 117.668L205.968 114.604L204.208 113.313L206.822 111.186L208.236 107.895Z" fill="#FFD255"/>
<path d="M199.913 114.959L198.152 113.997L200.793 113.237L202.554 114.225L199.913 114.959Z" fill="#BC8F3F"/>
<path d="M196.018 123.01L194.258 122.023L194.445 118.959L196.232 119.946L196.018 123.01Z" fill="#BC8F3F"/>
<path d="M197.085 116.529L195.325 115.542L196.739 112.25L198.499 113.212L197.085 116.529Z" fill="#BC8F3F"/>
<path d="M194.445 118.654L192.684 117.692L195.325 115.54L197.086 116.528L194.445 118.654Z" fill="#BC8F3F"/>
<path d="M196.232 119.946L194.445 118.958L192.684 117.692L194.445 118.655L196.232 119.946Z" fill="#BC8F3F"/>
<path d="M198.499 113.211L199.913 114.958L202.554 114.224L200.82 117.439L201.034 120.25L198.526 120.503L196.019 123.01L196.232 119.946L194.445 118.655L197.086 116.528L198.499 113.211Z" fill="#FFD255"/>
<path d="M190.176 120.302L188.416 119.34L191.057 118.58L192.817 119.542L190.176 120.302Z" fill="#BC8F3F"/>
<path d="M186.282 128.354L184.521 127.366L184.708 124.303L186.495 125.29L186.282 128.354Z" fill="#BC8F3F"/>
<path d="M187.349 121.845L185.588 120.882L187.002 117.591L188.763 118.553L187.349 121.845Z" fill="#BC8F3F"/>
<path d="M184.708 123.999L182.948 123.012L185.588 120.885L187.349 121.847L184.708 123.999Z" fill="#BC8F3F"/>
<path d="M186.495 125.288L184.708 124.3L182.948 123.009L184.708 123.996L186.495 125.288Z" fill="#805525"/>
<path d="M188.763 118.555L190.177 120.302L192.818 119.542L191.057 122.758L191.297 125.594L188.79 125.822L186.282 128.354L186.495 125.29L184.708 123.999L187.349 121.846L188.763 118.555Z" fill="#FFD255"/>
<path d="M220.133 139.723L221.894 140.71C221.6 140.533 221.174 140.558 220.693 140.811L218.933 139.824C219.386 139.571 219.813 139.545 220.133 139.723Z" fill="#D0E2F7"/>
<path d="M186.255 159.701L184.495 158.738L218.933 139.85L220.72 140.812L186.255 159.701Z" fill="#C0D5EB"/>
<path d="M185.081 163.472L183.321 162.485C183.027 162.307 182.841 161.978 182.841 161.472C182.841 160.459 183.587 159.244 184.521 158.712L186.282 159.699C185.348 160.206 184.601 161.446 184.601 162.459C184.601 162.966 184.788 163.32 185.081 163.472Z" fill="#BFC1C0"/>
<path d="M220.72 140.811C221.654 140.304 222.401 140.71 222.401 141.722C222.401 142.735 221.654 143.95 220.72 144.482L186.255 163.371C185.322 163.878 184.575 163.472 184.575 162.46C184.575 161.447 185.322 160.231 186.255 159.7L220.72 140.811Z" fill="#D4E8FF"/>
<path d="M220.107 131.315L221.867 132.303C221.574 132.126 221.147 132.151 220.667 132.404L218.906 131.417C219.36 131.164 219.786 131.138 220.107 131.315Z" fill="#D0E2F7"/>
<path d="M186.229 151.292L184.468 150.305L218.933 131.416L220.693 132.404L186.229 151.292Z" fill="#C0D5EB"/>
<path d="M185.055 155.066L183.294 154.078C183.001 153.901 182.814 153.547 182.814 153.066C182.814 152.053 183.561 150.812 184.495 150.306L186.255 151.293C185.322 151.8 184.575 153.04 184.575 154.053C184.575 154.559 184.761 154.914 185.055 155.066Z" fill="#BFC1C0"/>
<path d="M220.693 132.406C221.627 131.899 222.374 132.304 222.374 133.317C222.374 134.33 221.627 135.545 220.693 136.077L186.228 154.966C185.295 155.472 184.548 155.067 184.548 154.054C184.548 153.041 185.295 151.801 186.228 151.294L220.693 132.406Z" fill="#D4E8FF"/>
<path d="M220.08 122.91L221.841 123.898C221.547 123.72 221.12 123.746 220.64 123.999L218.88 123.011C219.333 122.758 219.76 122.733 220.08 122.91Z" fill="#D0E2F7"/>
<path d="M186.202 142.86L184.441 141.898L218.906 123.009L220.667 123.996L186.202 142.86Z" fill="#C0D5EB"/>
<path d="M185.028 146.635L183.267 145.648C182.974 145.47 182.787 145.116 182.787 144.635C182.787 143.622 183.534 142.407 184.468 141.875L186.228 142.862C185.295 143.369 184.548 144.61 184.548 145.622C184.548 146.129 184.735 146.483 185.028 146.635Z" fill="#BFC1C0"/>
<path d="M220.667 123.998C221.6 123.492 222.347 123.897 222.347 124.91C222.347 125.923 221.6 127.138 220.667 127.67L186.202 146.559C185.268 147.065 184.521 146.66 184.521 145.647C184.521 144.634 185.268 143.419 186.202 142.887L220.667 123.998Z" fill="#D4E8FF"/>
<path d="M216.879 116.225L218.639 117.212C218.346 117.035 217.919 117.06 217.439 117.313L215.678 116.326C216.159 116.073 216.559 116.047 216.879 116.225Z" fill="#D0E2F7"/>
<path d="M189.376 132.708L187.589 131.746L215.679 116.352L217.466 117.314L189.376 132.708Z" fill="#C0D5EB"/>
<path d="M188.176 136.481L186.415 135.493C186.122 135.316 185.935 134.987 185.935 134.481C185.935 133.468 186.682 132.227 187.616 131.721L189.376 132.708C188.443 133.215 187.696 134.455 187.696 135.468C187.696 135.975 187.882 136.329 188.176 136.481Z" fill="#C0D5EB"/>
<path d="M217.466 117.314C218.399 116.807 219.146 117.212 219.146 118.225C219.146 119.238 218.399 120.479 217.466 120.985L189.376 136.38C188.443 136.886 187.696 136.481 187.696 135.468C187.696 134.456 188.443 133.215 189.376 132.708L217.466 117.314Z" fill="#D4E8FF"/>
<path d="M214.158 65.2554L217.359 67.0278C214.105 65.2301 209.623 65.4833 204.661 68.2178L201.46 66.4454C206.422 63.7362 210.903 63.483 214.158 65.2554Z" fill="#4453A1"/>
<mask id="mask2_2119_13272" style="mask-type:luminance" maskUnits="userSpaceOnUse" x="201" y="64" width="17" height="5">
<path d="M214.158 65.2573L217.359 67.0298C214.105 65.232 209.623 65.4852 204.661 68.2198L201.46 66.4474C206.422 63.7381 210.903 63.4849 214.158 65.2573Z" fill="white"/>
</mask>
<g mask="url(#mask2_2119_13272)">
<path d="M204.661 68.1944L201.46 66.422C206.422 63.7127 210.903 63.4595 214.158 65.2319L217.359 67.0044C214.105 65.2066 209.623 65.4598 204.661 68.1944Z" fill="#4453A1"/>
</g>
<path d="M192.097 108.301L188.896 106.528C185.695 104.756 183.694 101.008 183.694 95.6658C183.668 84.9047 191.617 71.8141 201.487 66.4209L204.688 68.1933C194.845 73.5865 186.869 86.6771 186.895 97.4382C186.895 102.781 188.896 106.528 192.097 108.301Z" fill="#4453A1"/>
<mask id="mask3_2119_13272" style="mask-type:luminance" maskUnits="userSpaceOnUse" x="183" y="66" width="22" height="43">
<path d="M192.097 108.299L188.896 106.526C185.695 104.754 183.694 101.006 183.694 95.6638C183.668 84.9027 191.617 71.8122 201.487 66.4189L204.688 68.1914C194.845 73.5846 186.869 86.6751 186.895 97.4362C186.895 102.779 188.896 106.526 192.097 108.299Z" fill="white"/>
</mask>
<g mask="url(#mask3_2119_13272)">
<path d="M192.097 108.299L188.896 106.526C185.695 104.754 183.694 101.006 183.694 95.6638C183.668 84.9027 191.617 71.8122 201.487 66.4189L204.688 68.1914C194.845 73.5846 186.869 86.6751 186.895 97.4362C186.895 102.779 188.896 106.526 192.097 108.299Z" fill="#4453A1"/>
</g>
<path d="M186.895 97.4356C186.895 103.082 189.136 106.981 192.684 108.602C195.858 110.07 200.126 109.691 204.795 107.133C209.489 104.551 213.784 100.221 216.959 95.2328C220.426 89.7636 222.614 83.5095 222.587 77.8884C222.56 67.1526 214.531 62.7975 204.688 68.1908C194.818 73.584 186.869 86.6998 186.895 97.4356Z" fill="#6B80E4"/>
<path d="M124.688 221.228L121.487 219.455C119.966 218.62 119.006 216.822 119.006 214.265L122.207 216.037C122.207 218.594 123.167 220.392 124.688 221.228Z" fill="#4453A1"/>
<path d="M177.399 61.5586L174.198 59.7862C176.145 58.7228 177.932 58.4443 179.373 58.8494L182.574 60.6218C181.134 60.2167 179.346 60.4952 177.399 61.5586Z" fill="#3262A9"/>
<path d="M165.208 68.2422L162.034 66.4698L174.198 59.8105L177.399 61.5576L165.208 68.2422Z" fill="#4453A1"/>
<path d="M186.282 180.945L185.935 66.1938C185.935 61.0538 182.094 59.0029 177.399 61.5602L165.208 68.2448L130.343 87.3362C125.648 89.9189 121.834 96.173 121.86 101.288L122.207 216.039C122.207 221.179 126.048 223.23 130.743 220.673L177.772 194.897C182.441 192.339 186.229 186.161 186.255 181.046C186.255 181.021 186.255 180.97 186.255 180.945H186.282Z" fill="white"/>
<path d="M122.207 216.063L119.033 214.29L118.686 99.5391L121.887 101.286L122.207 216.063Z" fill="#4453A1"/>
<path d="M130.37 87.3346L127.169 85.5875L162.034 66.4707L165.208 68.2431L130.37 87.3346Z" fill="#4453A1"/>
<path d="M121.887 101.286L118.686 99.5139C118.686 94.3739 122.474 88.1452 127.169 85.5625L130.37 87.3349C125.675 89.9176 121.86 96.1464 121.887 101.286Z" fill="#849DEE"/>
<path d="M140.053 153.724L138.266 152.762L141.44 151.851L143.201 152.838L140.053 153.724Z" fill="#BC8F3F"/>
<path d="M135.358 163.371L133.597 162.383L133.837 158.712L135.598 159.699L135.358 163.371Z" fill="#BC8F3F"/>
<path d="M136.639 155.598L134.878 154.61L136.559 150.66L138.346 151.648L136.639 155.598Z" fill="#BC8F3F"/>
<path d="M133.491 158.154L131.73 157.167L134.878 154.609L136.639 155.597L133.491 158.154Z" fill="#BC8F3F"/>
<path d="M135.598 159.701L133.838 158.713L131.73 157.169L133.491 158.156L135.598 159.701Z" fill="#BC8F3F"/>
<path d="M138.346 151.646L140.053 153.723L143.201 152.837L141.093 156.685L141.36 160.078L138.372 160.357L135.358 163.37L135.598 159.698L133.491 158.154L136.639 155.596L138.346 151.646Z" fill="#FFD255"/>
<path d="M151.71 147.343L149.95 146.356L153.097 145.444L154.885 146.432L151.71 147.343Z" fill="#BC8F3F"/>
<path d="M147.042 156.965L145.255 156.002L145.522 152.306L147.282 153.293L147.042 156.965Z" fill="#BC8F3F"/>
<path d="M148.322 149.19L146.562 148.228L148.242 144.253L150.003 145.24L148.322 149.19Z" fill="#BC8F3F"/>
<path d="M145.175 151.748L143.387 150.786L146.562 148.229L148.322 149.191L145.175 151.748Z" fill="#BC8F3F"/>
<path d="M147.282 153.295L145.521 152.307L143.387 150.788L145.175 151.75L147.282 153.295Z" fill="#BC8F3F"/>
<path d="M150.003 145.242L151.71 147.344L154.885 146.432L152.777 150.281L153.044 153.674L150.03 153.952L147.042 156.965L147.282 153.294L145.175 151.749L148.323 149.192L150.003 145.242Z" fill="#FFD255"/>
<path d="M163.394 140.937L161.634 139.95L164.781 139.063L166.569 140.026L163.394 140.937Z" fill="#BC8F3F"/>
<path d="M158.699 150.56L156.939 149.598L157.179 145.927L158.966 146.889L158.699 150.56Z" fill="#BC8F3F"/>
<path d="M160.006 142.81L158.219 141.823L159.926 137.873L161.687 138.835L160.006 142.81Z" fill="#BC8F3F"/>
<path d="M156.832 145.369L155.071 144.382L158.219 141.824L160.006 142.812L156.832 145.369Z" fill="#BC8F3F"/>
<path d="M158.966 146.887L157.179 145.924L155.071 144.38L156.832 145.367L158.966 146.887Z" fill="#BC8F3F"/>
<path d="M161.687 138.836L163.394 140.938L166.569 140.026L164.461 143.875L164.728 147.293L161.714 147.571L158.699 150.559L158.966 146.888L156.832 145.369L160.006 142.811L161.687 138.836Z" fill="#FFD255"/>
<path d="M175.078 134.532L173.291 133.57L176.465 132.658L178.226 133.646L175.078 134.532Z" fill="#BC8F3F"/>
<path d="M170.383 144.177L168.623 143.19L168.863 139.519L170.623 140.506L170.383 144.177Z" fill="#BC8F3F"/>
<path d="M171.664 136.405L169.903 135.418L171.584 131.468L173.371 132.455L171.664 136.405Z" fill="#BC8F3F"/>
<path d="M168.516 138.962L166.755 137.974L169.903 135.417L171.664 136.404L168.516 138.962Z" fill="#BC8F3F"/>
<path d="M170.623 140.507L168.863 139.519L166.755 137.975L168.516 138.962L170.623 140.507Z" fill="#BC8F3F"/>
<path d="M173.371 132.455L175.078 134.531L178.226 133.645L176.118 137.494L176.385 140.887L173.398 141.165L170.383 144.178L170.623 140.507L168.516 138.962L171.664 136.405L173.371 132.455Z" fill="#FFD255"/>
<path d="M176.305 177.221L178.066 178.208C177.692 178.006 177.185 178.031 176.625 178.335L174.865 177.347C175.425 177.043 175.932 177.018 176.305 177.221Z" fill="#D0E2F7"/>
<path d="M176.652 178.31C177.772 177.702 178.653 178.183 178.679 179.398C178.679 180.614 177.772 182.082 176.679 182.69L135.385 205.326C134.265 205.934 133.384 205.453 133.358 204.237C133.358 203.022 134.238 201.554 135.358 200.946L176.652 178.31Z" fill="#D4E8FF"/>
<path d="M176.279 167.119L178.039 168.107C177.666 167.904 177.159 167.929 176.599 168.233L174.838 167.246C175.398 166.942 175.905 166.917 176.279 167.119Z" fill="#D0E2F7"/>
<path d="M176.625 168.231C177.746 167.624 178.626 168.105 178.653 169.32C178.653 170.536 177.746 172.004 176.652 172.612L135.358 195.248C134.238 195.856 133.358 195.375 133.331 194.159C133.304 192.944 134.211 191.475 135.332 190.868L176.625 168.231Z" fill="#D4E8FF"/>
<path d="M176.252 157.04L178.012 158.028C177.639 157.825 177.132 157.85 176.572 158.154L174.811 157.167C175.371 156.863 175.878 156.838 176.252 157.04Z" fill="#D0E2F7"/>
<path d="M176.572 158.155C177.692 157.548 178.572 158.029 178.599 159.244C178.599 160.459 177.692 161.928 176.598 162.536L135.278 185.172C134.158 185.78 133.277 185.299 133.251 184.083C133.251 182.868 134.131 181.399 135.251 180.792L176.545 158.155H176.572Z" fill="#D4E8FF"/>
<path d="M172.411 149.041L174.171 150.029C173.798 149.826 173.291 149.851 172.731 150.155L170.97 149.168C171.53 148.864 172.037 148.838 172.411 149.041Z" fill="#D0E2F7"/>
<path d="M135.331 200.946L133.571 199.984L174.865 177.348L176.652 178.31L135.331 200.946Z" fill="#C0D5EB"/>
<path d="M133.918 205.479L132.157 204.491C131.783 204.289 131.57 203.858 131.57 203.276C131.57 202.061 132.45 200.592 133.571 199.984L135.331 200.972C134.211 201.58 133.331 203.048 133.331 204.263C133.331 204.871 133.544 205.276 133.918 205.479Z" fill="#C0D5EB"/>
<path d="M135.305 190.867L133.544 189.905L174.838 167.269L176.625 168.231L135.305 190.867Z" fill="#C0D5EB"/>
<path d="M133.891 195.402L132.13 194.414C131.757 194.212 131.544 193.781 131.544 193.199C131.544 191.983 132.424 190.515 133.544 189.907L135.305 190.895C134.184 191.502 133.304 192.971 133.304 194.186C133.304 194.794 133.518 195.199 133.891 195.402Z" fill="#C0D5EB"/>
<path d="M135.278 180.792L133.517 179.804L174.811 157.168L176.572 158.155L135.278 180.792Z" fill="#C0D5EB"/>
<path d="M133.864 185.299L132.104 184.312C131.73 184.109 131.517 183.679 131.517 183.096C131.517 181.881 132.397 180.412 133.518 179.805L135.278 180.792C134.158 181.4 133.277 182.868 133.277 184.084C133.277 184.691 133.491 185.122 133.864 185.299Z" fill="#C0D5EB"/>
<path d="M139.066 168.612L137.279 167.624L170.97 149.166L172.731 150.154L139.066 168.612Z" fill="#C0D5EB"/>
<path d="M137.652 173.119L135.891 172.131C135.518 171.928 135.305 171.498 135.305 170.916C135.305 169.7 136.212 168.232 137.305 167.624L139.066 168.612C137.945 169.219 137.065 170.688 137.065 171.903C137.065 172.511 137.279 172.916 137.652 173.119Z" fill="#C0D5EB"/>
<path d="M172.731 150.153C173.851 149.546 174.758 150.027 174.758 151.242C174.758 152.457 173.851 153.926 172.757 154.534L139.066 172.992C137.946 173.6 137.065 173.119 137.039 171.903C137.039 170.688 137.946 169.219 139.039 168.612L172.731 150.153Z" fill="#D4E8FF"/>
<path d="M169.129 87.9165L172.331 89.6889C168.436 87.5367 163.047 87.8406 157.099 91.1069L153.898 89.3345C159.846 86.0681 165.235 85.7643 169.129 87.9165Z" fill="#4453A1"/>
<mask id="mask4_2119_13272" style="mask-type:luminance" maskUnits="userSpaceOnUse" x="153" y="86" width="20" height="6">
<path d="M169.129 87.9146L172.331 89.687C168.436 87.5348 163.047 87.8386 157.099 91.1049L153.898 89.3325C159.846 86.0662 165.235 85.7623 169.129 87.9146Z" fill="white"/>
</mask>
<g mask="url(#mask4_2119_13272)">
<path d="M157.125 91.1049L153.924 89.3325C159.873 86.0662 165.261 85.7623 169.156 87.9146L172.357 89.687C168.463 87.5348 163.074 87.8386 157.125 91.1049Z" fill="#4453A1"/>
</g>
<path d="M142.027 139.19L138.826 137.417C134.985 135.29 132.611 130.783 132.584 124.403C132.557 111.515 142.08 95.816 153.898 89.334L157.099 91.1064C145.282 97.5884 135.732 113.287 135.785 126.15C135.785 132.556 138.186 137.063 142.027 139.164V139.19Z" fill="#4453A1"/>
<mask id="mask5_2119_13272" style="mask-type:luminance" maskUnits="userSpaceOnUse" x="132" y="89" width="26" height="51">
<path d="M142.027 139.19L138.826 137.417C134.985 135.29 132.611 130.783 132.584 124.403C132.557 111.515 142.08 95.816 153.898 89.334L157.099 91.1064C145.282 97.5884 135.732 113.287 135.785 126.15C135.785 132.556 138.186 137.063 142.027 139.164V139.19Z" fill="white"/>
</mask>
<g mask="url(#mask5_2119_13272)">
<path d="M142.027 139.19L138.826 137.417C134.985 135.29 132.611 130.783 132.584 124.403C132.557 111.515 142.08 95.816 153.898 89.334L157.099 91.1064C145.282 97.5884 135.732 113.287 135.785 126.15C135.785 132.556 138.186 137.063 142.027 139.164V139.19Z" fill="#4453A1"/>
</g>
<path d="M135.785 126.15C135.785 133.721 139.119 138.633 144.268 140.102C147.869 141.14 152.377 140.456 157.259 137.772C163.421 134.379 168.969 128.505 172.837 121.82C176.412 115.693 178.599 108.882 178.573 102.704C178.519 89.8157 168.943 84.6251 157.099 91.0817C145.281 97.5637 135.758 113.262 135.785 126.125V126.15Z" fill="#6B80E4"/>
<path d="M78.0855 167.548V170.891C81.3133 172.612 85.7681 172.334 90.6764 169.65C95.2913 167.143 99.4527 162.94 102.6 158.079C101.453 153.496 96.4383 151.267 90.463 153.04C83.6074 155.065 78.0588 161.547 78.0588 167.523L78.0855 167.548Z" fill="#202459"/>
<path d="M93.1838 154.407C95.0511 155.192 95.4779 156.914 94.8377 158.306C94.1975 159.699 90.7564 160.155 89.3426 159.826C87.9287 159.496 85.2345 157.927 86.1148 156.306C86.9951 154.686 86.755 154.711 87.1018 154.483C87.4486 154.28 93.1838 154.382 93.1838 154.382V154.407Z" fill="#FFA273"/>
<path d="M92.7307 142.28C92.8107 143.344 92.1971 143.901 91.3169 143.546C90.4366 143.192 89.663 142.027 89.5829 140.963C89.5029 139.9 90.1164 139.343 90.9967 139.697C91.8504 140.052 92.6506 141.217 92.7307 142.28Z" fill="#8F8AA0"/>
<path d="M92.4639 142.154C92.544 143.04 92.0105 143.496 91.2902 143.192C90.57 142.888 89.9298 141.926 89.8764 141.065C89.8231 140.204 90.3299 139.723 91.0501 140.027C91.7704 140.331 92.4106 141.293 92.4639 142.154Z" fill="#B7B4C2"/>
<path d="M91.9838 141.95C92.0371 142.507 91.6903 142.811 91.2369 142.608C90.7834 142.406 90.3832 141.823 90.3299 141.266C90.2765 140.709 90.6233 140.405 91.0768 140.608C91.5303 140.81 91.9304 141.393 91.9838 141.95Z" fill="#D4D2DA"/>
<path d="M93.8244 155.04L92.3305 154.103C91.5569 153.622 90.5966 153.572 89.7697 153.952L87.0754 154.483C86.7553 154.635 86.6753 155.8 86.9687 155.977L88.4626 156.914C89.2362 157.395 92.0371 157.344 92.864 156.965L94.0378 156.408C94.3579 156.256 94.0911 155.192 93.7977 155.015L93.8244 155.04Z" fill="#FFA273"/>
<path d="M86.8086 155.219L86.9153 153.396L89.7696 154.864L89.1827 156.611L86.8086 155.219Z" fill="#FFA273"/>
<path d="M90.5966 155.396C90.5966 155.396 86.8086 156.788 86.8086 155.244C86.8086 153.724 85.7416 152.509 85.0747 151.876C84.4078 151.243 83.2874 149.623 83.3675 148.483C83.4475 147.318 89.5295 145.369 90.6499 148.61C91.7703 151.851 90.5699 155.421 90.5699 155.421L90.5966 155.396Z" fill="#FFA273"/>
<path d="M97.2919 150.257C97.2919 150.257 97.2919 150.459 97.2919 150.561C97.2919 150.662 97.2919 150.763 97.2919 150.839C97.2919 150.94 97.2919 151.016 97.2919 151.118C97.2919 151.219 97.2919 151.295 97.2919 151.371C97.2919 151.371 97.2919 151.421 97.2919 151.447C97.2919 151.599 97.2919 151.725 97.2652 151.852V151.877C97.2652 151.953 97.2652 152.004 97.2652 152.054C97.2652 152.181 97.1852 152.333 97.1052 152.46C96.2782 153.903 92.4903 155.321 91.3699 154.84L90.9965 146.737C90.9965 146.737 90.9965 146.737 90.9698 146.737C90.6497 146.535 90.3829 146.256 90.1428 145.927C89.716 145.319 89.4226 144.585 89.4226 143.901L89.5293 139.014C89.5293 138.154 89.3426 138.103 90.1962 138.23C91.6367 138.432 93.8241 139.875 93.8241 139.875C95.1579 140.61 96.3316 142.18 96.8918 143.825C96.9185 143.901 96.9451 143.977 96.9718 144.079C96.9718 144.129 96.9985 144.205 97.0252 144.256C97.0252 144.306 97.0518 144.357 97.0785 144.408V144.458C97.0785 144.484 97.0785 144.509 97.0785 144.534C97.0785 144.585 97.0785 144.61 97.1052 144.661V144.712V144.762V144.813C97.1052 144.813 97.1052 144.838 97.1052 144.863C97.1052 144.889 97.1052 144.914 97.1052 144.939C97.1052 145.041 97.1052 145.142 97.1319 145.218C97.1319 145.269 97.1319 145.319 97.1319 145.37C97.1319 145.471 97.1319 145.572 97.1319 145.674C97.1319 145.674 97.0785 145.851 97.0518 145.927C97.0518 146.003 96.9985 146.079 96.9985 146.155C96.9985 146.281 97.0518 146.585 97.1052 147.066C97.1319 147.269 97.1585 147.497 97.2119 147.775C97.2119 147.826 97.2119 147.902 97.2119 147.953C97.2386 148.662 97.2652 149.446 97.2386 150.181L97.2919 150.257Z" fill="#FFBC99"/>
<path d="M90.0896 138.253C89.1026 138.126 87.6087 138.076 85.9282 139.063C85.1279 139.519 83.9542 140.051 83.3406 142C83.1806 142.532 83.1006 143.115 83.0205 143.899C82.9939 144.229 86.5417 145.241 89.3427 144.532C92.1436 143.824 91.4233 139.317 91.4233 139.317L90.1162 138.253H90.0896Z" fill="#FFBC99"/>
<path d="M91.29 154.891L90.7298 154.638L85.8482 150.106L85.0212 149.599C84.1409 149.042 83.4474 147.801 83.4207 146.738L83.2073 142.434C83.3673 141.902 83.9542 140.585 84.6744 140.99L87.7688 142.712C89.6361 143.75 91.1566 146.383 91.1833 148.586L91.2366 154.891H91.29Z" fill="#FFBC99"/>
<path d="M85.9283 139.091C84.1944 140.078 82.4071 141.243 82.4071 143.37C82.4071 144.433 82.3271 145.775 82.4338 146.813C82.5405 147.852 86.1684 144.889 86.1684 144.889L85.9283 139.091Z" fill="#FFBC99"/>
<path d="M97.0253 152.486C96.7585 154.841 95.9849 155.929 95.6115 156.157C95.238 156.36 94.6245 156.613 94.4111 156.714C93.0773 157.271 88.5691 155.676 87.9822 155.22C87.3687 154.739 86.7552 152.157 86.5951 151.498C86.4351 150.84 85.1546 150.334 84.0609 149.701C82.9672 149.068 82.5404 148.789 82.4337 147.017C82.4337 147.017 85.0746 147.27 88.1156 147.093C89.0226 147.042 89.9829 146.941 90.8899 146.789C91.0766 146.763 91.29 146.713 91.4767 146.687C94.4111 146.13 96.8652 144.181 96.8919 144.333C96.8919 144.358 96.8919 144.409 96.9186 144.459V144.51C96.9186 144.561 96.9186 144.611 96.9452 144.662C96.9452 144.687 96.9452 144.738 96.9452 144.763C96.9452 144.814 96.9452 144.839 96.9452 144.89C96.9452 144.89 96.9452 144.915 96.9452 144.94C96.9452 145.016 96.9719 145.067 96.9986 145.143C96.9986 145.269 97.0253 145.396 97.0519 145.523C97.0519 145.599 97.0519 145.675 97.0519 145.751C97.0519 145.852 96.9986 145.928 96.9719 146.004C96.9719 146.08 96.9186 146.156 96.9186 146.232C96.9186 146.358 96.9719 146.662 97.0253 147.143C96.9719 147.7 96.8919 148.409 96.9186 148.662C96.9186 148.688 96.9186 148.713 96.9186 148.764C96.9719 149.219 97.132 150.308 96.9186 152.486H97.0253Z" fill="#FFBC99"/>
<path d="M86.5153 148.562C85.8484 148.334 82.5139 147.625 82.4339 146.992C82.1671 144.333 83.0741 141.826 83.8744 140.839C84.0878 141.092 84.2478 141.396 84.8347 141.725L87.5023 143.194C89.2362 144.156 90.65 146.587 90.6767 148.637C90.6767 148.637 90.6233 149.929 86.5153 148.562Z" fill="#FFBC99"/>
<path d="M97.2921 150.257C97.2921 150.257 97.2921 150.459 97.2921 150.56C97.2921 150.662 97.2921 150.763 97.2921 150.839C97.2921 150.94 97.2921 151.016 97.2921 151.117C97.2921 151.219 97.2921 151.295 97.2921 151.371C97.2921 151.371 97.2921 151.421 97.2921 151.447C97.2921 151.599 97.2921 151.725 97.2654 151.852V151.877C97.2388 152.029 97.1854 152.232 97.0787 152.485C97.0254 152.662 96.9453 152.865 96.8653 153.067C96.5452 153.852 96.0917 154.764 95.8783 154.991C95.7716 155.118 95.4515 155.346 94.7046 155.65C93.9043 156.004 92.7839 156.308 91.9036 155.979C91.1834 155.726 90.1964 154.89 89.4495 153.725C88.5425 152.282 87.7956 150.56 87.7689 149.548C87.7689 149.497 87.7689 149.421 87.7689 149.37C87.8223 148.585 87.7156 147.775 88.1691 147.066C88.3558 146.762 88.7826 146.281 89.1027 146.18C89.3695 146.079 89.6896 146.003 90.0097 145.952C90.0363 145.952 90.063 145.952 90.0897 145.952C90.2498 145.927 90.4098 145.901 90.5699 145.876C90.9967 145.825 91.4502 145.775 91.957 145.699C92.6772 145.598 93.6376 145.268 94.4378 144.99C95.6382 144.559 96.3318 144.357 96.8386 143.825C96.8653 143.901 96.892 143.977 96.9187 144.078C96.9187 144.129 96.9453 144.205 96.972 144.256C96.972 144.306 96.9987 144.357 97.0254 144.408V144.458C97.0254 144.484 97.0254 144.509 97.0254 144.534C97.0254 144.585 97.0254 144.61 97.052 144.661C97.052 144.711 97.052 144.737 97.052 144.787C97.052 144.813 97.052 144.863 97.052 144.889C97.052 144.914 97.052 144.939 97.052 144.965C97.052 145.066 97.052 145.167 97.0787 145.243C97.0787 145.294 97.0787 145.344 97.0787 145.395C97.0787 145.496 97.0787 145.598 97.0787 145.699C97.0787 145.699 97.0254 145.876 96.9987 145.952C96.9987 146.028 96.9453 146.104 96.9453 146.18C96.9453 146.307 96.9987 146.61 97.052 147.091C97.0787 147.294 97.1054 147.522 97.1587 147.8C97.1587 147.851 97.1587 147.927 97.1587 147.978C97.1854 148.687 97.2121 149.472 97.1854 150.206L97.2921 150.257Z" fill="#FFBC99"/>
<path d="M94.9979 148.28C95.1046 148.811 95.1847 148.938 95.3714 149.292C95.5581 149.647 96.2517 150.964 96.3584 151.166C96.5184 151.445 96.5985 151.723 96.0116 151.976C95.4781 152.23 94.9179 152.103 94.4644 152.002C94.1443 151.926 93.9309 151.495 93.9843 151.191C94.0376 150.888 94.1977 150.508 94.1977 150.508C94.1977 150.508 93.8776 148.254 93.8776 147.9C94.1443 147.216 94.7845 147.419 94.7845 147.419L94.9979 148.28Z" fill="#FFBC99"/>
<path d="M95.3981 154.433C94.9713 154.661 94.7579 154.889 94.1443 154.813C93.5308 154.737 93.5842 154.509 93.1573 154.408C94.1977 153.978 95.6115 152.914 95.6382 153.142C95.6649 153.37 95.8249 154.104 95.3981 154.408V154.433Z" fill="#FFBC99"/>
<path d="M95.5581 153.42C95.5581 153.42 95.4514 153.597 95.3447 153.648C95.1846 153.724 94.9712 153.749 94.6511 153.876C94.0643 154.103 94.0109 154.179 93.184 154.382C93.6908 153.749 94.1176 153.521 94.3043 153.445C94.4911 153.369 94.8645 153.47 95.0513 153.192C95.2913 152.989 95.5314 153.091 95.6648 153.04C95.7448 153.192 95.5848 153.395 95.5848 153.395L95.5581 153.42Z" fill="#FFBC99"/>
<path d="M87.5822 149.774V150.23C87.5822 150.23 88.996 150.913 89.0227 150.23C89.076 149.166 89.3428 145.9 90.3565 145.9C91.3435 145.9 92.8106 146.027 94.3044 145.394C96.9187 144.279 96.7853 143.646 96.8653 143.469C97.0787 143.013 97.6656 142.153 96.7319 140.557C95.7983 138.937 92.5705 137.671 89.8763 137.646C87.1821 137.646 84.5945 139.19 83.5542 140.253C82.5138 141.317 81.9536 143.216 82.0337 144.431C82.087 145.672 81.6602 147.343 82.8339 149.774C84.0077 152.205 85.9016 152.711 85.9016 152.711C85.9016 152.711 86.115 152.306 85.7949 151.926C84.9146 150.913 83.5809 147.672 85.1814 147.343C86.7819 146.989 87.1554 147.647 87.5822 149.774Z" fill="#706342"/>
<path d="M86.435 147.874C85.3946 146.684 83.7674 147.595 84.3543 149.241C84.9411 150.887 85.1279 151.545 86.0882 151.596C86.5417 151.621 86.9418 151.469 86.8885 150.659C86.8351 149.849 86.9151 148.456 86.4083 147.874H86.435Z" fill="#FFCCB2"/>
<path d="M192.684 105.491V108.58C195.858 110.048 200.127 109.668 204.795 107.111C209.49 104.528 213.784 100.199 216.959 95.2106C215.438 91.21 210.69 89.3363 205.088 91.0327C198.233 93.0583 192.684 99.5403 192.684 105.516V105.491Z" fill="#202459"/>
<path d="M207.782 92.3739C209.65 93.1588 210.076 94.8806 209.436 96.2732C208.796 97.6658 205.355 98.1216 203.941 97.7924C202.527 97.4632 199.833 95.8934 200.713 94.2729C201.593 92.6524 201.353 92.6777 201.7 92.4498C202.047 92.2473 207.782 92.3486 207.782 92.3486V92.3739Z" fill="#FFA273"/>
<path d="M208.876 92.9561C210.05 93.7663 210.21 93.9182 210.637 95.6653C211.063 97.3871 210.103 98.3746 208.956 99.1089C208.476 98.0454 207.676 97.5137 207.676 97.5137L207.569 97.1339C207.569 97.1339 210.157 94.8298 208.876 92.9561Z" fill="#313786"/>
<path d="M201.38 92.8538C200.9 94.0691 201.487 96.0188 204.021 96.8291C206.422 97.5887 207.569 97.1329 207.569 97.1329L207.676 97.5127C207.676 97.5127 207.676 99.1585 207.622 99.7409C205.088 100.45 202.661 99.8928 200.98 98.1457C199.3 96.3986 199.62 94.9554 200.02 94.1957C200.42 93.4361 201.247 92.2461 201.247 92.2461C201.247 92.2461 201.354 92.4993 201.354 92.8285L201.38 92.8538Z" fill="#313786"/>
<path d="M207.329 80.2195C207.409 81.283 206.796 81.84 205.915 81.4855C205.035 81.131 204.261 79.9663 204.181 78.9029C204.101 77.8394 204.715 77.2824 205.595 77.6369C206.475 77.9913 207.249 79.1561 207.329 80.2195Z" fill="#8F8AA0"/>
<path d="M207.062 80.1183C207.142 81.0045 206.609 81.4603 205.889 81.1565C205.168 80.8526 204.528 79.8905 204.475 79.0296C204.395 78.1434 204.928 77.6876 205.622 77.9914C206.342 78.2953 206.982 79.2574 207.036 80.1183H207.062Z" fill="#B7B4C2"/>
<path d="M206.582 79.9147C206.636 80.4717 206.289 80.7756 205.835 80.573C205.382 80.3705 204.982 79.7881 204.928 79.2311C204.875 78.674 205.222 78.3702 205.675 78.5727C206.129 78.7753 206.529 79.3577 206.582 79.9147Z" fill="#D4D2DA"/>
<path d="M208.396 93.0052L206.902 92.0683C206.128 91.5872 205.168 91.5366 204.341 91.9164L201.647 92.4481C201.327 92.6 201.247 93.7648 201.54 93.942L203.034 94.8788C203.808 95.3599 206.609 95.3093 207.436 94.9295L208.609 94.3724C208.929 94.2205 208.663 93.1571 208.369 92.9798L208.396 93.0052Z" fill="#FFA273"/>
<path d="M201.407 93.1824L201.514 91.3594L204.368 92.8279L203.781 94.575L201.407 93.1824Z" fill="#FFA273"/>
<path d="M205.195 93.3614C205.195 93.3614 201.407 94.754 201.407 93.2095C201.407 91.6903 200.34 90.4749 199.673 89.8419C199.006 89.2089 197.886 87.5884 197.966 86.449C198.046 85.2842 204.128 83.3346 205.248 86.5756C206.369 89.8166 205.168 93.3867 205.168 93.3867L205.195 93.3614Z" fill="#FFA273"/>
<path d="M211.891 88.2196C211.891 88.2196 211.891 88.4221 211.891 88.5234C211.891 88.6247 211.891 88.726 211.891 88.8019C211.891 88.9032 211.891 88.9792 211.891 89.0805C211.891 89.1817 211.891 89.2577 211.891 89.3337C211.891 89.3337 211.891 89.3843 211.891 89.4096C211.891 89.5615 211.891 89.6881 211.864 89.8147V89.8401C211.864 89.8907 211.864 89.9667 211.864 90.0173C211.864 90.1692 211.784 90.2958 211.704 90.4224C210.877 91.8657 207.089 93.2836 205.969 92.8025L205.595 84.7001C205.595 84.7001 205.595 84.7001 205.568 84.7001C205.248 84.4975 204.982 84.219 204.741 83.8898C204.315 83.2821 204.021 82.5478 204.021 81.8642L204.128 76.9774C204.128 76.1165 203.941 76.0659 204.795 76.1925C206.235 76.395 208.423 77.8383 208.423 77.8383C209.756 78.5726 210.93 80.1424 211.49 81.7882C211.517 81.8642 211.544 81.9402 211.57 82.0414C211.57 82.0921 211.597 82.168 211.624 82.2187C211.624 82.2693 211.65 82.32 211.677 82.3706V82.4212C211.677 82.4466 211.677 82.4719 211.677 82.4972C211.677 82.5478 211.677 82.5732 211.704 82.6238V82.6744V82.7251C211.704 82.7757 211.704 82.7757 211.704 82.801C211.704 82.801 211.704 82.8264 211.704 82.8517C211.704 82.877 211.704 82.9023 211.704 82.9276C211.704 83.0289 211.704 83.1302 211.73 83.2062C211.73 83.2568 211.73 83.3074 211.73 83.3581C211.73 83.4594 211.73 83.5606 211.73 83.6619C211.73 83.6619 211.677 83.8392 211.65 83.9151C211.65 83.9911 211.597 84.0671 211.597 84.143C211.597 84.2696 211.65 84.5735 211.704 85.0545C211.73 85.2571 211.757 85.485 211.811 85.7635C211.811 85.8141 211.811 85.8901 211.811 85.9408C211.837 86.6497 211.864 87.4346 211.837 88.1689L211.891 88.2196Z" fill="#FFBC99"/>
<path d="M204.688 76.2169C203.701 76.0903 202.207 76.0397 200.527 77.0272C199.726 77.4829 198.553 78.0147 197.939 79.9643C197.779 80.4961 197.699 81.0784 197.619 81.8633C197.592 82.1925 201.14 83.2053 203.941 82.4963C206.742 81.8127 206.022 77.2804 206.022 77.2804L204.715 76.2169H204.688Z" fill="#FFBC99"/>
<path d="M205.889 92.8559L205.328 92.6027L200.447 88.0704L199.62 87.564C198.74 87.007 198.046 85.7663 198.019 84.7028L197.806 80.3984C197.966 79.8666 198.553 78.55 199.273 78.9551L202.367 80.6769C204.235 81.715 205.755 84.3483 205.782 86.5259L205.835 92.8306L205.889 92.8559Z" fill="#FFBC99"/>
<path d="M200.527 77.0303C198.793 78.0178 197.005 79.1825 197.005 81.3094C197.005 82.3728 196.925 83.7148 197.032 84.7529C197.139 85.7911 200.767 82.8286 200.767 82.8286L200.527 77.0303Z" fill="#FFBC99"/>
<path d="M211.624 90.4516C211.357 92.8063 210.583 93.8951 210.21 94.123C209.836 94.3256 209.223 94.5788 209.009 94.68C207.676 95.2371 203.167 93.6419 202.581 93.1861C201.967 92.7051 201.354 90.1224 201.193 89.4641C201.06 88.8057 199.753 88.2993 198.659 87.6663C197.566 87.0333 197.139 86.7548 197.032 84.9824C197.032 84.9824 199.673 85.2356 202.714 85.0584C203.621 85.0077 204.581 84.9064 205.488 84.7545C205.675 84.7292 205.888 84.6786 206.075 84.6532C209.009 84.0962 211.464 82.1465 211.49 82.2984C211.49 82.3238 211.49 82.3744 211.517 82.425V82.4757C211.517 82.5263 211.517 82.577 211.544 82.6276C211.544 82.6529 211.544 82.7036 211.544 82.7289C211.544 82.7795 211.544 82.8049 211.544 82.8555C211.544 82.8555 211.544 82.8808 211.544 82.9061C211.544 82.9821 211.57 83.0327 211.597 83.1087C211.597 83.2353 211.624 83.3619 211.65 83.4885C211.65 83.5645 211.65 83.6404 211.65 83.7164C211.65 83.8177 211.597 83.8936 211.57 83.9696C211.57 84.0455 211.517 84.1215 211.517 84.1975C211.517 84.3241 211.57 84.6279 211.624 85.109C211.57 85.666 211.49 86.375 211.517 86.6282C211.517 86.6535 211.517 86.6788 211.517 86.7295C211.57 87.1853 211.73 88.274 211.517 90.4516H211.624Z" fill="#FFBC99"/>
<path d="M201.114 86.5244C200.447 86.2965 197.112 85.5876 197.032 84.9546C196.766 82.2959 197.672 79.7892 198.473 78.8018C198.686 79.055 198.846 79.3588 199.433 79.688L202.101 81.1565C203.835 82.1187 205.248 84.5494 205.275 86.6004C205.275 86.6004 205.222 87.8917 201.114 86.5244Z" fill="#FFBC99"/>
<path d="M211.891 88.2204C211.891 88.2204 211.891 88.423 211.891 88.5242C211.891 88.6255 211.891 88.7268 211.891 88.8028C211.891 88.904 211.891 88.98 211.891 89.0813C211.891 89.1826 211.891 89.2585 211.891 89.3345C211.891 89.3345 211.891 89.3851 211.891 89.4105C211.891 89.5624 211.89 89.689 211.864 89.8156V89.8409C211.837 89.9928 211.784 90.1954 211.677 90.4486C211.624 90.6258 211.544 90.8284 211.464 91.0309C211.144 91.8159 210.69 92.7274 210.477 92.9553C210.37 93.0819 210.05 93.3098 209.303 93.6136C208.503 93.9681 207.382 94.2719 206.502 93.9428C205.782 93.6896 204.795 92.854 204.048 91.6893C203.141 90.246 202.394 88.5242 202.367 87.5114C202.367 87.4608 202.367 87.3848 202.367 87.3342C202.421 86.5493 202.314 85.739 202.767 85.0301C202.954 84.7262 203.381 84.2451 203.701 84.1438C203.968 84.0426 204.288 83.9666 204.608 83.916C204.635 83.916 204.661 83.916 204.688 83.916C204.848 83.8906 205.008 83.8653 205.168 83.84C205.595 83.7894 206.049 83.7387 206.555 83.6628C207.276 83.5615 208.236 83.2323 209.036 82.9538C210.237 82.5234 210.93 82.3208 211.437 81.7891C211.464 81.865 211.49 81.941 211.517 82.0423C211.517 82.0929 211.544 82.1689 211.57 82.2195C211.57 82.2701 211.597 82.3208 211.624 82.3714V82.4221C211.624 82.4474 211.624 82.4727 211.624 82.498C211.624 82.5487 211.624 82.574 211.65 82.6246C211.65 82.6753 211.65 82.7006 211.65 82.7512C211.65 82.7766 211.65 82.8272 211.65 82.8525C211.65 82.8778 211.65 82.9032 211.65 82.9285C211.65 83.0298 211.65 83.131 211.677 83.207C211.677 83.2576 211.677 83.3083 211.677 83.3589C211.677 83.4602 211.677 83.5615 211.677 83.6628C211.677 83.6628 211.624 83.84 211.597 83.916C211.597 83.9919 211.544 84.0679 211.544 84.1438C211.544 84.2704 211.597 84.5743 211.65 85.0554C211.677 85.2579 211.704 85.4858 211.757 85.7643C211.757 85.815 211.757 85.8909 211.757 85.9416C211.784 86.6505 211.81 87.4355 211.784 88.1698L211.891 88.2204Z" fill="#FFBC99"/>
<path d="M209.596 86.2454C209.703 86.7772 209.783 86.9038 209.97 87.2583C210.157 87.6127 210.85 88.9294 210.957 89.132C211.117 89.4105 211.197 89.689 210.61 89.9675C210.076 90.2207 209.516 90.0941 209.063 89.9928C208.743 89.9169 208.529 89.4864 208.583 89.1826C208.636 88.8788 208.796 88.4989 208.796 88.4989C208.796 88.4989 208.476 86.2454 208.476 85.891C208.743 85.2073 209.383 85.4099 209.383 85.4099L209.596 86.2708V86.2454Z" fill="#FFBC99"/>
<path d="M209.996 92.3737C209.57 92.6016 209.356 92.8295 208.743 92.7535C208.129 92.6776 208.183 92.4497 207.756 92.3484C208.796 91.918 210.21 90.8545 210.237 91.0824C210.263 91.3103 210.423 92.0446 209.996 92.3737Z" fill="#FFBC99"/>
<path d="M210.156 91.3857C210.156 91.3857 210.05 91.5629 209.943 91.6135C209.783 91.6895 209.57 91.7148 209.25 91.8414C208.663 92.0693 208.609 92.1453 207.782 92.3478C208.289 91.7148 208.716 91.4869 208.903 91.411C209.089 91.335 209.463 91.4363 209.65 91.1578C209.89 90.9552 210.13 91.0565 210.263 91.0059C210.343 91.1578 210.183 91.3603 210.183 91.3603L210.156 91.3857Z" fill="#FFBC99"/>
<path d="M202.181 87.7397V88.1955C202.181 88.1955 203.594 88.8791 203.621 88.1955C203.621 88.0689 203.621 87.917 203.648 87.7144C203.755 86.3724 204.075 83.8657 204.955 83.8657C205.942 83.8657 207.409 83.9923 208.903 83.3593C211.517 82.2452 211.384 81.6122 211.464 81.435C211.677 80.9792 212.024 80.7007 211.117 79.1055C210.21 77.5103 207.196 75.6366 204.501 75.6113C201.807 75.6113 199.22 77.1559 198.179 78.2193C197.139 79.2828 196.579 81.1818 196.659 82.3971C196.712 83.6378 196.285 85.309 197.459 87.7397C198.633 90.1705 200.527 90.6769 200.527 90.6769C200.527 90.6769 200.74 90.2717 200.42 89.8919C199.54 88.8791 198.206 85.6381 199.807 85.309C201.407 84.9798 201.781 85.6128 202.207 87.7397H202.181Z" fill="#FF9C00"/>
<path d="M201.033 85.8406C199.993 84.6505 198.366 85.5621 198.953 87.2079C199.54 88.8537 199.726 89.512 200.687 89.5626C201.14 89.588 201.54 89.436 201.487 88.6258C201.434 87.8156 201.514 86.4229 201.007 85.8406H201.033Z" fill="#FFCCB2"/>
<path d="M155.925 102.756C149.416 98.9832 142.08 102.933 147.815 115.593C150.003 122.05 145.922 123.291 143.787 121.366C145.575 126.405 152.564 130.456 156.832 122.987C161.1 115.517 155.925 102.756 155.925 102.756Z" fill="#191C45"/>
<path d="M152.991 101.691C150.59 100.754 146.855 103.919 148.963 107.413C151.07 110.908 152.991 101.691 152.991 101.691Z" fill="#D4E8FF"/>
<path d="M144.268 135.771V140.076C147.869 141.114 152.377 140.43 157.259 137.746C163.421 134.353 168.969 128.479 172.837 121.794C170.463 118.022 165.262 116.452 159.233 118.249C150.963 120.706 144.241 128.555 144.241 135.771H144.268Z" fill="#313786"/>
<path d="M162.514 119.895C164.781 120.857 165.288 122.933 164.515 124.63C163.741 126.326 159.58 126.883 157.872 126.478C156.165 126.073 152.911 124.199 153.978 122.25C155.018 120.3 154.751 120.3 155.178 120.047C155.578 119.794 162.541 119.92 162.541 119.92L162.514 119.895Z" fill="#FFA273"/>
<path d="M161.98 105.235C162.087 106.526 161.314 107.21 160.273 106.754C159.233 106.299 158.299 104.906 158.192 103.615C158.086 102.323 158.859 101.64 159.9 102.095C160.94 102.526 161.874 103.944 161.98 105.235Z" fill="#8F8AA0"/>
<path d="M161.66 105.084C161.74 106.147 161.127 106.704 160.246 106.35C159.366 105.995 158.619 104.831 158.513 103.767C158.432 102.704 159.046 102.147 159.926 102.501C160.78 102.856 161.554 104.02 161.66 105.084Z" fill="#B7B4C2"/>
<path d="M161.074 104.855C161.127 105.538 160.727 105.893 160.193 105.64C159.633 105.412 159.153 104.677 159.1 103.994C159.046 103.31 159.446 102.956 159.98 103.209C160.513 103.462 161.02 104.171 161.074 104.855Z" fill="#D4D2DA"/>
<path d="M163.287 120.681L161.5 119.542C160.593 118.96 159.393 118.884 158.406 119.365L155.151 120.023C154.778 120.2 154.671 121.618 155.018 121.846L156.805 122.985C157.712 123.568 161.153 123.517 162.14 123.036L163.581 122.378C163.954 122.201 163.634 120.909 163.287 120.681Z" fill="#FFA273"/>
<path d="M154.831 120.91L154.938 118.682L158.406 120.479L157.712 122.581L154.831 120.91Z" fill="#FFA273"/>
<path d="M159.393 121.087C159.393 121.087 154.831 122.759 154.831 120.885C154.831 119.037 153.551 117.568 152.724 116.808C151.897 116.023 150.563 114.099 150.67 112.706C150.776 111.314 158.139 108.959 159.473 112.858C160.806 116.758 159.393 121.087 159.393 121.087Z" fill="#FFA273"/>
<path d="M167.502 114.907C167.502 114.907 167.502 115.135 167.502 115.262C167.502 115.388 167.502 115.49 167.502 115.616C167.502 115.743 167.502 115.844 167.502 115.945C167.502 116.047 167.502 116.173 167.502 116.275C167.502 116.3 167.502 116.325 167.502 116.351C167.502 116.528 167.502 116.705 167.449 116.857V116.908C167.449 116.984 167.449 117.06 167.449 117.136C167.449 117.313 167.369 117.465 167.262 117.642C166.248 119.389 161.66 121.085 160.326 120.528L159.9 110.755C159.9 110.755 159.9 110.755 159.873 110.73C159.5 110.476 159.153 110.147 158.859 109.742C158.326 109.008 157.979 108.122 157.979 107.311L158.086 101.412C158.086 100.374 157.872 100.298 158.886 100.45C160.62 100.703 163.261 102.424 163.261 102.424C164.888 103.311 166.302 105.21 166.969 107.21C166.995 107.311 167.022 107.413 167.049 107.514C167.049 107.59 167.102 107.666 167.102 107.742C167.102 107.818 167.129 107.868 167.155 107.919C167.155 107.919 167.155 107.97 167.155 107.995C167.155 108.02 167.155 108.071 167.155 108.096C167.155 108.147 167.155 108.197 167.182 108.248C167.182 108.248 167.182 108.299 167.182 108.324C167.182 108.324 167.182 108.375 167.182 108.4C167.182 108.4 167.182 108.451 167.182 108.476C167.182 108.476 167.182 108.501 167.182 108.527C167.182 108.552 167.182 108.603 167.182 108.628C167.182 108.755 167.209 108.856 167.235 108.982C167.235 109.058 167.235 109.109 167.235 109.16C167.235 109.286 167.235 109.388 167.235 109.514C167.235 109.514 167.182 109.742 167.155 109.843C167.155 109.945 167.102 110.021 167.102 110.122C167.102 110.274 167.155 110.654 167.235 111.236C167.262 111.489 167.315 111.768 167.369 112.097C167.369 112.173 167.369 112.249 167.369 112.325C167.395 113.186 167.422 114.122 167.422 115.009L167.502 114.907Z" fill="#FFBC99"/>
<path d="M158.779 100.374C157.579 100.222 155.792 100.171 153.738 101.361C152.777 101.918 151.364 102.551 150.617 104.931C150.403 105.564 150.323 106.273 150.217 107.21C150.19 107.615 154.485 108.831 157.872 107.995C161.26 107.16 160.38 101.69 160.38 101.69L158.779 100.399V100.374Z" fill="#FFBC99"/>
<path d="M160.246 120.478L159.58 120.175L153.658 114.705L152.671 114.072C151.604 113.389 150.75 111.895 150.75 110.629L150.51 105.413C150.697 104.78 151.39 103.159 152.297 103.666L156.058 105.742C158.326 106.983 160.166 110.173 160.193 112.832L160.273 120.453L160.246 120.478Z" fill="#FFBC99"/>
<path d="M153.738 101.361C151.657 102.551 149.47 103.944 149.47 106.527C149.47 107.818 149.363 109.438 149.496 110.704C149.63 111.971 154.005 108.375 154.005 108.375L153.711 101.361H153.738Z" fill="#FFBC99"/>
<path d="M167.182 117.592C166.862 120.453 165.928 121.77 165.475 122.023C165.19 122.192 164.959 122.31 164.781 122.378C163.181 123.036 156.965 121.441 156.245 120.858C155.525 120.276 154.751 117.162 154.591 116.351C154.405 115.567 152.857 114.934 151.524 114.174C150.19 113.414 149.683 113.06 149.55 110.908C149.55 110.908 152.751 111.211 156.405 110.984C157.499 110.908 158.646 110.806 159.766 110.629C160.006 110.578 160.246 110.553 160.487 110.503C164.034 109.819 166.995 107.464 167.049 107.641C167.049 107.692 167.049 107.743 167.102 107.793C167.102 107.793 167.102 107.844 167.102 107.869C167.102 107.92 167.129 107.996 167.155 108.046C167.155 108.097 167.155 108.122 167.182 108.173C167.182 108.224 167.182 108.274 167.182 108.325C167.182 108.325 167.182 108.35 167.182 108.376C167.182 108.452 167.209 108.528 167.235 108.629C167.235 108.781 167.289 108.933 167.289 109.085C167.289 109.186 167.289 109.287 167.289 109.363C167.289 109.464 167.235 109.566 167.209 109.667C167.209 109.768 167.155 109.844 167.155 109.945C167.155 110.097 167.209 110.477 167.289 111.06C167.235 111.718 167.129 112.579 167.182 112.908C167.182 112.933 167.182 112.984 167.182 113.035C167.262 113.592 167.449 114.883 167.182 117.516V117.592Z" fill="#FFBC99"/>
<path d="M154.458 112.858C153.631 112.579 149.603 111.744 149.523 110.959C149.203 107.743 150.323 104.705 151.257 103.515C151.524 103.818 151.71 104.173 152.431 104.578L155.658 106.351C157.766 107.515 159.473 110.478 159.5 112.934C159.5 112.934 159.446 114.478 154.458 112.858Z" fill="#FFBC99"/>
<path d="M167.502 114.909C167.502 114.909 167.502 115.137 167.502 115.264C167.502 115.39 167.502 115.492 167.502 115.618C167.502 115.745 167.502 115.846 167.502 115.947C167.502 116.049 167.502 116.175 167.502 116.276C167.502 116.302 167.502 116.327 167.502 116.352C167.502 116.53 167.502 116.707 167.449 116.859V116.909C167.422 117.087 167.342 117.34 167.236 117.618C167.156 117.846 167.076 118.074 166.969 118.327C166.569 119.29 166.062 120.378 165.768 120.657C165.635 120.809 165.235 121.062 164.355 121.467C163.368 121.898 162.007 122.252 160.967 121.872C160.113 121.568 158.913 120.556 158.006 119.138C156.912 117.416 156.005 115.314 155.952 114.074C155.952 113.998 155.952 113.922 155.952 113.846C156.005 112.884 155.898 111.921 156.432 111.061C156.645 110.706 157.179 110.124 157.579 109.997C157.899 109.87 158.273 109.795 158.699 109.719C158.726 109.719 158.779 109.719 158.806 109.719C158.993 109.693 159.18 109.668 159.393 109.643C159.9 109.567 160.46 109.516 161.047 109.44C161.927 109.313 163.101 108.934 164.034 108.579C165.502 108.073 166.302 107.82 166.942 107.187C166.969 107.288 166.995 107.389 167.022 107.49C167.022 107.566 167.076 107.642 167.076 107.718C167.076 107.794 167.102 107.845 167.129 107.895C167.129 107.895 167.129 107.946 167.129 107.971C167.129 107.997 167.129 108.047 167.129 108.073C167.129 108.123 167.129 108.174 167.156 108.225C167.156 108.275 167.156 108.326 167.156 108.377C167.156 108.427 167.156 108.453 167.156 108.503C167.156 108.528 167.156 108.579 167.156 108.604C167.156 108.731 167.182 108.832 167.209 108.959C167.209 109.035 167.209 109.086 167.209 109.136C167.209 109.263 167.209 109.364 167.209 109.491C167.209 109.491 167.156 109.719 167.129 109.82C167.129 109.921 167.076 109.997 167.076 110.098C167.076 110.25 167.129 110.63 167.209 111.212C167.236 111.466 167.289 111.744 167.342 112.073C167.342 112.149 167.342 112.225 167.342 112.301C167.369 113.162 167.396 114.099 167.396 114.985L167.502 114.909Z" fill="#FFBC99"/>
<path d="M164.728 112.504C164.861 113.162 164.941 113.314 165.181 113.719C165.422 114.124 166.248 115.745 166.382 115.998C166.569 116.327 166.675 116.657 165.955 116.986C165.315 117.29 164.648 117.138 164.061 117.036C163.661 116.96 163.421 116.429 163.474 116.074C163.528 115.72 163.741 115.239 163.741 115.239C163.741 115.239 163.341 112.504 163.367 112.074C163.688 111.263 164.461 111.466 164.461 111.466L164.728 112.504Z" fill="#FFBC99"/>
<path d="M165.208 119.921C164.674 120.174 164.434 120.453 163.687 120.377C162.941 120.301 162.994 120.022 162.487 119.896C163.741 119.364 165.448 118.098 165.501 118.376C165.528 118.655 165.715 119.541 165.208 119.921Z" fill="#FFBC99"/>
<path d="M165.422 118.731C165.422 118.731 165.288 118.934 165.155 119.01C164.968 119.111 164.728 119.136 164.301 119.288C163.608 119.567 163.528 119.643 162.514 119.896C163.127 119.136 163.634 118.858 163.874 118.756C164.088 118.681 164.541 118.782 164.781 118.453C165.075 118.225 165.368 118.326 165.528 118.275C165.608 118.453 165.448 118.706 165.448 118.706L165.422 118.731Z" fill="#FFBC99"/>
<path d="M155.738 114.299L155.925 116.527C155.925 116.527 157.019 113.97 157.072 112.755C157.126 111.463 156.192 109.007 159.1 109.64C160.247 109.893 162.061 109.792 163.874 109.007C167.022 107.665 166.862 106.906 166.969 106.678C167.209 106.146 167.662 105.791 166.542 103.842C165.422 101.892 161.794 99.6387 158.539 99.6387C155.285 99.6387 152.164 101.487 150.91 102.778C149.656 104.07 148.989 106.349 149.043 107.842C149.096 109.336 148.589 111.362 150.003 114.299C151.417 117.236 153.711 117.869 153.711 117.869C153.711 117.869 153.978 117.363 153.578 116.932C152.511 115.717 150.91 111.792 152.831 111.387C154.751 110.982 155.205 111.767 155.738 114.324V114.299Z" fill="#202459"/>
<path d="M154.351 111.998C153.097 110.554 151.123 111.668 151.844 113.669C152.564 115.644 152.777 116.454 153.951 116.53C154.484 116.555 154.991 116.378 154.938 115.391C154.885 114.403 154.965 112.707 154.378 112.023L154.351 111.998Z" fill="#FFCCB2"/>
<path d="M211.304 81.8143C213.091 79.2569 211.784 76.1932 210.317 75.4336C210.583 77.8137 206.955 76.0666 206.955 76.0666L204.955 82.7511L211.304 81.8143Z" fill="#FF9C00"/>
<path d="M203.621 87.917L203.941 90.2465C204.154 91.0061 202.661 90.1199 202.447 89.7654C202.234 89.4109 202.234 88.9298 202.234 88.2208C202.234 87.8917 203.648 87.9423 203.648 87.9423L203.621 87.917Z" fill="#FF9C00"/>
<path d="M210.263 90.3228C211.143 90.6773 212.291 89.9683 212.424 89.1074C212.931 90.4494 211.304 92.1712 209.863 91.6648C209.41 93.184 207.115 93.184 206.102 92.9055C207.782 92.2218 208.369 91.6901 208.983 90.9305C209.623 90.7786 210.263 90.2975 210.263 90.2975V90.3228Z" fill="#FF9C00"/>
<path d="M194.818 39.2767L198.019 41.0491C198.019 41.0491 197.913 40.9984 197.833 40.9731C196.979 40.5933 195.939 40.7706 194.872 41.3529L191.671 39.5805C192.738 38.9981 193.778 38.8209 194.632 39.2007C194.685 39.226 194.765 39.2513 194.818 39.2767Z" fill="#6CC138"/>
<path d="M177.132 68.3938L173.931 66.6214C174.145 66.7227 174.411 66.6721 174.652 66.5201C174.945 66.3682 175.238 66.0644 175.452 65.6846L178.653 67.457C178.439 67.8368 178.146 68.1406 177.853 68.2926C177.586 68.4445 177.319 68.4698 177.132 68.3938Z" fill="#6CC138"/>
<path d="M178.68 67.4573L175.479 65.7102L188.416 42.9473L191.591 44.7197L178.68 67.4573Z" fill="#54A948"/>
<path d="M191.591 44.721L188.39 42.9486C189.27 41.4294 190.444 40.2393 191.671 39.5557L194.872 41.3281C193.671 41.9864 192.471 43.1765 191.591 44.721Z" fill="#54A948"/>
<path d="M170.73 65.585L167.529 63.8379L173.958 66.6231L177.132 68.3955L170.73 65.585Z" fill="#6CC138"/>
<path d="M164.648 75.8888L161.447 74.1164C159.82 73.2049 159.713 70.3437 161.287 67.5838C162.167 66.0646 163.368 64.8492 164.568 64.1909C165.635 63.6085 166.675 63.4312 167.529 63.8111L170.73 65.5835C169.877 65.2037 168.836 65.3809 167.769 65.9633C166.569 66.6216 165.368 67.8116 164.488 69.3562C162.914 72.1161 162.994 74.9773 164.648 75.8888Z" fill="#54A948"/>
<path d="M194.872 41.3286C195.939 40.7462 196.979 40.5689 197.833 40.9487C199.647 41.7337 199.807 44.7215 198.153 47.5826L182.601 74.9791C181.427 77.0554 179.8 78.6506 178.173 79.5621C176.732 80.347 175.319 80.5749 174.171 80.0685L164.808 75.992C162.994 75.207 162.834 72.2446 164.462 69.3581C165.342 67.8388 166.542 66.6235 167.743 65.9651C168.81 65.3828 169.85 65.2055 170.704 65.5853L177.132 68.3959C177.346 68.4972 177.613 68.4465 177.853 68.2946C178.146 68.1427 178.44 67.8388 178.653 67.459L191.564 44.6961C192.444 43.1769 193.618 41.9869 194.845 41.3032L194.872 41.3286Z" fill="#61C553"/>
<path d="M272.763 221.88C271.765 223.394 269.88 223.995 268.544 223.234C267.208 222.473 266.938 220.622 267.935 219.116C268.933 217.61 270.818 217.002 272.154 217.763C273.49 218.524 273.76 220.374 272.763 221.88Z" fill="#B8753D"/>
<mask id="mask6_2119_13272" style="mask-type:luminance" maskUnits="userSpaceOnUse" x="258" y="209" width="19" height="19">
<path d="M275.282 223.24C275.282 223.24 274.378 222.799 272.763 221.878C273.761 220.364 273.49 218.522 272.154 217.761C270.818 217 268.933 217.6 267.935 219.114C266.938 220.628 267.208 222.471 268.544 223.232C269.88 223.993 271.765 223.392 272.763 221.878C274.378 222.807 275.257 223.28 275.282 223.24C274.707 224.105 274.149 224.674 273.963 224.858C273.811 225.01 273.617 225.203 273.448 225.339C273.135 225.595 272.704 225.924 272.366 226.156C271.52 226.749 270.066 227.374 269.06 227.59C268.367 227.734 267.918 227.83 266.853 227.862C266.008 227.886 265.027 227.71 265.019 227.702C264.089 227.534 263.387 227.245 263.378 227.245C262.981 227.077 262.457 226.829 262.068 226.629C261.84 226.508 261.569 226.308 261.349 226.172C257.925 223.753 257.333 218.658 260.115 214.444C263.032 210.014 268.569 208.244 272.484 210.487C272.983 210.783 274.141 211.472 275.156 212.834C276.128 214.14 276.517 215.437 276.66 216.094C276.838 216.919 276.855 217.448 276.855 217.464C276.855 217.672 276.88 217.953 276.872 218.169C276.838 218.874 276.821 219.138 276.753 219.499C276.677 219.883 276.551 220.396 276.449 220.781C276.398 220.973 276.297 221.229 276.221 221.421C275.967 222.07 275.722 222.535 275.265 223.248L275.282 223.24Z" fill="white"/>
</mask>
<g mask="url(#mask6_2119_13272)">
<path d="M275.283 223.241C278.554 217.89 276.356 212.771 272.493 210.48C268.587 208.237 263.049 210.007 260.124 214.437C257.342 218.651 257.934 223.754 261.358 226.165C266.135 229.257 271.858 228.056 275.274 223.241C275.249 223.273 274.369 222.801 272.755 221.879C271.757 223.393 269.872 223.994 268.536 223.233C267.2 222.472 266.93 220.622 267.927 219.116C268.925 217.61 270.81 217.001 272.146 217.762C273.482 218.523 273.752 220.373 272.755 221.879C274.369 222.809 275.249 223.281 275.274 223.241H275.283Z" fill="#BC773E"/>
<path d="M274.792 223.923C272.543 226.294 266.752 224.82 266.473 220.959C266.168 216.753 270.337 208.75 273.997 211.602C274.158 211.73 274.361 211.907 274.505 212.051L273.997 211.57L273.904 211.49L273.355 211.049C273.101 210.881 272.763 210.649 272.492 210.489C268.586 208.246 263.049 210.016 260.123 214.446C257.342 218.66 257.934 223.763 261.358 226.174C261.544 226.294 261.781 226.446 261.967 226.566L262.076 226.63L262.719 226.967C262.998 227.087 263.362 227.239 263.641 227.343L264.325 227.552C264.604 227.616 264.976 227.696 265.255 227.744L265.957 227.824C266.228 227.84 266.583 227.856 266.853 227.856L267.547 227.824C267.8 227.792 268.13 227.76 268.375 227.72L269.051 227.584C269.28 227.52 269.584 227.44 269.812 227.376L270.455 227.143C270.658 227.055 270.937 226.943 271.14 226.847L271.74 226.534C271.926 226.422 272.171 226.278 272.349 226.158L272.907 225.765C273.067 225.629 273.287 225.461 273.448 225.325L273.947 224.86C274.09 224.708 274.285 224.508 274.42 224.355L274.86 223.819L274.961 223.691L274.775 223.931L274.792 223.923Z" fill="#BC773E"/>
<path d="M269.965 216.215C270.049 216.311 270.227 216.367 270.345 216.415C271.106 216.72 271.96 216.792 272.662 217.264C272.839 217.385 273.372 217.745 273.811 218.394C274.09 218.81 274.479 219.299 274.479 219.307C274.564 219.363 274.708 219.379 274.809 219.395C275.257 219.483 276.17 217.993 276.255 217.441C276.551 215.598 273.228 212.097 270.59 214.076C270.21 214.364 269.314 215.446 269.965 216.215Z" fill="#FB9F53"/>
</g>
<mask id="mask7_2119_13272" style="mask-type:luminance" maskUnits="userSpaceOnUse" x="272" y="210" width="5" height="14">
<path d="M272.492 210.479C272.678 210.592 272.932 210.736 273.11 210.864C273.355 211.04 273.676 211.281 273.913 211.481C274.572 212.042 275.037 212.658 275.046 212.666C275.173 212.827 275.333 213.043 275.443 213.219C275.587 213.444 275.781 213.74 275.891 213.972C276.069 214.333 276.28 214.821 276.415 215.19C276.5 215.422 276.593 215.735 276.644 215.975C276.694 216.199 276.847 216.888 276.863 217.385C276.863 217.601 276.897 217.898 276.889 218.114C276.855 218.795 276.847 219.083 276.77 219.468C276.694 219.852 276.576 220.373 276.466 220.749C276.407 220.95 276.314 221.214 276.238 221.406C276.145 221.647 275.857 222.368 275.282 223.249C275.299 223.225 274.97 223 274.276 222.568C277.193 218.138 276.398 212.731 272.492 210.487V210.479Z" fill="white"/>
</mask>
<g mask="url(#mask7_2119_13272)">
<path d="M272.492 210.479C274.758 211.897 276.153 213.748 276.644 215.975C277.455 219.692 275.933 222.175 275.282 223.241C275.299 223.225 274.97 223 274.276 222.56C277.193 218.13 276.398 212.723 272.492 210.479Z" fill="#BC773E"/>
</g>
<mask id="mask8_2119_13272" style="mask-type:luminance" maskUnits="userSpaceOnUse" x="261" y="222" width="15" height="6">
<path d="M262.077 226.631C261.857 226.503 261.569 226.318 261.358 226.174C261.535 226.294 261.713 226.415 261.907 226.527C265.813 228.77 271.351 226.999 274.276 222.569C274.97 223.01 275.299 223.226 275.283 223.25C275.164 223.418 275.012 223.659 274.877 223.819C274.493 224.289 274.192 224.636 273.972 224.86C273.828 225.005 273.625 225.197 273.465 225.333C273.152 225.589 272.721 225.918 272.383 226.158C272.078 226.374 271.842 226.503 271.191 226.839C270.996 226.943 270.726 227.047 270.531 227.128C270.514 227.136 270.024 227.352 269.161 227.568C268.494 227.736 267.115 227.993 265.458 227.776C263.844 227.56 262.651 226.967 262.077 226.631Z" fill="white"/>
</mask>
<g mask="url(#mask8_2119_13272)">
<path d="M262.077 226.631C261.857 226.503 261.569 226.318 261.358 226.174C261.535 226.294 261.713 226.415 261.907 226.527C265.813 228.77 271.351 226.999 274.276 222.569C274.97 223.01 275.299 223.226 275.283 223.25C271.656 228.369 265.771 228.81 262.077 226.631Z" fill="#BC773E"/>
</g>
<mask id="mask9_2119_13272" style="mask-type:luminance" maskUnits="userSpaceOnUse" x="229" y="192" width="44" height="35">
<path d="M272.357 210.408C268.46 208.277 263.015 210.063 260.124 214.445C257.367 218.627 257.925 223.674 261.282 226.117C260.394 225.468 259.202 224.603 258.314 223.954C257.866 223.626 257.274 223.201 256.826 222.873C255.939 222.224 254.747 221.359 253.859 220.71L250.891 218.547C250.443 218.218 249.851 217.794 249.403 217.465L246.436 215.302C245.548 214.654 244.356 213.788 243.468 213.139C243.02 212.811 242.428 212.386 241.98 212.058L239.013 209.895C238.125 209.246 236.933 208.381 236.045 207.732L234.557 206.651C233.669 206.002 232.477 205.137 231.59 204.488C229.07 202.653 228.656 198.864 230.727 195.724C232.892 192.439 236.984 191.102 239.909 192.696C250.731 198.6 261.552 204.504 272.383 210.408H272.357Z" fill="white"/>
</mask>
<g mask="url(#mask9_2119_13272)">
<path d="M272.356 210.408L239.883 192.696C236.957 191.102 232.865 192.439 230.701 195.724C228.63 198.864 229.052 202.653 231.563 204.488L261.273 226.117C257.916 223.674 257.367 218.627 260.114 214.445C263.006 210.063 268.442 208.285 272.348 210.408H272.356Z" fill="#BC773E"/>
</g>
<mask id="mask10_2119_13272" style="mask-type:luminance" maskUnits="userSpaceOnUse" x="239" y="192" width="38" height="31">
<path d="M239.883 192.696C250.705 198.599 261.527 204.503 272.357 210.407C272.399 210.432 272.45 210.456 272.492 210.48C276.398 212.723 277.201 218.13 274.276 222.56L241.329 201.812C243.518 198.487 242.918 194.426 239.984 192.744C239.951 192.728 239.917 192.704 239.883 192.688V192.696Z" fill="white"/>
</mask>
<g mask="url(#mask10_2119_13272)">
<path d="M274.276 222.56L241.329 201.812C243.518 198.487 242.918 194.426 239.984 192.744C239.951 192.728 239.917 192.704 239.883 192.688L272.357 210.399C272.399 210.424 272.45 210.448 272.492 210.472C276.398 212.715 277.201 218.122 274.276 222.552V222.56Z" fill="#BC773E"/>
</g>
<mask id="mask11_2119_13272" style="mask-type:luminance" maskUnits="userSpaceOnUse" x="231" y="201" width="44" height="27">
<path d="M261.282 226.107C260.394 225.459 259.202 224.593 258.314 223.945C257.866 223.616 257.274 223.191 256.826 222.863C255.938 222.214 254.746 221.349 253.859 220.7L250.891 218.537C250.443 218.209 249.851 217.784 249.403 217.456L246.435 215.293C245.548 214.644 244.356 213.779 243.468 213.13C243.02 212.801 242.428 212.377 241.98 212.048L239.012 209.885C238.125 209.237 236.933 208.371 236.045 207.723L234.557 206.641C233.669 205.992 232.477 205.127 231.589 204.478C231.742 204.59 231.902 204.694 232.063 204.783C234.997 206.465 239.156 205.135 241.346 201.811L274.293 222.559C271.376 226.989 265.839 228.759 261.924 226.516C261.704 226.388 261.493 226.252 261.29 226.107H261.282Z" fill="white"/>
</mask>
<g mask="url(#mask11_2119_13272)">
<path d="M261.281 226.107L231.572 204.478C231.724 204.59 231.885 204.694 232.045 204.783C234.979 206.465 239.139 205.135 241.328 201.811L274.276 222.559C271.359 226.989 265.821 228.759 261.907 226.516C261.687 226.388 261.476 226.252 261.273 226.107H261.281Z" fill="#BC773E"/>
</g>
<mask id="mask12_2119_13272" style="mask-type:luminance" maskUnits="userSpaceOnUse" x="218" y="184" width="23" height="21">
<path d="M240.179 192.866C240.111 192.826 240.052 192.786 239.985 192.746C237.051 191.064 232.9 192.394 230.702 195.718C228.563 198.971 229.087 202.92 231.851 204.666L220.683 197.601C217.918 195.854 217.394 191.897 219.533 188.653C221.723 185.328 225.882 183.998 228.816 185.681C228.884 185.721 228.951 185.761 229.011 185.801C232.359 187.924 236.831 190.744 240.179 192.866Z" fill="white"/>
</mask>
<g mask="url(#mask12_2119_13272)">
<path d="M240.179 192.866L229.01 185.801C228.943 185.761 228.884 185.721 228.816 185.681C225.882 183.998 221.723 185.328 219.533 188.653C217.394 191.905 217.918 195.854 220.683 197.601L231.851 204.666C229.086 202.92 228.562 198.963 230.701 195.718C232.891 192.394 237.051 191.064 239.984 192.746C240.052 192.786 240.12 192.826 240.179 192.866Z" fill="#BC773E"/>
</g>
<mask id="mask13_2119_13272" style="mask-type:luminance" maskUnits="userSpaceOnUse" x="229" y="185" width="14" height="17">
<path d="M229.011 185.8L240.179 192.865C242.944 194.612 243.468 198.569 241.329 201.813L230.161 194.748C232.3 191.496 231.776 187.546 229.011 185.8Z" fill="white"/>
</mask>
<g mask="url(#mask13_2119_13272)">
<path d="M241.329 201.821L230.161 194.756C232.3 191.503 231.776 187.554 229.011 185.808L240.18 192.873C242.944 194.62 243.468 198.577 241.329 201.821Z" fill="#BC773E"/>
</g>
<path d="M230.16 194.756C227.97 198.08 223.811 199.41 220.877 197.728C217.943 196.046 217.343 191.984 219.533 188.66C221.723 185.335 225.882 184.005 228.816 185.688C231.75 187.37 232.35 191.431 230.16 194.756Z" fill="#BC773E"/>
<mask id="mask14_2119_13272" style="mask-type:luminance" maskUnits="userSpaceOnUse" x="220" y="194" width="22" height="12">
<path d="M231.852 204.669L220.683 197.604C220.751 197.644 220.81 197.684 220.878 197.724C223.811 199.406 227.971 198.076 230.161 194.752L241.329 201.818C239.139 205.142 234.98 206.472 232.046 204.79C231.978 204.749 231.911 204.709 231.852 204.669Z" fill="white"/>
</mask>
<g mask="url(#mask14_2119_13272)">
<path d="M231.852 204.669L220.683 197.604C220.751 197.644 220.81 197.684 220.878 197.724C223.811 199.406 227.971 198.076 230.161 194.752L241.329 201.818C239.139 205.142 234.98 206.472 232.046 204.79C231.978 204.749 231.911 204.709 231.852 204.669Z" fill="#BC773E"/>
</g>
<path d="M230.295 189.649C229.484 191.564 229.332 192.229 227.7 193.398C237.262 199.246 272.915 221.284 272.915 221.284C272.915 221.284 275.011 217.687 274.276 215.084C273.295 212.865 230.295 189.649 230.295 189.649Z" fill="#DB8B49"/>
<path d="M223.152 144.999L210.817 138.206C216.278 141.218 219.669 147.619 219.694 156.711C219.745 175.016 206.167 197.31 189.351 206.515C180.888 211.145 173.22 211.569 167.69 208.525L180.025 215.318C185.563 218.371 193.231 217.938 201.686 213.308C218.502 204.111 232.088 181.809 232.029 163.504C232.004 154.412 228.614 148.011 223.152 144.999Z" fill="url(#paint1_linear_2119_13272)"/>
<path opacity="0.64" d="M197.991 211.281C214.807 202.084 228.394 179.782 228.334 161.477C228.284 143.172 214.604 135.786 197.788 144.983C180.972 154.179 167.386 176.481 167.445 194.786C167.496 213.091 181.175 220.477 197.991 211.273V211.281Z" fill="#6792D1"/>
<path opacity="0.64" d="M216.98 141.898C221.173 145.287 223.701 151.119 223.727 158.954C223.777 177.258 210.191 199.552 193.383 208.757C186.121 212.73 179.442 213.604 174.2 211.841C179.805 216.367 188.387 216.535 197.999 211.28C214.815 202.084 228.402 179.782 228.343 161.477C228.309 151.079 223.879 144.206 216.98 141.898Z" fill="#85A9D4"/>
<path d="M201.474 142.147C220.75 131.597 236.434 140.065 236.493 161.061C236.552 182.049 220.979 207.612 201.702 218.162C182.426 228.713 166.743 220.245 166.684 199.257C166.625 178.268 182.198 152.698 201.474 142.155V142.147ZM201.685 213.3C218.502 204.103 232.088 181.801 232.029 163.496C231.978 145.192 218.299 137.806 201.483 147.002C184.667 156.198 171.08 178.501 171.139 196.805C171.19 215.11 184.869 222.496 201.685 213.292V213.3Z" fill="#4B476E"/>
<path d="M213.978 133.054C207.629 129.561 198.845 130.05 189.139 135.361C169.863 145.911 154.281 171.474 154.349 192.462C154.383 202.884 158.263 210.222 164.528 213.675L176.863 220.468C170.598 217.016 166.709 209.686 166.684 199.255C166.625 178.267 182.198 152.696 201.474 142.154C211.18 136.851 219.964 136.354 226.314 139.847L213.978 133.054Z" fill="url(#paint2_linear_2119_13272)"/>
<g style="mix-blend-mode:screen" opacity="0.64">
<path d="M205.097 166.058C209.561 161.17 210.314 154.858 206.78 151.96C203.245 149.062 196.761 150.676 192.297 155.564C187.834 160.452 187.08 166.763 190.615 169.661C194.149 172.559 200.633 170.946 205.097 166.058Z" fill="#A6B1C7"/>
</g>
<path d="M223.254 210.648C224.085 208.207 227.908 209.034 229.945 209.467C231.981 209.861 233.685 210.885 235.804 211.357C237.923 211.83 241.539 212.696 242.536 213.09C243.533 213.483 244.822 220.019 241.206 220.138C238.048 220.216 231.856 219.547 227.784 218.444C223.711 217.342 222.839 215.531 222.756 213.916C222.756 213.286 223.254 210.648 223.254 210.648Z" fill="#484486"/>
<path d="M236.552 214.347C236.552 216.04 236.428 216.395 237.757 217.3C239.087 218.206 241.456 218.442 241.456 218.442C241.456 218.442 246.567 218.875 247.481 218.915C248.437 218.915 251.18 217.458 251.554 217.182C251.928 216.906 253.05 215.056 253.05 215.056C253.05 215.056 253.673 213.008 253.465 212.733C253.299 212.418 252.8 212.496 252.8 212.496C252.8 212.496 252.676 210.803 252.509 210.488C252.343 210.173 252.011 210.173 252.011 210.173L252.094 208.913C252.094 208.913 251.595 208.52 251.263 208.598C250.93 208.677 250.889 208.795 250.889 208.795C250.889 208.795 250.764 207.968 249.933 208.362C249.06 208.795 246.401 211.197 246.401 211.197L243.658 212.378H241.414C241.414 212.378 242.328 211.63 242.495 210.567C242.702 209.543 241.788 208.756 241.497 208.559C241.206 208.362 240.375 208.362 240.043 208.992C239.71 209.622 239.96 210.41 239.96 210.41C239.96 210.41 239.627 211.04 239.378 211.67C239.129 212.339 239.004 212.772 239.004 212.772C239.004 212.772 237.051 212.575 236.594 214.386L236.552 214.347Z" fill="#FFBC99"/>
<defs>
<linearGradient id="paint0_linear_2119_13272" x1="173.243" y1="194.537" x2="199.873" y2="254.375" gradientUnits="userSpaceOnUse">
<stop stop-color="#435BB3"/>
<stop offset="1" stop-color="#30417A"/>
</linearGradient>
<linearGradient id="paint1_linear_2119_13272" x1="184.659" y1="217.85" x2="224.221" y2="145.539" gradientUnits="userSpaceOnUse">
<stop stop-color="#504C74"/>
<stop offset="0.03" stop-color="#524E76"/>
<stop offset="0.14" stop-color="#524E76"/>
<stop offset="0.23" stop-color="#63608A"/>
<stop offset="0.33" stop-color="#615E88"/>
<stop offset="0.37" stop-color="#5B5881"/>
<stop offset="0.39" stop-color="#524E76"/>
<stop offset="0.93" stop-color="#524E76"/>
<stop offset="0.99" stop-color="#44416E"/>
</linearGradient>
<linearGradient id="paint2_linear_2119_13272" x1="158.525" y1="210.431" x2="203.884" y2="127.531" gradientUnits="userSpaceOnUse">
<stop stop-color="#44416E"/>
<stop offset="0.07" stop-color="#524E76"/>
<stop offset="0.61" stop-color="#524E76"/>
<stop offset="0.63" stop-color="#5B5881"/>
<stop offset="0.67" stop-color="#615E88"/>
<stop offset="0.77" stop-color="#63608A"/>
<stop offset="0.86" stop-color="#524E76"/>
<stop offset="0.97" stop-color="#524E76"/>
<stop offset="0.99" stop-color="#504C74"/>
<stop offset="1" stop-color="#46426E"/>
</linearGradient>
</defs>
</svg>
