<svg width="76" height="24" viewBox="0 0 76 24" fill="none" xmlns="http://www.w3.org/2000/svg">
<g clip-path="url(#clip0_2609_15336)">
<path d="M0.348115 0H4.98979C6.15185 0 7.19573 0.672838 7.64217 1.70748L17.1093 23.5366C17.2078 23.7588 17.0371 24 16.7942 24H10.4718C10.3339 24 10.2092 23.9175 10.1567 23.7969L0.0264146 0.463369C-0.072065 0.241206 0.098633 0 0.341549 0H0.348115Z" fill="#293351"/>
<path d="M10.8196 0H15.4612C16.6233 0 17.6672 0.672838 18.1136 1.70748L27.5808 23.5366C27.6793 23.7588 27.5086 24 27.2656 24H20.9433C20.8054 24 20.6806 23.9175 20.6281 23.7969L10.4979 0.463369C10.3994 0.241206 10.5701 0 10.813 0H10.8196Z" fill="url(#paint0_linear_2609_15336)"/>
<g style="mix-blend-mode:screen">
<path d="M21.0155 24H27.3379C27.4758 24 27.6005 23.9175 27.653 23.7969L37.7833 0.463369C37.8752 0.241206 37.7111 0 37.4616 0H32.8199C31.6579 0 30.614 0.672838 30.1675 1.70748L20.7004 23.5366C20.6019 23.7588 20.7726 24 21.0155 24Z" fill="#5F7CEA"/>
</g>
<path d="M29.8196 21.0413V13.602C29.8196 11.6279 31.0933 10.6377 33.6472 10.6377H40.4619C43.0093 10.6377 44.283 11.6279 44.283 13.602V21.0413C44.283 23.0154 43.0093 24.0056 40.4619 24.0056H33.6472C31.0998 24.0056 29.8196 23.0154 29.8196 21.0413ZM33.1219 20.6033C33.1219 21.0921 33.4371 21.3396 34.0739 21.3396H40.0089C40.6589 21.3396 40.9806 21.0921 40.9806 20.6033V14.0336C40.9806 13.5449 40.6589 13.2973 40.0089 13.2973H34.0739C33.4436 13.2973 33.1219 13.5449 33.1219 14.0336V20.6033Z" fill="white"/>
<path d="M46.7186 21.0417V6.56934H50.021V10.6318H55.1747V13.2977H50.021V20.6037C50.021 21.0925 50.3361 21.34 50.9729 21.34H55.1747V24.006H50.5462C47.9989 24.006 46.7186 23.0158 46.7186 21.0417Z" fill="white"/>
<path d="M57.4267 21.0413V13.602C57.4267 11.6279 58.7004 10.6377 61.2543 10.6377H67.5242C70.0715 10.6377 71.3452 11.6279 71.3452 13.602V18.68H60.7291V20.6097C60.7291 21.0984 61.0442 21.346 61.681 21.346H71.3452V24.0119H61.2477C58.7004 24.0119 57.4202 23.0217 57.4202 21.0476L57.4267 21.0413ZM60.7291 16.0141H68.0428V14.04C68.0428 13.5512 67.7211 13.3037 67.0712 13.3037H61.681C61.0508 13.3037 60.7291 13.5512 60.7291 14.04V16.0141Z" fill="white"/>
<path d="M75.9999 21.3213H73.2228V24.0063H75.9999V21.3213Z" fill="#5F7CEA"/>
</g>
<defs>
<linearGradient id="paint0_linear_2609_15336" x1="15.238" y1="3.73869" x2="21.8445" y2="19.1758" gradientUnits="userSpaceOnUse">
<stop stop-color="#435BB3"/>
<stop offset="1" stop-color="#30417A"/>
</linearGradient>
<clipPath id="clip0_2609_15336">
<rect width="76" height="24" fill="white"/>
</clipPath>
</defs>
</svg>
