<svg width="84" height="55" viewBox="0 0 84 55" fill="none" xmlns="http://www.w3.org/2000/svg">
<path d="M0.78129 0H11.0824C13.66 0 15.9876 1.54456 16.9783 3.91418L38.0133 53.9351C38.2249 54.4436 37.8497 55 37.3015 55H23.2493C22.9416 55 22.6626 54.8177 22.5376 54.5299L0.0599271 1.06488C-0.151673 0.556425 0.223436 0 0.771672 0H0.78129Z" fill="#293351"/>
<path d="M24.0475 0H34.3486C36.9263 0 39.2539 1.54456 40.2445 3.91418L61.2795 53.9351C61.4911 54.4436 61.116 55 60.5677 55H46.5156C46.2078 55 45.9289 54.8177 45.8038 54.5299L23.3262 1.06488C23.1146 0.556425 23.4897 0 24.0379 0H24.0475Z" fill="url(#paint0_linear_1497_6001)"/>
<g style="mix-blend-mode:screen">
<path d="M46.6985 55H60.7506C61.0584 55 61.3373 54.8177 61.4624 54.5299L83.94 1.06488C84.1516 0.556425 83.7765 0 83.2283 0H72.9272C70.3496 0 68.022 1.54456 67.0313 3.91418L45.9963 53.9351C45.7847 54.4436 46.1598 55 46.7081 55H46.6985Z" fill="#5F7CEA"/>
</g>
<defs>
<linearGradient id="paint0_linear_1497_6001" x1="33.8677" y1="8.56707" x2="49.3346" y2="43.5842" gradientUnits="userSpaceOnUse">
<stop stop-color="#435BB3"/>
<stop offset="1" stop-color="#30417A"/>
</linearGradient>
</defs>
</svg>
