<svg width="15" height="15" viewBox="0 0 15 15" fill="none" xmlns="http://www.w3.org/2000/svg">
<path d="M11.25 9.02344C11.25 8.81032 11.1653 8.60593 11.0146 8.45523C10.8639 8.30453 10.6595 8.21987 10.4464 8.21987C10.2333 8.21987 10.0289 8.30453 9.87822 8.45523C9.72752 8.60593 9.64286 8.81032 9.64286 9.02344C9.64286 9.23656 9.72752 9.44095 9.87822 9.59165C10.0289 9.74235 10.2333 9.82701 10.4464 9.82701C10.6595 9.82701 10.8639 9.74235 11.0146 9.59165C11.1653 9.44095 11.25 9.23656 11.25 9.02344ZM5.35714 9.02344C5.35714 8.81032 5.27248 8.60592 5.12178 8.45523C4.97108 8.30453 4.76669 8.21987 4.55357 8.21987C4.34045 8.21987 4.13606 8.30453 3.98536 8.45523C3.83466 8.60592 3.75 8.81032 3.75 9.02344C3.75 9.23656 3.83466 9.44095 3.98536 9.59165C4.13606 9.74235 4.34045 9.82701 4.55357 9.82701C4.76669 9.82701 4.97108 9.74235 5.12178 9.59165C5.27248 9.44095 5.35714 9.23656 5.35714 9.02344ZM7.5 15C11.6417 15 15 11.6417 15 7.5C15 3.35826 11.6417 -2.93588e-07 7.5 -6.55671e-07C3.35826 -1.01775e-06 1.01775e-06 3.35826 6.55671e-07 7.5C2.93588e-07 11.6417 3.35826 15 7.5 15ZM3.0971 3.0971C3.66964 2.52455 4.33594 2.07589 5.07757 1.76116C5.84264 1.43638 6.65793 1.27232 7.5 1.27232C8.34208 1.27232 9.15737 1.43638 9.92411 1.76116C10.6646 2.0739 11.3373 2.52763 11.9046 3.0971C12.4771 3.66964 12.9258 4.33594 13.2405 5.07757C13.5636 5.84263 13.7277 6.65792 13.7277 7.5C13.7277 8.34208 13.5636 9.15737 13.2388 9.92411C12.9261 10.6646 12.4724 11.3373 11.9029 11.9046C11.3304 12.4771 10.6641 12.9258 9.92243 13.2405C9.15737 13.5636 8.34208 13.7277 7.5 13.7277C6.65792 13.7277 5.84263 13.5636 5.07589 13.2388C4.33539 12.9261 3.66275 12.4724 3.09542 11.9029C2.52288 11.3304 2.07422 10.6641 1.75949 9.92243C1.43638 9.15737 1.27232 8.34208 1.27232 7.5C1.27232 6.65792 1.43639 5.84263 1.76116 5.07589C2.07352 4.33567 2.52731 3.66352 3.0971 3.0971ZM4.95536 7.14844L5.7606 7.14844C5.83092 7.14844 5.89118 7.09487 5.89621 7.02455C5.95982 6.19587 6.65458 5.54129 7.5 5.54129C8.34543 5.54129 9.04185 6.19587 9.1038 7.02455C9.10882 7.09487 9.16909 7.14844 9.2394 7.14844L10.0446 7.14844C10.0628 7.14846 10.0808 7.14479 10.0975 7.13764C10.1142 7.1305 10.1293 7.12003 10.1418 7.10687C10.1543 7.09372 10.164 7.07815 10.1704 7.06112C10.1767 7.04409 10.1795 7.02595 10.1786 7.00781C10.1049 5.59654 8.93136 4.46987 7.5 4.46987C6.06864 4.46987 4.89509 5.59654 4.82143 7.00781C4.82052 7.02595 4.82331 7.04409 4.82964 7.06112C4.83596 7.07815 4.84568 7.09372 4.85821 7.10687C4.87074 7.12003 4.88581 7.1305 4.90251 7.13764C4.91921 7.14479 4.93719 7.14846 4.95536 7.14844Z" fill="black"/>
</svg>
