<svg width="66" height="66" viewBox="0 0 66 66" fill="none" xmlns="http://www.w3.org/2000/svg">
<rect width="66" height="66" rx="8" fill="#2C2F37"/>
<g opacity="0.5">
<path d="M6.51004 15H13.2347C14.9175 15 16.4369 16.0083 17.0837 17.5552L30.8156 50.2096C30.9537 50.5415 30.7088 50.9048 30.3509 50.9048H21.1775C20.9766 50.9048 20.7945 50.7858 20.7129 50.5979L6.03912 15.6952C5.90099 15.3632 6.14586 15 6.50376 15H6.51004Z" fill="#293351"/>
<path d="M21.6988 15H28.4234C30.1062 15 31.6257 16.0083 32.2724 17.5552L46.0043 50.2096C46.1424 50.5415 45.8976 50.9048 45.5397 50.9048H36.3662C36.1653 50.9048 35.9832 50.7858 35.9016 50.5979L21.2278 15.6952C21.0897 15.3632 21.3346 15 21.6925 15H21.6988Z" fill="url(#paint0_linear_3084_3737)"/>
<g style="mix-blend-mode:screen">
<path d="M36.4855 50.9048H45.659C45.8599 50.9048 46.042 50.7858 46.1236 50.5979L60.7973 15.6952C60.9355 15.3632 60.6906 15 60.3327 15H53.608C51.9253 15 50.4058 16.0083 49.7591 17.5552L36.0272 50.2096C35.889 50.5415 36.1339 50.9048 36.4918 50.9048H36.4855Z" fill="#5F7CEA"/>
</g>
</g>
<defs>
<linearGradient id="paint0_linear_3084_3737" x1="28.1095" y1="20.5927" x2="38.2065" y2="43.4524" gradientUnits="userSpaceOnUse">
<stop stop-color="#435BB3"/>
<stop offset="1" stop-color="#30417A"/>
</linearGradient>
</defs>
</svg>
