<svg width="130" height="130" viewBox="0 0 130 130" fill="none" xmlns="http://www.w3.org/2000/svg">
<g clip-path="url(#clip0_1648_935)">
<rect width="130" height="130" rx="65" fill="#22242B"/>
<path d="M47.5 95C35.5 100.5 27.5 110.77 23 119.27C37 149.27 122.747 133.461 108 114.5C101 105.5 94.8634 101.098 88.5 97.5C71.5881 87.9387 55.783 91.2036 47.5 95Z" fill="#D9D9D9"/>
<path d="M98.9883 68.0837C98.9883 70.9064 95.5237 74.9072 91.5541 73.7641C88.8177 72.9709 85.3296 70.9181 85.3296 68.0837C85.3296 65.2493 89.3109 62.4149 92.1648 62.4149C96.7569 62.4149 99.0001 65.261 99.0001 68.0837H98.9883Z" fill="#D9D9D9"/>
<path d="M31.0117 68.0837C31.0117 70.9064 34.4763 74.9072 38.4459 73.7641C41.1824 72.9709 44.6705 70.9181 44.6705 68.0837C44.6705 65.2493 40.6891 62.4149 37.8352 62.4149C33.2432 62.4149 31 65.261 31 68.0837H31.0117Z" fill="#D9D9D9"/>
<path d="M94.5137 60.7937C94.9952 79.5612 84.6953 97.5356 66.9261 97.9905C49.1568 98.4454 36.3789 82.4539 35.8974 63.6864C35.4159 44.9188 47.4069 30.467 65.1762 30.0121C82.9454 29.5572 94.0321 42.0144 94.5137 60.782V60.7937Z" fill="#D9D9D9"/>
<path d="M93.2805 70.6031C93.7855 68.7485 95.1831 67.1972 93.3745 65.7742C96.6042 65.7042 95.4885 69.81 93.2805 70.6031Z" fill="#607DEA"/>
<path d="M37.1306 70.6031C34.9226 69.8216 33.8069 65.7159 37.0366 65.7742C35.2397 67.1972 36.6256 68.7485 37.1306 70.6031Z" fill="#607DEA"/>
<path d="M66.2684 68.2354H63.1561V60.3505H64.3071V67.0923H66.2684V68.2354Z" fill="#607DEA"/>
<path d="M54.4771 60.9686C54.4771 61.7384 53.9838 62.3566 53.3848 62.3566C52.7859 62.3566 52.2926 61.7384 52.2926 60.9686C52.2926 60.1988 52.7859 59.5806 53.3848 59.5806C53.9838 59.5806 54.4771 60.1988 54.4771 60.9686Z" fill="#607DEA"/>
<path d="M78.7644 60.9686C78.7644 61.7384 78.2711 62.3566 77.6722 62.3566C77.0732 62.3566 76.58 61.7384 76.58 60.9686C76.58 60.1988 77.0732 59.5806 77.6722 59.5806C78.2711 59.5806 78.7644 60.1988 78.7644 60.9686Z" fill="#607DEA"/>
<path d="M65.0587 81.9174C60.5606 81.9174 59.6328 77.7066 59.6211 77.6716L60.7486 77.4384C60.7838 77.5783 61.5119 80.7743 65.0587 80.7743C68.8522 80.7743 69.228 77.6366 69.2397 77.4967L70.3907 77.6017C70.3907 77.6017 69.9209 81.9174 65.0587 81.9174Z" fill="#607DEA"/>
</g>
<defs>
<clipPath id="clip0_1648_935">
<rect width="130" height="130" rx="65" fill="white"/>
</clipPath>
</defs>
</svg>
