<svg width="22" height="23" viewBox="0 0 22 23" fill="none" xmlns="http://www.w3.org/2000/svg">
<path d="M11 22.2012C9.50326 22.2012 8.09245 21.9147 6.76758 21.3418C5.44987 20.7689 4.28613 19.9775 3.27637 18.9678C2.2666 17.958 1.47526 16.7943 0.902344 15.4766C0.329427 14.1517 0.0429688 12.7409 0.0429688 11.2441C0.0429688 9.7474 0.329427 8.34017 0.902344 7.02246C1.47526 5.69759 2.26302 4.53027 3.26562 3.52051C4.27539 2.51074 5.43913 1.7194 6.75684 1.14648C8.08171 0.573568 9.49251 0.287109 10.9893 0.287109C12.486 0.287109 13.8968 0.573568 15.2217 1.14648C16.5465 1.7194 17.7139 2.51074 18.7236 3.52051C19.7334 4.53027 20.5247 5.69759 21.0977 7.02246C21.6706 8.34017 21.957 9.7474 21.957 11.2441C21.957 12.7409 21.6706 14.1517 21.0977 15.4766C20.5247 16.7943 19.7334 17.958 18.7236 18.9678C17.7139 19.9775 16.5465 20.7689 15.2217 21.3418C13.904 21.9147 12.4967 22.2012 11 22.2012ZM11 20.375C12.2676 20.375 13.4528 20.1387 14.5557 19.666C15.6585 19.1934 16.6289 18.5417 17.4668 17.7109C18.3047 16.873 18.9564 15.9027 19.4219 14.7998C19.8945 13.6969 20.1309 12.5117 20.1309 11.2441C20.1309 9.97656 19.8945 8.79134 19.4219 7.68848C18.9492 6.58561 18.2939 5.61523 17.4561 4.77734C16.6253 3.93945 15.6549 3.28776 14.5449 2.82227C13.4421 2.34961 12.2568 2.11328 10.9893 2.11328C9.72168 2.11328 8.53646 2.34961 7.43359 2.82227C6.33073 3.28776 5.36393 3.93945 4.5332 4.77734C3.70247 5.61523 3.05078 6.58561 2.57812 7.68848C2.11263 8.79134 1.87988 9.97656 1.87988 11.2441C1.87988 12.5117 2.11263 13.6969 2.57812 14.7998C3.05078 15.9027 3.70247 16.873 4.5332 17.7109C5.37109 18.5417 6.34147 19.1934 7.44434 19.666C8.5472 20.1387 9.73242 20.375 11 20.375ZM18.3477 18.3232C17.696 18.9606 16.9297 19.5049 16.0488 19.9561C15.1751 20.4072 14.2907 20.751 13.3955 20.9873C12.5003 21.2308 11.7018 21.3525 11 21.3525C10.3053 21.3525 9.50684 21.2308 8.60449 20.9873C7.70931 20.751 6.82129 20.4072 5.94043 19.9561C5.05957 19.5049 4.29688 18.9606 3.65234 18.3232L3.68457 18.1943C3.86361 17.6715 4.28255 17.1559 4.94141 16.6475C5.60026 16.139 6.44531 15.7201 7.47656 15.3906C8.51497 15.0612 9.68945 14.8965 11 14.8965C12.3177 14.8965 13.4922 15.0612 14.5234 15.3906C15.5618 15.7201 16.4069 16.139 17.0586 16.6475C17.7174 17.1559 18.1364 17.6751 18.3154 18.2051L18.3477 18.3232ZM11 13.0703C10.3125 13.0632 9.68945 12.8841 9.13086 12.5332C8.57943 12.1751 8.139 11.6917 7.80957 11.083C7.4873 10.4743 7.32259 9.78678 7.31543 9.02051C7.30827 8.2972 7.4694 7.63477 7.79883 7.0332C8.12826 6.43164 8.57227 5.95182 9.13086 5.59375C9.68945 5.22852 10.3125 5.0459 11 5.0459C11.6875 5.0459 12.307 5.22852 12.8584 5.59375C13.417 5.95182 13.861 6.43164 14.1904 7.0332C14.5199 7.63477 14.6846 8.2972 14.6846 9.02051C14.6846 9.78678 14.5199 10.4779 14.1904 11.0938C13.8682 11.7096 13.4277 12.1966 12.8691 12.5547C12.3105 12.9056 11.6875 13.0775 11 13.0703Z" fill="#717071"/>
</svg>
