<svg width="234" height="72" viewBox="0 0 234 72" fill="none" xmlns="http://www.w3.org/2000/svg">
<rect width="234" height="72" fill="#F3F3F3"/>
<path d="M80.1761 52.032L68.6561 19.104H75.6641L83.9201 43.68H84.0641L92.2241 19.104H98.5601L87.0881 52.032H80.1761ZM111.447 52.464C103.671 52.464 99.4474 47.904 99.4474 40.032V39.36C99.4474 31.248 104.439 26.688 111.495 26.688C119.175 26.688 123.495 31.152 123.495 39.168V39.84C123.495 48 118.503 52.464 111.447 52.464ZM111.543 47.856C114.999 47.856 117.015 45.552 117.015 40.32V39.168C117.015 32.88 114.567 31.344 111.399 31.344C107.943 31.344 105.927 33.648 105.927 38.976V40.032C105.927 46.224 108.375 47.856 111.543 47.856ZM135.421 52.32C130.909 52.32 128.125 50.64 128.125 45.696V31.824H124.813V27.168H128.125V21.312H134.317V27.168H140.029V31.824H134.317V44.688C134.317 46.8 135.229 47.52 137.581 47.52C138.493 47.52 139.549 47.376 140.269 47.136V51.312C139.357 51.792 137.869 52.32 135.421 52.32ZM154.482 52.464C146.13 52.464 141.954 47.856 141.954 39.888V39.264C141.954 31.056 146.898 26.736 153.618 26.736C161.154 26.736 164.322 31.008 164.322 38.976V41.28H148.386C148.818 46.08 151.41 47.664 155.922 47.664C158.994 47.664 161.346 46.944 163.458 46.032V50.16C161.73 51.312 158.802 52.464 154.482 52.464ZM153.474 31.2C151.218 31.2 148.722 32.496 148.386 37.2H158.13C158.13 32.832 156.546 31.2 153.474 31.2Z" fill="black"/>
</svg>
