<svg width="31" height="22" viewBox="0 0 31 22" fill="none" xmlns="http://www.w3.org/2000/svg">
<g clip-path="url(#clip0_1708_11671)">
<path d="M10.7082 9.48706C11.2901 9.48706 11.7606 9.96178 11.7606 10.5488C11.7606 11.1359 11.2901 11.6106 10.7082 11.6106C10.1263 11.6106 9.65576 11.1359 9.65576 10.5488C9.65576 9.96178 10.1263 9.48706 10.7082 9.48706Z" fill="#717071"/>
<path d="M13.8654 9.48706C14.4473 9.48706 14.9179 9.96178 14.9179 10.5488C14.9179 11.1359 14.4473 11.6106 13.8654 11.6106C13.2835 11.6106 12.813 11.1359 12.813 10.5488C12.813 9.96178 13.2835 9.48706 13.8654 9.48706Z" fill="#717071"/>
<path d="M17.0266 9.48706C17.6085 9.48706 18.079 9.96178 18.079 10.5488C18.079 11.1359 17.6085 11.6106 17.0266 11.6106C16.4447 11.6106 15.9741 11.1359 15.9741 10.5488C15.9741 9.96178 16.4447 9.48706 17.0266 9.48706Z" fill="#717071"/>
<path d="M5.4427 22L4.55549 21.3441L4.88595 19.2097C3.81196 18.9995 2.99658 18.0465 2.99658 16.9014V5.42121C2.99658 4.12752 4.04184 3.073 5.32417 3.073H22.6122C23.8946 3.073 24.9398 4.12752 24.9398 5.42121V16.9014C24.9398 18.1951 23.8946 19.2496 22.6122 19.2496H11.2293C11.0928 19.2496 10.9564 19.2822 10.8342 19.3402L5.4427 21.9964V22ZM5.32776 4.88489C5.03322 4.88489 4.79615 5.12768 4.79615 5.42121V16.9014C4.79615 17.1985 5.03681 17.4377 5.32776 17.4377H5.69055C6.01382 17.4377 6.31914 17.579 6.53106 17.8291C6.74299 18.0791 6.83279 18.4052 6.7825 18.7278L6.68193 19.3728L10.0512 17.7131C10.4176 17.5319 10.827 17.4377 11.2365 17.4377H22.6194C22.914 17.4377 23.151 17.1949 23.151 16.9014V5.42121C23.151 5.12406 22.914 4.88489 22.6194 4.88489H5.32776Z" fill="#717071"/>
<path d="M25.6509 16.1802H24.0453V14.3683H25.6509C25.9562 14.3683 26.2041 14.1183 26.2041 13.8102V2.36996C26.2041 2.06193 25.9562 1.81189 25.6509 1.81189H8.40236C8.09704 1.81189 7.8492 2.06193 7.8492 2.36996V3.97892H6.05322V2.36996C6.05322 1.06539 7.10567 0 8.40236 0H25.6509C26.944 0 28.0001 1.06177 28.0001 2.36996V13.8139C28.0001 15.1184 26.9476 16.1838 25.6509 16.1838V16.1802Z" fill="#717071"/>
</g>
<defs>
<clipPath id="clip0_1708_11671">
<rect width="25" height="22" fill="white" transform="translate(3)"/>
</clipPath>
</defs>
</svg>
